Amstelvar-Roman_wght800_wdth85.ufo
<glyph name="exclam" format="2">
  <advance width="715"/>
  <unicode hex="0021"/>
  <outline>
    <contour>
      <point x="166" y="158" type="qcurve" smooth="yes"/>
      <point x="166" y="232"/>
      <point x="273" y="338"/>
      <point x="357" y="338" type="qcurve" smooth="yes"/>
      <point x="441" y="338"/>
      <point x="548" y="232"/>
      <point x="548" y="158" type="qcurve" smooth="yes"/>
      <point x="548" y="84"/>
      <point x="441" y="-22"/>
      <point x="357" y="-22" type="qcurve" smooth="yes"/>
      <point x="273" y="-22"/>
      <point x="166" y="84"/>
    </contour>
    <contour>
      <point x="176" y="1354" type="line" smooth="yes"/>
      <point x="172" y="1433"/>
      <point x="273" y="1539"/>
      <point x="353" y="1539" type="qcurve" smooth="yes"/>
      <point x="433" y="1540"/>
      <point x="539" y="1434"/>
      <point x="535" y="1354" type="qcurve" smooth="yes"/>
      <point x="524" y="1099" type="line"/>
      <point x="462" y="791" type="line"/>
      <point x="422" y="468" type="line"/>
      <point x="288" y="468" type="line"/>
      <point x="248" y="791" type="line"/>
      <point x="188" y="1099" type="line"/>
    </contour>
  </outline>
</glyph>
<glyph name="quotedbl" format="2">
  <advance width="993"/>
  <unicode hex="0022"/>
  <outline>
    <contour>
      <point x="238" y="859" type="line"/>
      <point x="110" y="1372" type="line"/>
      <point x="110" y="1440"/>
      <point x="192" y="1558"/>
      <point x="281" y="1558" type="qcurve" smooth="yes"/>
      <point x="370" y="1558"/>
      <point x="452" y="1440"/>
      <point x="452" y="1372" type="qcurve"/>
      <point x="323" y="859" type="line"/>
    </contour>
    <contour>
      <point x="669" y="859" type="line"/>
      <point x="541" y="1372" type="line"/>
      <point x="541" y="1440"/>
      <point x="624" y="1558"/>
      <point x="712" y="1558" type="qcurve" smooth="yes"/>
      <point x="801" y="1558"/>
      <point x="883" y="1440"/>
      <point x="883" y="1372" type="qcurve"/>
      <point x="754" y="859" type="line"/>
    </contour>
  </outline>
</glyph>
<glyph name="numbersign" format="2">
  <advance width="1224"/>
  <unicode hex="0023"/>
  <outline>
    <contour>
      <point x="70" y="426" type="line"/>
      <point x="70" y="641" type="line"/>
      <point x="1066" y="641" type="line"/>
      <point x="1066" y="426" type="line"/>
    </contour>
    <contour>
      <point x="158" y="840" type="line"/>
      <point x="158" y="1054" type="line"/>
      <point x="1155" y="1054" type="line"/>
      <point x="1155" y="840" type="line"/>
    </contour>
    <contour>
      <point x="125" y="-23" type="line"/>
      <point x="621" y="1551" type="line"/>
      <point x="723" y="1528" type="line"/>
      <point x="228" y="-45" type="line"/>
    </contour>
    <contour>
      <point x="515" y="-23" type="line"/>
      <point x="1010" y="1551" type="line"/>
      <point x="1113" y="1528" type="line"/>
      <point x="617" y="-45" type="line"/>
    </contour>
  </outline>
</glyph>
<glyph name="dollar" format="2">
  <advance width="1110"/>
  <unicode hex="0024"/>
  <outline>
    <contour>
      <point x="28" y="251" type="qcurve"/>
      <point x="160" y="361" type="line"/>
      <point x="214" y="268"/>
      <point x="402" y="145"/>
      <point x="536" y="145" type="qcurve" smooth="yes"/>
      <point x="659" y="145"/>
      <point x="786" y="262"/>
      <point x="786" y="358" type="qcurve" smooth="yes"/>
      <point x="786" y="473"/>
      <point x="632" y="593"/>
      <point x="463" y="661" type="qcurve" smooth="yes"/>
      <point x="266" y="739"/>
      <point x="75" y="953"/>
      <point x="75" y="1118" type="qcurve" smooth="yes"/>
      <point x="75" y="1289"/>
      <point x="336" y="1502"/>
      <point x="541" y="1502" type="qcurve" smooth="yes"/>
      <point x="681" y="1502"/>
      <point x="891" y="1436"/>
      <point x="981" y="1363" type="qcurve"/>
      <point x="886" y="1221" type="line"/>
      <point x="812" y="1284"/>
      <point x="649" y="1347"/>
      <point x="545" y="1347" type="qcurve" smooth="yes"/>
      <point x="438" y="1347"/>
      <point x="331" y="1265"/>
      <point x="331" y="1184" type="qcurve" smooth="yes"/>
      <point x="331" y="1110"/>
      <point x="445" y="1007"/>
      <point x="627" y="936" type="qcurve" smooth="yes"/>
      <point x="829" y="853"/>
      <point x="1064" y="631"/>
      <point x="1064" y="442" type="qcurve" smooth="yes"/>
      <point x="1064" y="242"/>
      <point x="788" y="-1"/>
      <point x="560" y="-1" type="qcurve" smooth="yes"/>
      <point x="359" y="-1"/>
      <point x="101" y="128"/>
    </contour>
    <contour>
      <point x="459" y="-181" type="line"/>
      <point x="459" y="55" type="line"/>
      <point x="487" y="55" type="line"/>
      <point x="487" y="796" type="line"/>
      <point x="615" y="775" type="line"/>
      <point x="615" y="55" type="line"/>
      <point x="645" y="55" type="line"/>
      <point x="645" y="-148" type="line"/>
    </contour>
    <contour>
      <point x="456" y="1609" type="line"/>
      <point x="643" y="1637" type="line"/>
      <point x="643" y="1421" type="line"/>
      <point x="614" y="1421" type="line"/>
      <point x="614" y="775" type="line"/>
      <point x="485" y="796" type="line"/>
      <point x="485" y="1421" type="line"/>
      <point x="456" y="1421" type="line"/>
    </contour>
  </outline>
</glyph>
<glyph name="percent" format="2">
  <advance width="2035"/>
  <unicode hex="0025"/>
  <outline>
    <contour>
      <point x="49" y="1070" type="qcurve" smooth="yes"/>
      <point x="49" y="1272"/>
      <point x="286" y="1521"/>
      <point x="477" y="1521" type="qcurve" smooth="yes"/>
      <point x="669" y="1521"/>
      <point x="909" y="1291"/>
      <point x="909" y="1075" type="qcurve" smooth="yes"/>
      <point x="909" y="872"/>
      <point x="674" y="615"/>
      <point x="482" y="615" type="qcurve" smooth="yes"/>
      <point x="290" y="615"/>
      <point x="49" y="851"/>
    </contour>
    <contour>
      <point x="329" y="1081" type="qcurve" smooth="yes"/>
      <point x="329" y="892"/>
      <point x="405" y="729"/>
      <point x="476" y="729" type="qcurve" smooth="yes"/>
      <point x="552" y="729"/>
      <point x="624" y="875"/>
      <point x="624" y="1074" type="qcurve" smooth="yes"/>
      <point x="624" y="1253"/>
      <point x="549" y="1403"/>
      <point x="477" y="1403" type="qcurve" smooth="yes"/>
      <point x="400" y="1403"/>
      <point x="328" y="1273"/>
    </contour>
    <contour>
      <point x="474" y="47" type="line"/>
      <point x="1433" y="1522" type="line"/>
      <point x="1559" y="1440" type="line"/>
      <point x="597" y="-37" type="line"/>
    </contour>
    <contour>
      <point x="1126" y="417" type="qcurve" smooth="yes"/>
      <point x="1126" y="619"/>
      <point x="1363" y="878"/>
      <point x="1555" y="878" type="qcurve" smooth="yes"/>
      <point x="1746" y="878"/>
      <point x="1987" y="638"/>
      <point x="1987" y="421" type="qcurve" smooth="yes"/>
      <point x="1987" y="227"/>
      <point x="1751" y="-28"/>
      <point x="1560" y="-28" type="qcurve" smooth="yes"/>
      <point x="1368" y="-28"/>
      <point x="1126" y="206"/>
    </contour>
    <contour>
      <point x="1406" y="431" type="qcurve" smooth="yes"/>
      <point x="1406" y="249"/>
      <point x="1482" y="87"/>
      <point x="1554" y="87" type="qcurve" smooth="yes"/>
      <point x="1630" y="87"/>
      <point x="1702" y="228"/>
      <point x="1702" y="423" type="qcurve" smooth="yes"/>
      <point x="1702" y="602"/>
      <point x="1627" y="759"/>
      <point x="1554" y="759" type="qcurve" smooth="yes"/>
      <point x="1477" y="759"/>
      <point x="1406" y="622"/>
    </contour>
  </outline>
</glyph>
<glyph name="ampersand" format="2">
  <advance width="1611"/>
  <unicode hex="0026"/>
  <outline>
    <contour>
      <point x="565" y="-28" type="qcurve" smooth="yes"/>
      <point x="305" y="-28"/>
      <point x="44" y="191"/>
      <point x="51" y="362" type="qcurve" smooth="yes"/>
      <point x="56" y="507"/>
      <point x="272" y="738"/>
      <point x="602" y="912" type="qcurve"/>
      <point x="706" y="963"/>
      <point x="801" y="1116"/>
      <point x="801" y="1206" type="qcurve" smooth="yes"/>
      <point x="801" y="1283"/>
      <point x="724" y="1382"/>
      <point x="645" y="1382" type="qcurve" smooth="yes"/>
      <point x="568" y="1382"/>
      <point x="477" y="1289"/>
      <point x="476" y="1205" type="qcurve" smooth="yes"/>
      <point x="475" y="1113"/>
      <point x="579" y="958"/>
      <point x="695" y="918" type="qcurve"/>
      <point x="1165" y="274" type="line" smooth="yes"/>
      <point x="1218" y="201"/>
      <point x="1304" y="138"/>
      <point x="1356" y="138" type="qcurve" smooth="yes"/>
      <point x="1401" y="138"/>
      <point x="1466" y="171"/>
      <point x="1501" y="214" type="qcurve"/>
      <point x="1584" y="126" type="line"/>
      <point x="1542" y="58"/>
      <point x="1386" y="-36"/>
      <point x="1256" y="-36" type="qcurve" smooth="yes"/>
      <point x="1137" y="-36"/>
      <point x="953" y="48"/>
      <point x="860" y="178" type="qcurve" smooth="yes"/>
      <point x="425" y="785" type="line"/>
      <point x="345" y="830"/>
      <point x="206" y="1034"/>
      <point x="208" y="1174" type="qcurve" smooth="yes"/>
      <point x="211" y="1327"/>
      <point x="442" y="1524"/>
      <point x="637" y="1524" type="qcurve" smooth="yes"/>
      <point x="822" y="1524"/>
      <point x="1011" y="1345"/>
      <point x="1007" y="1202" type="qcurve" smooth="yes"/>
      <point x="1003" y="1061"/>
      <point x="789" y="865"/>
      <point x="671" y="817" type="qcurve"/>
      <point x="497" y="718"/>
      <point x="370" y="533"/>
      <point x="372" y="405" type="qcurve" smooth="yes"/>
      <point x="373" y="277"/>
      <point x="523" y="144"/>
      <point x="661" y="144" type="qcurve" smooth="yes"/>
      <point x="876" y="144"/>
      <point x="1293" y="547"/>
      <point x="1404" y="856" type="qcurve"/>
      <point x="1551" y="842" type="line"/>
      <point x="1451" y="494"/>
      <point x="881" y="-28"/>
    </contour>
    <contour>
      <point x="1041" y="840" type="line"/>
      <point x="1068" y="907"/>
      <point x="1164" y="978"/>
      <point x="1207" y="978" type="qcurve" smooth="yes"/>
      <point x="1248" y="978"/>
      <point x="1375" y="918"/>
      <point x="1419" y="918" type="qcurve" smooth="yes"/>
      <point x="1447" y="918"/>
      <point x="1489" y="929"/>
      <point x="1514" y="952" type="qcurve"/>
      <point x="1611" y="860" type="line"/>
      <point x="1556" y="772"/>
      <point x="1474" y="718"/>
      <point x="1430" y="718" type="qcurve" smooth="yes"/>
      <point x="1394" y="718"/>
      <point x="1255" y="794"/>
      <point x="1219" y="794" type="qcurve" smooth="yes"/>
      <point x="1182" y="794"/>
      <point x="1131" y="776"/>
      <point x="1110" y="757" type="qcurve"/>
    </contour>
  </outline>
</glyph>
<glyph name="quotesingle" format="2">
  <advance width="576"/>
  <unicode hex="0027"/>
  <outline>
    <contour>
      <point x="244" y="859" type="line"/>
      <point x="112" y="1372" type="line"/>
      <point x="112" y="1440"/>
      <point x="196" y="1558"/>
      <point x="288" y="1558" type="qcurve" smooth="yes"/>
      <point x="379" y="1558"/>
      <point x="463" y="1440"/>
      <point x="463" y="1372" type="qcurve"/>
      <point x="329" y="859" type="line"/>
    </contour>
  </outline>
</glyph>
<glyph name="parenleft" format="2">
  <advance width="723"/>
  <unicode hex="0028"/>
  <outline>
    <contour>
      <point x="61" y="659" type="qcurve" smooth="yes"/>
      <point x="61" y="925"/>
      <point x="393" y="1411"/>
      <point x="613" y="1525" type="qcurve"/>
      <point x="707" y="1451" type="line"/>
      <point x="603" y="1327"/>
      <point x="455" y="899"/>
      <point x="455" y="660" type="qcurve" smooth="yes"/>
      <point x="455" y="420"/>
      <point x="601" y="2"/>
      <point x="707" y="-125" type="qcurve"/>
      <point x="620" y="-206" type="line"/>
      <point x="394" y="-83"/>
      <point x="61" y="384"/>
    </contour>
  </outline>
</glyph>
<glyph name="parenright" format="2">
  <advance width="723"/>
  <unicode hex="0029"/>
  <outline>
    <contour>
      <point x="662" y="659" type="qcurve" smooth="yes"/>
      <point x="662" y="384"/>
      <point x="329" y="-83"/>
      <point x="102" y="-206" type="qcurve"/>
      <point x="15" y="-125" type="line"/>
      <point x="122" y="2"/>
      <point x="267" y="420"/>
      <point x="267" y="660" type="qcurve" smooth="yes"/>
      <point x="267" y="899"/>
      <point x="119" y="1327"/>
      <point x="16" y="1451" type="qcurve"/>
      <point x="110" y="1525" type="line"/>
      <point x="330" y="1411"/>
      <point x="662" y="925"/>
    </contour>
  </outline>
</glyph>
<glyph name="asterisk" format="2">
  <advance width="822"/>
  <unicode hex="002A"/>
  <outline>
    <contour>
      <point x="420" y="692" type="qcurve" smooth="yes"/>
      <point x="362" y="692"/>
      <point x="302" y="768"/>
      <point x="316" y="822" type="qcurve" smooth="yes"/>
      <point x="391" y="1062" type="line"/>
      <point x="386" y="1065" type="line"/>
      <point x="215" y="880" type="line" smooth="yes"/>
      <point x="180" y="847"/>
      <point x="82" y="852"/>
      <point x="52" y="906" type="qcurve" smooth="yes"/>
      <point x="21" y="959"/>
      <point x="68" y="1047"/>
      <point x="114" y="1061" type="qcurve" smooth="yes"/>
      <point x="356" y="1116" type="line"/>
      <point x="355" y="1122" type="line"/>
      <point x="114" y="1177" type="line" smooth="yes"/>
      <point x="69" y="1191"/>
      <point x="21" y="1279"/>
      <point x="52" y="1334" type="qcurve" smooth="yes"/>
      <point x="82" y="1386"/>
      <point x="180" y="1392"/>
      <point x="215" y="1359" type="qcurve" smooth="yes"/>
      <point x="386" y="1173" type="line"/>
      <point x="390" y="1177" type="line"/>
      <point x="316" y="1417" type="line" smooth="yes"/>
      <point x="302" y="1473"/>
      <point x="364" y="1547"/>
      <point x="420" y="1547" type="qcurve" smooth="yes"/>
      <point x="478" y="1547"/>
      <point x="538" y="1471"/>
      <point x="525" y="1417" type="qcurve" smooth="yes"/>
      <point x="449" y="1178" type="line"/>
      <point x="455" y="1174" type="line"/>
      <point x="625" y="1359" type="line" smooth="yes"/>
      <point x="660" y="1392"/>
      <point x="758" y="1386"/>
      <point x="788" y="1333" type="qcurve" smooth="yes"/>
      <point x="820" y="1279"/>
      <point x="773" y="1191"/>
      <point x="726" y="1177" type="qcurve" smooth="yes"/>
      <point x="485" y="1123" type="line"/>
      <point x="486" y="1117" type="line"/>
      <point x="726" y="1062" type="line" smooth="yes"/>
      <point x="772" y="1047"/>
      <point x="820" y="959"/>
      <point x="788" y="905" type="qcurve" smooth="yes"/>
      <point x="758" y="852"/>
      <point x="660" y="847"/>
      <point x="625" y="880" type="qcurve" smooth="yes"/>
      <point x="456" y="1065" type="line"/>
      <point x="451" y="1062" type="line"/>
      <point x="525" y="822" type="line" smooth="yes"/>
      <point x="539" y="768"/>
      <point x="482" y="692"/>
    </contour>
  </outline>
</glyph>
<glyph name="plus" format="2">
  <advance width="1005"/>
  <unicode hex="002B"/>
  <outline>
    <contour>
      <point x="64" y="516" type="line"/>
      <point x="64" y="748" type="line"/>
      <point x="941" y="748" type="line"/>
      <point x="941" y="516" type="line"/>
    </contour>
    <contour>
      <point x="369" y="189" type="line"/>
      <point x="369" y="1075" type="line"/>
      <point x="636" y="1075" type="line"/>
      <point x="636" y="189" type="line"/>
    </contour>
  </outline>
</glyph>
<glyph name="comma" format="2">
  <advance width="610"/>
  <unicode hex="002C"/>
  <outline>
    <contour>
      <point x="104" y="-228" type="line"/>
      <point x="159" y="-195"/>
      <point x="288" y="-79"/>
      <point x="317" y="1" type="qcurve"/>
      <point x="210" y="2"/>
      <point x="107" y="105"/>
      <point x="107" y="181" type="qcurve" smooth="yes"/>
      <point x="107" y="256"/>
      <point x="220" y="371"/>
      <point x="308" y="371" type="qcurve" smooth="yes"/>
      <point x="393" y="371"/>
      <point x="510" y="267"/>
      <point x="510" y="165" type="qcurve" smooth="yes"/>
      <point x="510" y="23"/>
      <point x="292" y="-242"/>
      <point x="159" y="-299" type="qcurve"/>
    </contour>
  </outline>
</glyph>
<glyph name="hyphen" format="2">
  <advance width="755"/>
  <unicode hex="002D"/>
  <outline>
    <contour>
      <point x="67" y="515" type="line"/>
      <point x="67" y="783" type="line"/>
      <point x="378" y="779" type="line"/>
      <point x="688" y="783" type="line"/>
      <point x="688" y="515" type="line"/>
      <point x="378" y="519" type="line"/>
    </contour>
  </outline>
</glyph>
<glyph name="period" format="2">
  <advance width="610"/>
  <unicode hex="002E"/>
  <outline>
    <contour>
      <point x="100" y="175" type="qcurve" smooth="yes"/>
      <point x="100" y="255"/>
      <point x="215" y="373"/>
      <point x="305" y="373" type="qcurve" smooth="yes"/>
      <point x="394" y="373"/>
      <point x="510" y="255"/>
      <point x="510" y="175" type="qcurve" smooth="yes"/>
      <point x="510" y="97"/>
      <point x="394" y="-22"/>
      <point x="305" y="-22" type="qcurve"/>
      <point x="215" y="-22"/>
      <point x="100" y="97"/>
    </contour>
  </outline>
</glyph>
<glyph name="slash" format="2">
  <advance width="831"/>
  <unicode hex="002F"/>
  <outline>
    <contour>
      <point x="0" y="-88" type="line"/>
      <point x="583" y="1586" type="line"/>
      <point x="831" y="1502" type="line"/>
      <point x="248" y="-171" type="line"/>
    </contour>
  </outline>
</glyph>
<glyph name="zero" format="2">
  <advance width="1308"/>
  <unicode hex="0030"/>
  <outline>
    <contour>
      <point x="61" y="751" type="qcurve" smooth="yes"/>
      <point x="61" y="1114"/>
      <point x="401" y="1523"/>
      <point x="656" y="1523" type="qcurve" smooth="yes"/>
      <point x="915" y="1523"/>
      <point x="1247" y="1119"/>
      <point x="1247" y="755" type="qcurve" smooth="yes"/>
      <point x="1247" y="407"/>
      <point x="921" y="-25"/>
      <point x="661" y="-25" type="qcurve" smooth="yes"/>
      <point x="402" y="-25"/>
      <point x="61" y="382"/>
    </contour>
    <contour>
      <point x="460" y="769" type="qcurve" smooth="yes"/>
      <point x="461" y="409"/>
      <point x="552" y="106"/>
      <point x="654" y="106" type="qcurve" smooth="yes"/>
      <point x="759" y="106"/>
      <point x="847" y="379"/>
      <point x="848" y="750" type="qcurve" smooth="yes"/>
      <point x="849" y="1106"/>
      <point x="753" y="1381"/>
      <point x="655" y="1381" type="qcurve" smooth="yes"/>
      <point x="551" y="1381"/>
      <point x="460" y="1130"/>
    </contour>
  </outline>
</glyph>
<glyph name="one" format="2">
  <advance width="943"/>
  <unicode hex="0031"/>
  <outline>
    <contour>
      <point x="54" y="0" type="line"/>
      <point x="54" y="112" type="line"/>
      <point x="290" y="150" type="line"/>
      <point x="290" y="754" type="line"/>
      <point x="288" y="1330" type="line"/>
      <point x="52" y="1359" type="line"/>
      <point x="52" y="1485" type="line"/>
      <point x="645" y="1508" type="line"/>
      <point x="677" y="1473" type="line"/>
      <point x="671" y="754" type="line"/>
      <point x="671" y="150" type="line"/>
      <point x="901" y="112" type="line"/>
      <point x="901" y="0" type="line"/>
    </contour>
  </outline>
</glyph>
<glyph name="two" format="2">
  <advance width="1130"/>
  <unicode hex="0032"/>
  <outline>
    <contour>
      <point x="48" y="0" type="line"/>
      <point x="48" y="148" type="line"/>
      <point x="59" y="275"/>
      <point x="235" y="542"/>
      <point x="372" y="660" type="qcurve" smooth="yes"/>
      <point x="517" y="784"/>
      <point x="644" y="974"/>
      <point x="644" y="1097" type="qcurve" smooth="yes"/>
      <point x="644" y="1204"/>
      <point x="531" y="1312"/>
      <point x="441" y="1312" type="qcurve" smooth="yes"/>
      <point x="353" y="1312"/>
      <point x="190" y="1228"/>
      <point x="129" y="1157" type="qcurve"/>
      <point x="45" y="1291" type="line"/>
      <point x="120" y="1383"/>
      <point x="394" y="1524"/>
      <point x="584" y="1524" type="qcurve" smooth="yes"/>
      <point x="800" y="1524"/>
      <point x="1045" y="1325"/>
      <point x="1048" y="1146" type="qcurve" smooth="yes"/>
      <point x="1052" y="941"/>
      <point x="825" y="675"/>
      <point x="653" y="578" type="qcurve" smooth="yes"/>
      <point x="473" y="478"/>
      <point x="313" y="356"/>
      <point x="285" y="296" type="qcurve"/>
      <point x="290" y="283" type="line"/>
      <point x="1077" y="283" type="line"/>
      <point x="1077" y="0" type="line"/>
    </contour>
  </outline>
</glyph>
<glyph name="three" format="2">
  <advance width="1138"/>
  <unicode hex="0033"/>
  <outline>
    <contour>
      <point x="-18" y="144" type="qcurve"/>
      <point x="68" y="278" type="line"/>
      <point x="130" y="208"/>
      <point x="275" y="145"/>
      <point x="376" y="145" type="qcurve" smooth="yes"/>
      <point x="482" y="145"/>
      <point x="627" y="275"/>
      <point x="627" y="422" type="qcurve" smooth="yes"/>
      <point x="627" y="584"/>
      <point x="429" y="711"/>
      <point x="286" y="711" type="qcurve" smooth="yes"/>
      <point x="232" y="711" type="line"/>
      <point x="200" y="842" type="line"/>
      <point x="301" y="847" type="line" smooth="yes"/>
      <point x="435" y="854"/>
      <point x="605" y="991"/>
      <point x="603" y="1140" type="qcurve" smooth="yes"/>
      <point x="601" y="1248"/>
      <point x="497" y="1346"/>
      <point x="413" y="1346" type="qcurve" smooth="yes"/>
      <point x="333" y="1346"/>
      <point x="198" y="1283"/>
      <point x="131" y="1221" type="qcurve"/>
      <point x="59" y="1354" type="line"/>
      <point x="134" y="1425"/>
      <point x="372" y="1524"/>
      <point x="558" y="1524" type="qcurve" smooth="yes"/>
      <point x="772" y="1524"/>
      <point x="1022" y="1343"/>
      <point x="1022" y="1187" type="qcurve" smooth="yes"/>
      <point x="1022" y="1027"/>
      <point x="837" y="850"/>
      <point x="659" y="814" type="qcurve"/>
      <point x="659" y="807" type="line"/>
      <point x="835" y="785"/>
      <point x="1061" y="589"/>
      <point x="1061" y="409" type="qcurve" smooth="yes"/>
      <point x="1061" y="212"/>
      <point x="755" y="-25"/>
      <point x="495" y="-25" type="qcurve" smooth="yes"/>
      <point x="310" y="-25"/>
      <point x="46" y="68"/>
    </contour>
  </outline>
</glyph>
<glyph name="four" format="2">
  <advance width="1250"/>
  <unicode hex="0034"/>
  <outline>
    <contour>
      <point x="22" y="546" type="line"/>
      <point x="707" y="1520" type="line"/>
      <point x="955" y="1499" type="line"/>
      <point x="998" y="1452" type="line"/>
      <point x="993" y="507" type="line"/>
      <point x="992" y="148" type="line"/>
      <point x="1180" y="112" type="line"/>
      <point x="1180" y="0" type="line"/>
      <point x="420" y="0" type="line"/>
      <point x="420" y="112" type="line"/>
      <point x="622" y="148" type="line"/>
      <point x="625" y="505" type="line"/>
      <point x="623" y="1171" type="line"/>
      <point x="221" y="593" type="line"/>
      <point x="223" y="578" type="line"/>
      <point x="1209" y="568" type="line"/>
      <point x="1209" y="433" type="line"/>
      <point x="41" y="419" type="line"/>
    </contour>
  </outline>
</glyph>
<glyph name="five" format="2">
  <advance width="1102"/>
  <unicode hex="0035"/>
  <outline>
    <contour>
      <point x="-13" y="135" type="qcurve"/>
      <point x="71" y="272" type="line"/>
      <point x="122" y="220"/>
      <point x="272" y="145"/>
      <point x="372" y="145" type="qcurve" smooth="yes"/>
      <point x="482" y="145"/>
      <point x="629" y="291"/>
      <point x="629" y="458" type="qcurve" smooth="yes"/>
      <point x="629" y="611"/>
      <point x="433" y="755"/>
      <point x="264" y="755" type="qcurve" smooth="yes"/>
      <point x="170" y="755" type="line"/>
      <point x="139" y="794" type="line"/>
      <point x="183" y="1467" type="line"/>
      <point x="209" y="1500" type="line"/>
      <point x="974" y="1500" type="line"/>
      <point x="960" y="1211" type="line"/>
      <point x="310" y="1211" type="line"/>
      <point x="297" y="1198" type="line"/>
      <point x="271" y="891" type="line"/>
      <point x="442" y="933" type="line"/>
      <point x="754" y="933"/>
      <point x="1040" y="691"/>
      <point x="1040" y="481" type="qcurve" smooth="yes"/>
      <point x="1040" y="246"/>
      <point x="729" y="-25"/>
      <point x="478" y="-25" type="qcurve" smooth="yes"/>
      <point x="303" y="-25"/>
      <point x="47" y="69"/>
    </contour>
  </outline>
</glyph>
<glyph name="six" format="2">
  <advance width="1265"/>
  <unicode hex="0036"/>
  <outline>
    <contour>
      <point x="62" y="655" type="qcurve" smooth="yes"/>
      <point x="62" y="1023"/>
      <point x="548" y="1510"/>
      <point x="979" y="1566" type="qcurve"/>
      <point x="998" y="1438" type="line"/>
      <point x="741" y="1383"/>
      <point x="457" y="1010"/>
      <point x="457" y="638" type="qcurve" smooth="yes"/>
      <point x="457" y="331"/>
      <point x="572" y="105"/>
      <point x="673" y="105" type="qcurve" smooth="yes"/>
      <point x="762" y="105"/>
      <point x="855" y="290"/>
      <point x="855" y="462" type="qcurve" smooth="yes"/>
      <point x="855" y="663"/>
      <point x="766" y="793"/>
      <point x="688" y="793" type="qcurve" smooth="yes"/>
      <point x="645" y="793"/>
      <point x="586" y="772"/>
      <point x="564" y="756" type="qcurve"/>
      <point x="528" y="847" type="line"/>
      <point x="558" y="889"/>
      <point x="702" y="954"/>
      <point x="792" y="954" type="qcurve" smooth="yes"/>
      <point x="993" y="954"/>
      <point x="1223" y="723"/>
      <point x="1223" y="513" type="qcurve" smooth="yes"/>
      <point x="1223" y="262"/>
      <point x="910" y="-24"/>
      <point x="666" y="-24" type="qcurve" smooth="yes"/>
      <point x="395" y="-24"/>
      <point x="62" y="327"/>
    </contour>
  </outline>
</glyph>
<glyph name="seven" format="2">
  <advance width="1064"/>
  <unicode hex="0037"/>
  <outline>
    <contour>
      <point x="37" y="1026" type="line"/>
      <point x="47" y="1500" type="line"/>
      <point x="1061" y="1500" type="line"/>
      <point x="1061" y="1352" type="line"/>
      <point x="765" y="655" type="line"/>
      <point x="521" y="-19" type="line"/>
      <point x="254" y="-19" type="line"/>
      <point x="254" y="66" type="line"/>
      <point x="575" y="682" type="line"/>
      <point x="834" y="1198" type="line"/>
      <point x="812" y="1220" type="line"/>
      <point x="199" y="1220" type="line"/>
      <point x="166" y="1026" type="line"/>
    </contour>
  </outline>
</glyph>
<glyph name="eight" format="2">
  <advance width="1206"/>
  <unicode hex="0038"/>
  <outline>
    <contour>
      <point x="44" y="380" type="qcurve" smooth="yes"/>
      <point x="44" y="563"/>
      <point x="312" y="787"/>
      <point x="500" y="838" type="qcurve"/>
      <point x="585" y="777" type="line"/>
      <point x="497" y="721"/>
      <point x="368" y="533"/>
      <point x="368" y="373" type="qcurve" smooth="yes"/>
      <point x="368" y="239"/>
      <point x="486" y="98"/>
      <point x="596" y="98" type="qcurve" smooth="yes"/>
      <point x="693" y="98"/>
      <point x="810" y="229"/>
      <point x="810" y="351" type="qcurve" smooth="yes"/>
      <point x="810" y="461"/>
      <point x="691" y="596"/>
      <point x="516" y="683" type="qcurve" smooth="yes"/>
      <point x="305" y="782"/>
      <point x="134" y="987"/>
      <point x="136" y="1149" type="qcurve" smooth="yes"/>
      <point x="138" y="1317"/>
      <point x="401" y="1528"/>
      <point x="618" y="1528" type="qcurve" smooth="yes"/>
      <point x="833" y="1528"/>
      <point x="1064" y="1353"/>
      <point x="1064" y="1211" type="qcurve" smooth="yes"/>
      <point x="1064" y="1075"/>
      <point x="872" y="880"/>
      <point x="709" y="808" type="qcurve"/>
      <point x="606" y="863" type="line"/>
      <point x="691" y="926"/>
      <point x="779" y="1093"/>
      <point x="779" y="1203" type="qcurve" smooth="yes"/>
      <point x="779" y="1301"/>
      <point x="688" y="1402"/>
      <point x="611" y="1402" type="qcurve" smooth="yes"/>
      <point x="535" y="1402"/>
      <point x="440" y="1299"/>
      <point x="440" y="1213" type="qcurve" smooth="yes"/>
      <point x="440" y="1119"/>
      <point x="556" y="995"/>
      <point x="751" y="912" type="qcurve" smooth="yes"/>
      <point x="953" y="826"/>
      <point x="1163" y="608"/>
      <point x="1163" y="424" type="qcurve" smooth="yes"/>
      <point x="1163" y="230"/>
      <point x="872" y="-25"/>
      <point x="598" y="-25" type="qcurve" smooth="yes"/>
      <point x="323" y="-25"/>
      <point x="44" y="204"/>
    </contour>
  </outline>
</glyph>
<glyph name="nine" format="2">
  <advance width="1267"/>
  <unicode hex="0039"/>
  <outline>
    <contour>
      <point x="45" y="988" type="qcurve" smooth="yes"/>
      <point x="45" y="1232"/>
      <point x="354" y="1524"/>
      <point x="597" y="1524" type="qcurve" smooth="yes"/>
      <point x="864" y="1524"/>
      <point x="1206" y="1171"/>
      <point x="1206" y="843" type="qcurve" smooth="yes"/>
      <point x="1206" y="475"/>
      <point x="706" y="-11"/>
      <point x="276" y="-68" type="qcurve"/>
      <point x="257" y="61" type="line"/>
      <point x="514" y="115"/>
      <point x="809" y="489"/>
      <point x="809" y="861" type="qcurve" smooth="yes"/>
      <point x="809" y="1167"/>
      <point x="694" y="1395"/>
      <point x="597" y="1395" type="qcurve" smooth="yes"/>
      <point x="500" y="1395"/>
      <point x="411" y="1203"/>
      <point x="411" y="1032" type="qcurve" smooth="yes"/>
      <point x="411" y="831"/>
      <point x="503" y="701"/>
      <point x="590" y="701" type="qcurve" smooth="yes"/>
      <point x="623" y="701"/>
      <point x="683" y="721"/>
      <point x="705" y="737" type="qcurve"/>
      <point x="740" y="647" type="line"/>
      <point x="710" y="605"/>
      <point x="571" y="540"/>
      <point x="476" y="540" type="qcurve" smooth="yes"/>
      <point x="276" y="540"/>
      <point x="45" y="770"/>
    </contour>
  </outline>
</glyph>
<glyph name="colon" format="2">
  <advance width="663"/>
  <unicode hex="003A"/>
  <outline>
    <contour>
      <point x="126" y="176" type="qcurve" smooth="yes"/>
      <point x="126" y="256"/>
      <point x="242" y="375"/>
      <point x="331" y="375" type="qcurve" smooth="yes"/>
      <point x="421" y="375"/>
      <point x="537" y="256"/>
      <point x="537" y="176" type="qcurve" smooth="yes"/>
      <point x="537" y="98"/>
      <point x="421" y="-22"/>
      <point x="331" y="-22" type="qcurve" smooth="yes"/>
      <point x="242" y="-22"/>
      <point x="126" y="98"/>
    </contour>
    <contour>
      <point x="126" y="838" type="qcurve" smooth="yes"/>
      <point x="126" y="918"/>
      <point x="242" y="1037"/>
      <point x="331" y="1037" type="qcurve" smooth="yes"/>
      <point x="421" y="1037"/>
      <point x="537" y="918"/>
      <point x="537" y="838" type="qcurve" smooth="yes"/>
      <point x="537" y="760"/>
      <point x="421" y="640"/>
      <point x="331" y="640" type="qcurve" smooth="yes"/>
      <point x="242" y="640"/>
      <point x="126" y="760"/>
    </contour>
  </outline>
</glyph>
<glyph name="semicolon" format="2">
  <advance width="663"/>
  <unicode hex="003B"/>
  <outline>
    <contour>
      <point x="125" y="-231" type="line"/>
      <point x="180" y="-198"/>
      <point x="309" y="-79"/>
      <point x="339" y="1" type="qcurve"/>
      <point x="231" y="1"/>
      <point x="126" y="105"/>
      <point x="126" y="181" type="qcurve" smooth="yes"/>
      <point x="126" y="256"/>
      <point x="238" y="371"/>
      <point x="327" y="371" type="qcurve" smooth="yes"/>
      <point x="412" y="371"/>
      <point x="529" y="267"/>
      <point x="529" y="165" type="qcurve" smooth="yes"/>
      <point x="529" y="23"/>
      <point x="310" y="-242"/>
      <point x="177" y="-299" type="qcurve"/>
    </contour>
    <contour>
      <point x="126" y="837" type="qcurve" smooth="yes"/>
      <point x="126" y="918"/>
      <point x="242" y="1037"/>
      <point x="331" y="1037" type="qcurve" smooth="yes"/>
      <point x="421" y="1037"/>
      <point x="537" y="918"/>
      <point x="537" y="837" type="qcurve" smooth="yes"/>
      <point x="537" y="760"/>
      <point x="421" y="640"/>
      <point x="331" y="640" type="qcurve" smooth="yes"/>
      <point x="242" y="640"/>
      <point x="126" y="760"/>
    </contour>
  </outline>
</glyph>
<glyph name="less" format="2">
  <advance width="1005"/>
  <unicode hex="003C"/>
  <outline>
    <contour>
      <point x="104" y="634" type="qcurve"/>
      <point x="105" y="635"/>
      <point x="636" y="1075"/>
      <point x="706" y="1134" type="qcurve" smooth="yes"/>
      <point x="788" y="1203"/>
      <point x="921" y="1051"/>
      <point x="850" y="976" type="qcurve" smooth="yes"/>
      <point x="735" y="854"/>
      <point x="508" y="644"/>
      <point x="499" y="637" type="qcurve"/>
      <point x="510" y="629"/>
      <point x="746" y="421"/>
      <point x="853" y="307" type="qcurve" smooth="yes"/>
      <point x="922" y="232"/>
      <point x="787" y="83"/>
      <point x="715" y="144" type="qcurve" smooth="yes"/>
      <point x="646" y="203"/>
      <point x="105" y="633"/>
    </contour>
  </outline>
</glyph>
<glyph name="equal" format="2">
  <advance width="1005"/>
  <unicode hex="003D"/>
  <outline>
    <contour>
      <point x="95" y="298" type="line"/>
      <point x="95" y="538" type="line"/>
      <point x="502" y="534" type="line"/>
      <point x="910" y="538" type="line"/>
      <point x="910" y="298" type="line"/>
      <point x="502" y="302" type="line"/>
    </contour>
    <contour>
      <point x="95" y="710" type="line"/>
      <point x="95" y="950" type="line"/>
      <point x="502" y="946" type="line"/>
      <point x="910" y="950" type="line"/>
      <point x="910" y="710" type="line"/>
      <point x="502" y="714" type="line"/>
    </contour>
  </outline>
</glyph>
<glyph name="greater" format="2">
  <advance width="1005"/>
  <unicode hex="003E"/>
  <outline>
    <contour>
      <point x="152" y="306" type="qcurve" smooth="yes"/>
      <point x="259" y="420"/>
      <point x="495" y="629"/>
      <point x="506" y="637" type="qcurve"/>
      <point x="497" y="644"/>
      <point x="270" y="854"/>
      <point x="155" y="976" type="qcurve" smooth="yes"/>
      <point x="84" y="1051"/>
      <point x="217" y="1203"/>
      <point x="299" y="1133" type="qcurve" smooth="yes"/>
      <point x="369" y="1074"/>
      <point x="900" y="636"/>
      <point x="901" y="634" type="qcurve"/>
      <point x="900" y="633"/>
      <point x="360" y="203"/>
      <point x="290" y="143" type="qcurve" smooth="yes"/>
      <point x="219" y="83"/>
      <point x="83" y="231"/>
    </contour>
  </outline>
</glyph>
<glyph name="question" format="2">
  <advance width="1037"/>
  <unicode hex="003F"/>
  <outline>
    <contour>
      <point x="220" y="158" type="qcurve" smooth="yes"/>
      <point x="220" y="232"/>
      <point x="326" y="338"/>
      <point x="410" y="338" type="qcurve" smooth="yes"/>
      <point x="495" y="338"/>
      <point x="601" y="232"/>
      <point x="601" y="158" type="qcurve" smooth="yes"/>
      <point x="601" y="84"/>
      <point x="495" y="-22"/>
      <point x="410" y="-22" type="qcurve" smooth="yes"/>
      <point x="326" y="-22"/>
      <point x="220" y="84"/>
    </contour>
    <contour>
      <point x="56" y="1215" type="qcurve" smooth="yes"/>
      <point x="56" y="1358"/>
      <point x="295" y="1537"/>
      <point x="513" y="1537" type="qcurve" smooth="yes"/>
      <point x="742" y="1537"/>
      <point x="999" y="1347"/>
      <point x="999" y="1167" type="qcurve" smooth="yes"/>
      <point x="999" y="994"/>
      <point x="816" y="786"/>
      <point x="706" y="739" type="qcurve" smooth="yes"/>
      <point x="609" y="698"/>
      <point x="457" y="608"/>
      <point x="457" y="525" type="qcurve" smooth="yes"/>
      <point x="457" y="468" type="line"/>
      <point x="327" y="468" type="line"/>
      <point x="313" y="562" type="line" smooth="yes"/>
      <point x="297" y="660"/>
      <point x="380" y="834"/>
      <point x="489" y="903" type="qcurve" smooth="yes"/>
      <point x="563" y="950"/>
      <point x="660" y="1067"/>
      <point x="660" y="1172" type="qcurve" smooth="yes"/>
      <point x="660" y="1274"/>
      <point x="548" y="1394"/>
      <point x="444" y="1394" type="qcurve" smooth="yes"/>
      <point x="345" y="1394"/>
      <point x="237" y="1327"/>
      <point x="237" y="1278" type="qcurve" smooth="yes"/>
      <point x="237" y="1245"/>
      <point x="350" y="1184"/>
      <point x="351" y="1123" type="qcurve" smooth="yes"/>
      <point x="352" y="1076"/>
      <point x="286" y="1007"/>
      <point x="220" y="1007" type="qcurve" smooth="yes"/>
      <point x="149" y="1007"/>
      <point x="56" y="1113"/>
    </contour>
  </outline>
</glyph>
<glyph name="at" format="2">
  <advance width="1609"/>
  <unicode hex="0040"/>
  <outline>
    <contour>
      <point x="72" y="716" type="qcurve" smooth="yes"/>
      <point x="72" y="1104"/>
      <point x="502" y="1519"/>
      <point x="814" y="1519" type="qcurve" smooth="yes"/>
      <point x="1127" y="1519"/>
      <point x="1526" y="1152"/>
      <point x="1526" y="838" type="qcurve" smooth="yes"/>
      <point x="1526" y="596"/>
      <point x="1291" y="344"/>
      <point x="1124" y="344" type="qcurve" smooth="yes"/>
      <point x="1050" y="344"/>
      <point x="952" y="392"/>
      <point x="929" y="441" type="qcurve"/>
      <point x="894" y="395"/>
      <point x="762" y="327"/>
      <point x="684" y="327" type="qcurve" smooth="yes"/>
      <point x="570" y="327"/>
      <point x="436" y="443"/>
      <point x="436" y="549" type="qcurve" smooth="yes"/>
      <point x="436" y="671"/>
      <point x="678" y="825"/>
      <point x="938" y="873" type="qcurve"/>
      <point x="945" y="792" type="line"/>
      <point x="810" y="762"/>
      <point x="671" y="660"/>
      <point x="671" y="563" type="qcurve" smooth="yes"/>
      <point x="671" y="512"/>
      <point x="724" y="458"/>
      <point x="771" y="458" type="qcurve" smooth="yes"/>
      <point x="810" y="458"/>
      <point x="887" y="501"/>
      <point x="907" y="535" type="qcurve"/>
      <point x="909" y="879" type="line" smooth="yes"/>
      <point x="909" y="999"/>
      <point x="832" y="1086"/>
      <point x="759" y="1086" type="qcurve" smooth="yes"/>
      <point x="707" y="1086"/>
      <point x="642" y="1058"/>
      <point x="617" y="1033" type="qcurve"/>
      <point x="635" y="1016"/>
      <point x="656" y="972"/>
      <point x="657" y="952" type="qcurve" smooth="yes"/>
      <point x="660" y="913"/>
      <point x="612" y="867"/>
      <point x="572" y="867" type="qcurve" smooth="yes"/>
      <point x="533" y="867"/>
      <point x="478" y="932"/>
      <point x="478" y="990" type="qcurve" smooth="yes"/>
      <point x="479" y="1072"/>
      <point x="656" y="1199"/>
      <point x="796" y="1199" type="qcurve" smooth="yes"/>
      <point x="956" y="1199"/>
      <point x="1133" y="1047"/>
      <point x="1135" y="876" type="qcurve" smooth="yes"/>
      <point x="1139" y="506" type="line" smooth="yes"/>
      <point x="1139" y="485"/>
      <point x="1157" y="472"/>
      <point x="1180" y="472" type="qcurve" smooth="yes"/>
      <point x="1267" y="472"/>
      <point x="1377" y="633"/>
      <point x="1377" y="811" type="qcurve" smooth="yes"/>
      <point x="1378" y="1074"/>
      <point x="1075" y="1377"/>
      <point x="814" y="1377" type="qcurve" smooth="yes"/>
      <point x="549" y="1377"/>
      <point x="225" y="1047"/>
      <point x="225" y="748" type="qcurve" smooth="yes"/>
      <point x="225" y="415"/>
      <point x="540" y="107"/>
      <point x="794" y="107" type="qcurve" smooth="yes"/>
      <point x="913" y="107"/>
      <point x="1082" y="164"/>
      <point x="1142" y="208" type="qcurve"/>
      <point x="1204" y="110" type="line"/>
      <point x="1143" y="52"/>
      <point x="923" y="-26"/>
      <point x="787" y="-26" type="qcurve" smooth="yes"/>
      <point x="479" y="-26"/>
      <point x="72" y="341"/>
    </contour>
  </outline>
</glyph>
<glyph name="A" format="2">
  <advance width="1453"/>
  <unicode hex="0041"/>
  <anchor x="726" y="0" name="bottom"/>
  <anchor x="895" y="0" name="ogonek"/>
  <anchor x="726" y="1500" name="top"/>
  <outline>
    <contour>
      <point x="-4" y="0" type="line"/>
      <point x="-4" y="117" type="line"/>
      <point x="140" y="150" type="line"/>
      <point x="289" y="637" type="line"/>
      <point x="549" y="1503" type="line"/>
      <point x="896" y="1503" type="line"/>
      <point x="1159" y="666" type="line"/>
      <point x="1322" y="152" type="line"/>
      <point x="1456" y="117" type="line"/>
      <point x="1456" y="0" type="line"/>
      <point x="762" y="0" type="line"/>
      <point x="762" y="117" type="line"/>
      <point x="905" y="151" type="line"/>
      <point x="776" y="587" type="line"/>
      <point x="599" y="1138" type="line"/>
      <point x="428" y="603" type="line"/>
      <point x="305" y="149" type="line"/>
      <point x="448" y="117" type="line"/>
      <point x="448" y="0" type="line"/>
    </contour>
    <contour>
      <point x="597" y="564" type="line"/>
      <point x="911" y="576" type="line"/>
      <point x="940" y="443" type="line"/>
      <point x="597" y="443" type="line"/>
    </contour>
    <contour>
      <point x="296" y="443" type="line"/>
      <point x="327" y="575" type="line"/>
      <point x="597" y="564" type="line"/>
      <point x="597" y="443" type="line"/>
    </contour>
  </outline>
</glyph>
<glyph name="B" format="2">
  <advance width="1402"/>
  <unicode hex="0042"/>
  <anchor x="701" y="0" name="bottom"/>
  <anchor x="701" y="1500" name="top"/>
  <outline>
    <contour>
      <point x="45" y="0" type="line"/>
      <point x="45" y="119" type="line"/>
      <point x="206" y="154" type="line"/>
      <point x="208" y="755" type="line"/>
      <point x="206" y="1334" type="line"/>
      <point x="45" y="1368" type="line"/>
      <point x="45" y="1500" type="line"/>
      <point x="839" y="1500" type="line" smooth="yes"/>
      <point x="1063" y="1500"/>
      <point x="1270" y="1313"/>
      <point x="1270" y="1168" type="qcurve" smooth="yes"/>
      <point x="1270" y="1027"/>
      <point x="1146" y="854"/>
      <point x="1042" y="830" type="qcurve"/>
      <point x="1042" y="823" type="line"/>
      <point x="1172" y="794"/>
      <point x="1344" y="604"/>
      <point x="1344" y="433" type="qcurve" smooth="yes"/>
      <point x="1344" y="246"/>
      <point x="1111" y="0"/>
      <point x="874" y="0" type="qcurve" smooth="yes"/>
    </contour>
    <contour>
      <point x="594" y="156" type="line"/>
      <point x="619" y="136" type="line"/>
      <point x="706" y="136" type="line" smooth="yes"/>
      <point x="837" y="136"/>
      <point x="951" y="272"/>
      <point x="951" y="440" type="qcurve" smooth="yes"/>
      <point x="951" y="596"/>
      <point x="841" y="728"/>
      <point x="738" y="728" type="qcurve" smooth="yes"/>
      <point x="602" y="728" type="line"/>
      <point x="593" y="716" type="line"/>
    </contour>
    <contour>
      <point x="593" y="872" type="line"/>
      <point x="600" y="861" type="line"/>
      <point x="693" y="861" type="line" smooth="yes"/>
      <point x="795" y="861"/>
      <point x="887" y="981"/>
      <point x="887" y="1125" type="qcurve" smooth="yes"/>
      <point x="887" y="1265"/>
      <point x="791" y="1357"/>
      <point x="700" y="1357" type="qcurve" smooth="yes"/>
      <point x="615" y="1357" type="line"/>
      <point x="596" y="1342" type="line"/>
    </contour>
  </outline>
</glyph>
<glyph name="C" format="2">
  <advance width="1382"/>
  <unicode hex="0043"/>
  <anchor x="772" y="0" name="bottom"/>
  <anchor x="791" y="1500" name="top"/>
  <outline>
    <contour>
      <point x="65" y="703" type="qcurve" smooth="yes"/>
      <point x="65" y="1072"/>
      <point x="460" y="1520"/>
      <point x="791" y="1520" type="qcurve" smooth="yes"/>
      <point x="919" y="1520"/>
      <point x="1080" y="1460"/>
      <point x="1127" y="1419" type="qcurve"/>
      <point x="1159" y="1500" type="line"/>
      <point x="1286" y="1500" type="line"/>
      <point x="1286" y="1013" type="line"/>
      <point x="1134" y="1013" type="line"/>
      <point x="1105" y="1168" type="line" smooth="yes"/>
      <point x="1087" y="1265"/>
      <point x="966" y="1369"/>
      <point x="852" y="1369" type="qcurve" smooth="yes"/>
      <point x="680" y="1369"/>
      <point x="489" y="1096"/>
      <point x="489" y="738" type="qcurve" smooth="yes"/>
      <point x="489" y="400"/>
      <point x="691" y="151"/>
      <point x="873" y="151" type="qcurve" smooth="yes"/>
      <point x="1005" y="151"/>
      <point x="1193" y="265"/>
      <point x="1245" y="354" type="qcurve"/>
      <point x="1351" y="254" type="line"/>
      <point x="1272" y="123"/>
      <point x="988" y="-26"/>
      <point x="776" y="-26" type="qcurve" smooth="yes"/>
      <point x="464" y="-26"/>
      <point x="65" y="373"/>
    </contour>
  </outline>
</glyph>
<glyph name="D" format="2">
  <advance width="1567"/>
  <unicode hex="0044"/>
  <anchor x="685" y="0" name="bottom"/>
  <anchor x="446" y="750" name="center"/>
  <anchor x="684" y="1500" name="top"/>
  <outline>
    <contour>
      <point x="45" y="0" type="line"/>
      <point x="45" y="118" type="line"/>
      <point x="205" y="154" type="line"/>
      <point x="207" y="754" type="line"/>
      <point x="205" y="1334" type="line"/>
      <point x="45" y="1368" type="line"/>
      <point x="45" y="1500" type="line"/>
      <point x="732" y="1500" type="line" smooth="yes"/>
      <point x="1079" y="1501"/>
      <point x="1500" y="1119"/>
      <point x="1500" y="777" type="qcurve" smooth="yes"/>
      <point x="1500" y="410"/>
      <point x="1074" y="0"/>
      <point x="686" y="0" type="qcurve" smooth="yes"/>
    </contour>
    <contour>
      <point x="595" y="146" type="line"/>
      <point x="617" y="141"/>
      <point x="704" y="134"/>
      <point x="749" y="134" type="qcurve" smooth="yes"/>
      <point x="909" y="134"/>
      <point x="1095" y="415"/>
      <point x="1096" y="756" type="qcurve" smooth="yes"/>
      <point x="1097" y="1078"/>
      <point x="904" y="1351"/>
      <point x="729" y="1351" type="qcurve" smooth="yes"/>
      <point x="698" y="1351"/>
      <point x="618" y="1341"/>
      <point x="596" y="1336" type="qcurve"/>
      <point x="593" y="749" type="line"/>
    </contour>
  </outline>
</glyph>
<glyph name="E" format="2">
  <advance width="1282"/>
  <unicode hex="0045"/>
  <anchor x="669" y="0" name="bottom"/>
  <anchor x="1207" y="0" name="ogonek"/>
  <anchor x="650" y="1500" name="top"/>
  <outline>
    <contour>
      <point x="45" y="0" type="line"/>
      <point x="45" y="119" type="line"/>
      <point x="206" y="154" type="line"/>
      <point x="208" y="755" type="line"/>
      <point x="206" y="1334" type="line"/>
      <point x="45" y="1368" type="line"/>
      <point x="45" y="1500" type="line"/>
      <point x="1156" y="1500" type="line"/>
      <point x="1156" y="1146" type="line"/>
      <point x="1015" y="1146" type="line"/>
      <point x="981" y="1353" type="line"/>
      <point x="636" y="1353" type="line"/>
      <point x="596" y="1331" type="line"/>
      <point x="594" y="783" type="line"/>
      <point x="596" y="162" type="line"/>
      <point x="634" y="137" type="line"/>
      <point x="1033" y="137" type="line"/>
      <point x="1100" y="393" type="line"/>
      <point x="1242" y="393" type="line"/>
      <point x="1207" y="0" type="line"/>
    </contour>
    <contour>
      <point x="408" y="725" type="line"/>
      <point x="408" y="847" type="line"/>
      <point x="888" y="857" type="line"/>
      <point x="917" y="1005" type="line"/>
      <point x="1048" y="1005" type="line"/>
      <point x="1048" y="563" type="line"/>
      <point x="917" y="563" type="line"/>
      <point x="888" y="715" type="line"/>
    </contour>
  </outline>
</glyph>
<glyph name="G" format="2">
  <advance width="1543"/>
  <unicode hex="0047"/>
  <anchor x="803" y="0" name="bottom"/>
  <anchor x="806" y="1500" name="top"/>
  <outline>
    <contour>
      <point x="65" y="731" type="qcurve" smooth="yes"/>
      <point x="65" y="1097"/>
      <point x="479" y="1520"/>
      <point x="806" y="1520" type="qcurve" smooth="yes"/>
      <point x="936" y="1520"/>
      <point x="1113" y="1471"/>
      <point x="1165" y="1437" type="qcurve"/>
      <point x="1192" y="1500" type="line"/>
      <point x="1329" y="1500" type="line"/>
      <point x="1329" y="1032" type="line"/>
      <point x="1174" y="1032" type="line"/>
      <point x="1141" y="1184" type="line" smooth="yes"/>
      <point x="1122" y="1272"/>
      <point x="983" y="1365"/>
      <point x="867" y="1365" type="qcurve" smooth="yes"/>
      <point x="678" y="1365"/>
      <point x="487" y="1096"/>
      <point x="487" y="758" type="qcurve" smooth="yes"/>
      <point x="488" y="394"/>
      <point x="677" y="134"/>
      <point x="857" y="134" type="qcurve" smooth="yes"/>
      <point x="913" y="134"/>
      <point x="1014" y="165"/>
      <point x="1053" y="194" type="qcurve"/>
      <point x="1053" y="529" type="line"/>
      <point x="915" y="561" type="line"/>
      <point x="915" y="691" type="line"/>
      <point x="1516" y="691" type="line"/>
      <point x="1516" y="561" type="line"/>
      <point x="1423" y="529" type="line"/>
      <point x="1423" y="196" type="line"/>
      <point x="1321" y="92"/>
      <point x="999" y="-25"/>
      <point x="803" y="-25" type="qcurve" smooth="yes"/>
      <point x="480" y="-25"/>
      <point x="65" y="365"/>
    </contour>
  </outline>
</glyph>
<glyph name="H" format="2">
  <advance width="1687"/>
  <unicode hex="0048"/>
  <anchor x="843" y="0" name="bottom"/>
  <anchor x="843" y="1092" name="center"/>
  <anchor x="843" y="1500" name="top"/>
  <outline>
    <contour>
      <point x="45" y="0" type="line"/>
      <point x="45" y="119" type="line"/>
      <point x="205" y="154" type="line"/>
      <point x="207" y="754" type="line"/>
      <point x="205" y="1334" type="line"/>
      <point x="45" y="1368" type="line"/>
      <point x="45" y="1500" type="line"/>
      <point x="751" y="1500" type="line"/>
      <point x="751" y="1368" type="line"/>
      <point x="596" y="1334" type="line"/>
      <point x="594" y="754" type="line"/>
      <point x="596" y="154" type="line"/>
      <point x="751" y="119" type="line"/>
      <point x="751" y="0" type="line"/>
    </contour>
    <contour>
      <point x="404" y="703" type="line"/>
      <point x="404" y="854" type="line"/>
      <point x="846" y="846" type="line"/>
      <point x="1296" y="854" type="line"/>
      <point x="1296" y="703" type="line"/>
      <point x="846" y="703" type="line"/>
    </contour>
    <contour>
      <point x="934" y="0" type="line"/>
      <point x="934" y="119" type="line"/>
      <point x="1090" y="154" type="line"/>
      <point x="1092" y="754" type="line"/>
      <point x="1090" y="1334" type="line"/>
      <point x="934" y="1368" type="line"/>
      <point x="934" y="1500" type="line"/>
      <point x="1641" y="1500" type="line"/>
      <point x="1641" y="1368" type="line"/>
      <point x="1481" y="1334" type="line"/>
      <point x="1479" y="754" type="line"/>
      <point x="1481" y="154" type="line"/>
      <point x="1641" y="119" type="line"/>
      <point x="1641" y="0" type="line"/>
    </contour>
  </outline>
</glyph>
<glyph name="I" format="2">
  <advance width="824"/>
  <unicode hex="0049"/>
  <anchor x="412" y="0" name="bottom"/>
  <anchor x="193" y="0" name="ogonek"/>
  <anchor x="412" y="1500" name="top"/>
  <outline>
    <contour>
      <point x="46" y="0" type="line"/>
      <point x="46" y="119" type="line"/>
      <point x="216" y="154" type="line"/>
      <point x="218" y="754" type="line"/>
      <point x="216" y="1334" type="line"/>
      <point x="46" y="1368" type="line"/>
      <point x="46" y="1500" type="line"/>
      <point x="777" y="1500" type="line"/>
      <point x="777" y="1368" type="line"/>
      <point x="607" y="1334" type="line"/>
      <point x="605" y="754" type="line"/>
      <point x="607" y="154" type="line"/>
      <point x="777" y="119" type="line"/>
      <point x="777" y="0" type="line"/>
    </contour>
  </outline>
</glyph>
<glyph name="J" format="2">
  <advance width="804"/>
  <unicode hex="004A"/>
  <anchor x="402" y="-229" name="bottom"/>
  <anchor x="402" y="1500" name="top"/>
  <outline>
    <contour>
      <point x="-16" y="-224" type="qcurve"/>
      <point x="-16" y="-66" type="line"/>
      <point x="9" y="-67"/>
      <point x="49" y="-65"/>
      <point x="86" y="-60" type="qcurve" smooth="yes"/>
      <point x="153" y="-51"/>
      <point x="212" y="31"/>
      <point x="212" y="125" type="qcurve" smooth="yes"/>
      <point x="214" y="781" type="line"/>
      <point x="212" y="1334" type="line"/>
      <point x="47" y="1368" type="line"/>
      <point x="47" y="1500" type="line"/>
      <point x="759" y="1500" type="line"/>
      <point x="759" y="1368" type="line"/>
      <point x="603" y="1334" type="line"/>
      <point x="602" y="781" type="line"/>
      <point x="608" y="196" type="line" smooth="yes"/>
      <point x="611" y="-22"/>
      <point x="382" y="-221"/>
      <point x="179" y="-228" type="qcurve" smooth="yes"/>
      <point x="120" y="-231"/>
      <point x="6" y="-227"/>
    </contour>
  </outline>
</glyph>
<glyph name="K" format="2">
  <advance width="1533"/>
  <unicode hex="004B"/>
  <anchor x="817" y="0" name="bottom"/>
  <anchor x="805" y="1500" name="top"/>
  <outline>
    <contour>
      <point x="45" y="0" type="line"/>
      <point x="45" y="119" type="line"/>
      <point x="206" y="154" type="line"/>
      <point x="208" y="754" type="line"/>
      <point x="206" y="1334" type="line"/>
      <point x="45" y="1368" type="line"/>
      <point x="45" y="1500" type="line"/>
      <point x="757" y="1500" type="line"/>
      <point x="757" y="1368" type="line"/>
      <point x="597" y="1334" type="line"/>
      <point x="595" y="754" type="line"/>
      <point x="597" y="154" type="line"/>
      <point x="742" y="119" type="line"/>
      <point x="742" y="0" type="line"/>
    </contour>
    <contour>
      <point x="394" y="302" type="line"/>
      <point x="392" y="496" type="line"/>
      <point x="1106" y="1333" type="line"/>
      <point x="981" y="1368" type="line"/>
      <point x="981" y="1500" type="line"/>
      <point x="1457" y="1500" type="line"/>
      <point x="1457" y="1368" type="line"/>
      <point x="1297" y="1333" type="line"/>
      <point x="876" y="846" type="line"/>
      <point x="834" y="806" type="line"/>
    </contour>
    <contour>
      <point x="688" y="732" type="line"/>
      <point x="955" y="1035" type="line"/>
      <point x="1432" y="154" type="line"/>
      <point x="1543" y="119" type="line"/>
      <point x="1543" y="0" type="line"/>
      <point x="897" y="0" type="line"/>
      <point x="897" y="119" type="line"/>
      <point x="1006" y="154" type="line"/>
    </contour>
  </outline>
</glyph>
<glyph name="L" format="2">
  <advance width="1232"/>
  <unicode hex="004C"/>
  <anchor x="639" y="0" name="bottom"/>
  <anchor x="970" y="771" name="center"/>
  <anchor x="606" y="1500" name="top"/>
  <anchor x="747" y="1034" name="topright"/>
  <outline>
    <contour>
      <point x="65" y="0" type="line"/>
      <point x="65" y="119" type="line"/>
      <point x="206" y="153" type="line"/>
      <point x="208" y="754" type="line"/>
      <point x="206" y="1334" type="line"/>
      <point x="45" y="1368" type="line"/>
      <point x="45" y="1500" type="line"/>
      <point x="769" y="1500" type="line"/>
      <point x="769" y="1368" type="line"/>
      <point x="598" y="1334" type="line"/>
      <point x="596" y="754" type="line"/>
      <point x="599" y="157" type="line"/>
      <point x="630" y="131" type="line"/>
      <point x="989" y="131" type="line"/>
      <point x="1063" y="419" type="line"/>
      <point x="1218" y="419" type="line"/>
      <point x="1176" y="0" type="line"/>
    </contour>
  </outline>
</glyph>
<glyph name="M" format="2">
  <advance width="1944"/>
  <unicode hex="004D"/>
  <anchor x="972" y="0" name="bottom"/>
  <anchor x="972" y="1500" name="top"/>
  <outline>
    <contour>
      <point x="50" y="0" type="line"/>
      <point x="50" y="119" type="line"/>
      <point x="203" y="154" type="line"/>
      <point x="204" y="751" type="line"/>
      <point x="203" y="1334" type="line"/>
      <point x="50" y="1368" type="line"/>
      <point x="50" y="1500" type="line"/>
      <point x="636" y="1500" type="line"/>
      <point x="806" y="876" type="line"/>
      <point x="947" y="370" type="line"/>
      <point x="1091" y="867" type="line"/>
      <point x="1269" y="1500" type="line"/>
      <point x="1899" y="1500" type="line"/>
      <point x="1899" y="1368" type="line"/>
      <point x="1744" y="1334" type="line"/>
      <point x="1742" y="754" type="line"/>
      <point x="1744" y="154" type="line"/>
      <point x="1899" y="119" type="line"/>
      <point x="1899" y="0" type="line"/>
      <point x="1199" y="0" type="line"/>
      <point x="1199" y="119" type="line"/>
      <point x="1355" y="154" type="line"/>
      <point x="1357" y="754" type="line"/>
      <point x="1355" y="1274" type="line"/>
      <point x="1201" y="764" type="line"/>
      <point x="994" y="-6" type="line"/>
      <point x="686" y="-6" type="line"/>
      <point x="490" y="732" type="line"/>
      <point x="330" y="1280" type="line"/>
      <point x="329" y="752" type="line"/>
      <point x="330" y="154" type="line"/>
      <point x="478" y="119" type="line"/>
      <point x="478" y="0" type="line"/>
    </contour>
  </outline>
</glyph>
<glyph name="N" format="2">
  <advance width="1490"/>
  <unicode hex="004E"/>
  <anchor x="745" y="0" name="bottom"/>
  <anchor x="745" y="1500" name="top"/>
  <outline>
    <contour>
      <point x="45" y="0" type="line"/>
      <point x="45" y="119" type="line"/>
      <point x="203" y="154" type="line"/>
      <point x="204" y="754" type="line"/>
      <point x="203" y="1334" type="line"/>
      <point x="45" y="1368" type="line"/>
      <point x="45" y="1500" type="line"/>
      <point x="610" y="1500" type="line"/>
      <point x="916" y="895" type="line"/>
      <point x="1155" y="438" type="line"/>
      <point x="1155" y="787" type="line"/>
      <point x="1152" y="1334" type="line"/>
      <point x="990" y="1368" type="line"/>
      <point x="990" y="1500" type="line"/>
      <point x="1455" y="1500" type="line"/>
      <point x="1455" y="1368" type="line"/>
      <point x="1299" y="1334" type="line"/>
      <point x="1296" y="775" type="line"/>
      <point x="1293" y="0" type="line"/>
      <point x="964" y="0" type="line"/>
      <point x="610" y="673" type="line"/>
      <point x="346" y="1176" type="line"/>
      <point x="347" y="719" type="line"/>
      <point x="349" y="154" type="line"/>
      <point x="514" y="119" type="line"/>
      <point x="514" y="0" type="line"/>
    </contour>
  </outline>
</glyph>
<glyph name="O" format="2">
  <advance width="1653"/>
  <unicode hex="004F"/>
  <anchor x="826" y="0" name="bottom"/>
  <anchor x="826" y="750" name="center"/>
  <anchor x="1039" y="0" name="ogonek"/>
  <anchor x="826" y="1500" name="top"/>
  <anchor x="1045" y="1500" name="topright"/>
  <outline>
    <contour>
      <point x="65" y="742" type="qcurve" smooth="yes"/>
      <point x="65" y="1073"/>
      <point x="486" y="1525"/>
      <point x="826" y="1525" type="qcurve" smooth="yes"/>
      <point x="1168" y="1525"/>
      <point x="1588" y="1102"/>
      <point x="1588" y="757" type="qcurve" smooth="yes"/>
      <point x="1588" y="429"/>
      <point x="1172" y="-24"/>
      <point x="831" y="-24" type="qcurve" smooth="yes"/>
      <point x="490" y="-24"/>
      <point x="65" y="402"/>
    </contour>
    <contour>
      <point x="488" y="778" type="qcurve" smooth="yes"/>
      <point x="488" y="416"/>
      <point x="675" y="131"/>
      <point x="828" y="131" type="qcurve" smooth="yes"/>
      <point x="995" y="131"/>
      <point x="1165" y="383"/>
      <point x="1165" y="753" type="qcurve" smooth="yes"/>
      <point x="1165" y="1094"/>
      <point x="981" y="1365"/>
      <point x="827" y="1365" type="qcurve" smooth="yes"/>
      <point x="662" y="1365"/>
      <point x="488" y="1110"/>
    </contour>
  </outline>
</glyph>
<glyph name="P" format="2">
  <advance width="1391"/>
  <unicode hex="0050"/>
  <anchor x="696" y="0" name="bottom"/>
  <anchor x="696" y="1500" name="top"/>
  <outline>
    <contour>
      <point x="45" y="0" type="line"/>
      <point x="45" y="118" type="line"/>
      <point x="206" y="154" type="line"/>
      <point x="208" y="754" type="line"/>
      <point x="206" y="1334" type="line"/>
      <point x="45" y="1368" type="line"/>
      <point x="45" y="1500" type="line"/>
      <point x="880" y="1500" type="line" smooth="yes"/>
      <point x="1113" y="1500"/>
      <point x="1353" y="1279"/>
      <point x="1353" y="1064" type="qcurve" smooth="yes"/>
      <point x="1353" y="819"/>
      <point x="1062" y="566"/>
      <point x="806" y="566" type="qcurve" smooth="yes"/>
      <point x="715" y="566"/>
      <point x="580" y="581"/>
      <point x="521" y="593" type="qcurve"/>
      <point x="530" y="728" type="line"/>
      <point x="576" y="718"/>
      <point x="657" y="708"/>
      <point x="725" y="708" type="qcurve" smooth="yes"/>
      <point x="840" y="708"/>
      <point x="958" y="863"/>
      <point x="956" y="1055" type="qcurve" smooth="yes"/>
      <point x="955" y="1223"/>
      <point x="836" y="1354"/>
      <point x="731" y="1354" type="qcurve" smooth="yes"/>
      <point x="623" y="1354" type="line"/>
      <point x="596" y="1334" type="line"/>
      <point x="594" y="764" type="line"/>
      <point x="596" y="153" type="line"/>
      <point x="764" y="119" type="line"/>
      <point x="764" y="0" type="line"/>
    </contour>
  </outline>
</glyph>
<glyph name="Q" format="2">
  <advance width="1653"/>
  <unicode hex="0051"/>
  <anchor x="826" y="0" name="bottom"/>
  <anchor x="826" y="1500" name="top"/>
  <outline>
    <contour>
      <point x="65" y="742" type="qcurve" smooth="yes"/>
      <point x="65" y="1073"/>
      <point x="486" y="1525"/>
      <point x="826" y="1525" type="qcurve" smooth="yes"/>
      <point x="1167" y="1525"/>
      <point x="1588" y="1102"/>
      <point x="1588" y="757" type="qcurve" smooth="yes"/>
      <point x="1588" y="428"/>
      <point x="1160" y="-18"/>
      <point x="830" y="-18" type="qcurve" smooth="yes"/>
      <point x="498" y="-18"/>
      <point x="65" y="407"/>
    </contour>
    <contour>
      <point x="486" y="778" type="qcurve" smooth="yes"/>
      <point x="487" y="435"/>
      <point x="671" y="131"/>
      <point x="825" y="131" type="qcurve" smooth="yes"/>
      <point x="990" y="131"/>
      <point x="1163" y="404"/>
      <point x="1163" y="753" type="qcurve" smooth="yes"/>
      <point x="1164" y="1095"/>
      <point x="981" y="1365"/>
      <point x="826" y="1365" type="qcurve" smooth="yes"/>
      <point x="660" y="1365"/>
      <point x="486" y="1123"/>
    </contour>
    <contour>
      <point x="279" y="-383" type="qcurve"/>
      <point x="196" y="-327" type="line"/>
      <point x="257" y="-187"/>
      <point x="439" y="-49"/>
      <point x="530" y="-40" type="qcurve"/>
      <point x="734" y="327" type="line"/>
      <point x="849" y="261" type="line"/>
      <point x="659" y="-64" type="line"/>
      <point x="1212" y="-225" type="line"/>
      <point x="1306" y="-225"/>
      <point x="1416" y="-147"/>
      <point x="1448" y="-74" type="qcurve"/>
      <point x="1541" y="-122" type="line"/>
      <point x="1502" y="-269"/>
      <point x="1335" y="-475"/>
      <point x="1198" y="-475" type="qcurve"/>
      <point x="538" y="-273" type="line"/>
      <point x="436" y="-273"/>
      <point x="327" y="-315"/>
    </contour>
  </outline>
</glyph>
<glyph name="R" format="2">
  <advance width="1492"/>
  <unicode hex="0052"/>
  <anchor x="839" y="0" name="bottom"/>
  <anchor x="644" y="1500" name="top"/>
  <outline>
    <contour>
      <point x="45" y="0" type="line"/>
      <point x="45" y="118" type="line"/>
      <point x="205" y="154" type="line"/>
      <point x="207" y="759" type="line"/>
      <point x="205" y="1334" type="line"/>
      <point x="45" y="1368" type="line"/>
      <point x="45" y="1500" type="line"/>
      <point x="882" y="1500" type="line" smooth="yes"/>
      <point x="1095" y="1500"/>
      <point x="1314" y="1306"/>
      <point x="1314" y="1133" type="qcurve" smooth="yes"/>
      <point x="1314" y="954"/>
      <point x="1064" y="706"/>
      <point x="875" y="706" type="qcurve" smooth="yes"/>
      <point x="810" y="706"/>
      <point x="450" y="713"/>
      <point x="402" y="718" type="qcurve"/>
      <point x="402" y="849" type="line"/>
      <point x="707" y="849" type="line" smooth="yes"/>
      <point x="817" y="849"/>
      <point x="910" y="973"/>
      <point x="910" y="1123" type="qcurve" smooth="yes"/>
      <point x="910" y="1249"/>
      <point x="821" y="1352"/>
      <point x="727" y="1352" type="qcurve" smooth="yes"/>
      <point x="619" y="1352" type="line"/>
      <point x="597" y="1336" type="line"/>
      <point x="594" y="759" type="line"/>
      <point x="596" y="154" type="line"/>
      <point x="761" y="119" type="line"/>
      <point x="761" y="0" type="line"/>
    </contour>
    <contour>
      <point x="690" y="757" type="line"/>
      <point x="1055" y="811" type="line"/>
      <point x="1284" y="352" type="line" smooth="yes"/>
      <point x="1350" y="218"/>
      <point x="1443" y="124"/>
      <point x="1507" y="120" type="qcurve"/>
      <point x="1507" y="0" type="line"/>
      <point x="1073" y="0" type="line"/>
      <point x="1026" y="44" type="line"/>
    </contour>
  </outline>
</glyph>
<glyph name="S" format="2">
  <advance width="1148"/>
  <unicode hex="0053"/>
  <anchor x="605" y="0" name="bottom"/>
  <anchor x="535" y="1500" name="top"/>
  <outline>
    <contour>
      <point x="41" y="0" type="line"/>
      <point x="41" y="475" type="line"/>
      <point x="191" y="475" type="line"/>
      <point x="203" y="402" type="line" smooth="yes"/>
      <point x="226" y="273"/>
      <point x="404" y="137"/>
      <point x="536" y="137" type="qcurve" smooth="yes"/>
      <point x="663" y="137"/>
      <point x="793" y="247"/>
      <point x="793" y="341" type="qcurve" smooth="yes"/>
      <point x="793" y="441"/>
      <point x="649" y="549"/>
      <point x="467" y="624" type="qcurve" smooth="yes"/>
      <point x="253" y="711"/>
      <point x="67" y="932"/>
      <point x="67" y="1105" type="qcurve" smooth="yes"/>
      <point x="67" y="1291"/>
      <point x="323" y="1523"/>
      <point x="533" y="1523" type="qcurve" smooth="yes"/>
      <point x="653" y="1523"/>
      <point x="812" y="1468"/>
      <point x="865" y="1427" type="qcurve"/>
      <point x="889" y="1497" type="line"/>
      <point x="1015" y="1497" type="line"/>
      <point x="1015" y="1071" type="line"/>
      <point x="874" y="1071" type="line"/>
      <point x="859" y="1153" type="line" smooth="yes"/>
      <point x="840" y="1246"/>
      <point x="689" y="1352"/>
      <point x="572" y="1352" type="qcurve" smooth="yes"/>
      <point x="469" y="1352"/>
      <point x="371" y="1270"/>
      <point x="371" y="1197" type="qcurve" smooth="yes"/>
      <point x="371" y="1124"/>
      <point x="476" y="1030"/>
      <point x="667" y="951" type="qcurve" smooth="yes"/>
      <point x="889" y="861"/>
      <point x="1119" y="637"/>
      <point x="1119" y="441" type="qcurve" smooth="yes"/>
      <point x="1119" y="235"/>
      <point x="834" y="-19"/>
      <point x="605" y="-19" type="qcurve" smooth="yes"/>
      <point x="468" y="-19"/>
      <point x="277" y="38"/>
      <point x="208" y="95" type="qcurve"/>
      <point x="171" y="0" type="line"/>
    </contour>
  </outline>
</glyph>
<glyph name="T" format="2">
  <advance width="1326"/>
  <unicode hex="0054"/>
  <anchor x="663" y="0" name="bottom"/>
  <anchor x="663" y="750" name="center"/>
  <anchor x="663" y="1500" name="top"/>
  <outline>
    <contour>
      <point x="36" y="1061" type="line"/>
      <point x="36" y="1500" type="line"/>
      <point x="1290" y="1500" type="line"/>
      <point x="1290" y="1061" type="line"/>
      <point x="1154" y="1061" type="line"/>
      <point x="1116" y="1359" type="line"/>
      <point x="875" y="1359" type="line"/>
      <point x="856" y="1342" type="line"/>
      <point x="856" y="754" type="line"/>
      <point x="858" y="154" type="line"/>
      <point x="1031" y="118" type="line"/>
      <point x="1031" y="0" type="line"/>
      <point x="293" y="0" type="line"/>
      <point x="293" y="118" type="line"/>
      <point x="467" y="154" type="line"/>
      <point x="469" y="754" type="line"/>
      <point x="468" y="1342" type="line"/>
      <point x="459" y="1359" type="line"/>
      <point x="209" y="1359" type="line"/>
      <point x="171" y="1061" type="line"/>
    </contour>
  </outline>
</glyph>
<glyph name="U" format="2">
  <advance width="1484"/>
  <unicode hex="0055"/>
  <anchor x="742" y="0" name="bottom"/>
  <anchor x="970" y="0" name="ogonek"/>
  <anchor x="745" y="1500" name="top"/>
  <anchor x="1459" y="1500" name="topright"/>
  <outline>
    <contour>
      <point x="31" y="1368" type="line"/>
      <point x="31" y="1500" type="line"/>
      <point x="736" y="1500" type="line"/>
      <point x="736" y="1368" type="line"/>
      <point x="585" y="1334" type="line"/>
      <point x="584" y="794" type="line"/>
      <point x="586" y="453" type="line" smooth="yes"/>
      <point x="587" y="296"/>
      <point x="736" y="159"/>
      <point x="871" y="159" type="qcurve" smooth="yes"/>
      <point x="997" y="159"/>
      <point x="1157" y="315"/>
      <point x="1158" y="475" type="qcurve" smooth="yes"/>
      <point x="1159" y="794" type="line"/>
      <point x="1157" y="1334" type="line"/>
      <point x="998" y="1368" type="line"/>
      <point x="998" y="1500" type="line"/>
      <point x="1459" y="1500" type="line"/>
      <point x="1459" y="1368" type="line"/>
      <point x="1308" y="1334" type="line"/>
      <point x="1306" y="794" type="line"/>
      <point x="1308" y="460" type="line" smooth="yes"/>
      <point x="1310" y="225"/>
      <point x="1025" y="-25"/>
      <point x="765" y="-25" type="qcurve" smooth="yes"/>
      <point x="496" y="-25"/>
      <point x="184" y="220"/>
      <point x="185" y="465" type="qcurve" smooth="yes"/>
      <point x="186" y="794" type="line"/>
      <point x="185" y="1334" type="line"/>
    </contour>
  </outline>
</glyph>
<glyph name="V" format="2">
  <advance width="1398"/>
  <unicode hex="0056"/>
  <anchor x="699" y="0" name="bottom"/>
  <anchor x="699" y="1500" name="top"/>
  <outline>
    <contour>
      <point x="-4" y="1369" type="line"/>
      <point x="-4" y="1500" type="line"/>
      <point x="675" y="1500" type="line"/>
      <point x="675" y="1369" type="line"/>
      <point x="537" y="1334" type="line"/>
      <point x="678" y="858" type="line"/>
      <point x="827" y="369" type="line"/>
      <point x="971" y="853" type="line"/>
      <point x="1108" y="1335" type="line"/>
      <point x="957" y="1369" type="line"/>
      <point x="957" y="1500" type="line"/>
      <point x="1409" y="1500" type="line"/>
      <point x="1409" y="1369" type="line"/>
      <point x="1268" y="1334" type="line"/>
      <point x="1107" y="811" type="line"/>
      <point x="873" y="-3" type="line"/>
      <point x="525" y="-3" type="line"/>
      <point x="299" y="760" type="line"/>
      <point x="124" y="1334" type="line"/>
    </contour>
  </outline>
</glyph>
<glyph name="W" format="2">
  <advance width="2082"/>
  <unicode hex="0057"/>
  <anchor x="1041" y="0" name="bottom"/>
  <anchor x="1041" y="1500" name="top"/>
  <outline>
    <contour>
      <point x="-4" y="1369" type="line"/>
      <point x="-4" y="1500" type="line"/>
      <point x="651" y="1500" type="line"/>
      <point x="651" y="1369" type="line"/>
      <point x="524" y="1334" type="line"/>
      <point x="653" y="841" type="line"/>
      <point x="776" y="384" type="line"/>
      <point x="897" y="763" type="line"/>
      <point x="1027" y="1197" type="line"/>
      <point x="1115" y="1009" type="line"/>
      <point x="1008" y="663" type="line"/>
      <point x="813" y="-3" type="line"/>
      <point x="492" y="-3" type="line"/>
      <point x="291" y="744" type="line"/>
      <point x="125" y="1334" type="line"/>
    </contour>
    <contour>
      <point x="791" y="1371" type="line"/>
      <point x="791" y="1500" type="line"/>
      <point x="1418" y="1500" type="line"/>
      <point x="1418" y="1372" type="line"/>
      <point x="1294" y="1338" type="line"/>
      <point x="1416" y="839" type="line"/>
      <point x="1536" y="393" type="line"/>
      <point x="1661" y="852" type="line"/>
      <point x="1786" y="1334" type="line"/>
      <point x="1640" y="1368" type="line"/>
      <point x="1640" y="1500" type="line"/>
      <point x="2093" y="1500" type="line"/>
      <point x="2093" y="1368" type="line"/>
      <point x="1949" y="1334" type="line"/>
      <point x="1798" y="812" type="line"/>
      <point x="1586" y="-3" type="line"/>
      <point x="1259" y="-3" type="line"/>
      <point x="1075" y="734" type="line"/>
      <point x="908" y="1337" type="line"/>
    </contour>
  </outline>
</glyph>
<glyph name="X" format="2">
  <advance width="1401"/>
  <unicode hex="0058"/>
  <anchor x="701" y="0" name="bottom"/>
  <anchor x="701" y="1500" name="top"/>
  <outline>
    <contour>
      <point x="0" y="0" type="line"/>
      <point x="0" y="119" type="line"/>
      <point x="133" y="153" type="line"/>
      <point x="609" y="855" type="line"/>
      <point x="693" y="855" type="line"/>
      <point x="1002" y="1338" type="line"/>
      <point x="879" y="1368" type="line"/>
      <point x="879" y="1500" type="line"/>
      <point x="1321" y="1500" type="line"/>
      <point x="1321" y="1368" type="line"/>
      <point x="1182" y="1336" type="line"/>
      <point x="781" y="735" type="line"/>
      <point x="699" y="735" type="line"/>
      <point x="314" y="152" type="line"/>
      <point x="443" y="119" type="line"/>
      <point x="443" y="0" type="line"/>
    </contour>
    <contour>
      <point x="25" y="1368" type="line"/>
      <point x="25" y="1500" type="line"/>
      <point x="712" y="1500" type="line"/>
      <point x="712" y="1368" type="line"/>
      <point x="595" y="1336" type="line"/>
      <point x="867" y="852" type="line"/>
      <point x="1273" y="153" type="line"/>
      <point x="1406" y="119" type="line"/>
      <point x="1406" y="0" type="line"/>
      <point x="699" y="0" type="line"/>
      <point x="699" y="119" type="line"/>
      <point x="824" y="153" type="line"/>
      <point x="508" y="726" type="line"/>
      <point x="152" y="1336" type="line"/>
    </contour>
  </outline>
</glyph>
<glyph name="Z" format="2">
  <advance width="1242"/>
  <unicode hex="005A"/>
  <anchor x="621" y="0" name="bottom"/>
  <anchor x="621" y="1500" name="top"/>
  <outline>
    <contour>
      <point x="74" y="0" type="line"/>
      <point x="44" y="105" type="line"/>
      <point x="727" y="1345" type="line"/>
      <point x="720" y="1357" type="line"/>
      <point x="275" y="1357" type="line"/>
      <point x="232" y="1083" type="line"/>
      <point x="90" y="1083" type="line"/>
      <point x="90" y="1500" type="line"/>
      <point x="1178" y="1500" type="line"/>
      <point x="1178" y="1389" type="line"/>
      <point x="502" y="152" type="line"/>
      <point x="511" y="137" type="line"/>
      <point x="996" y="137" type="line"/>
      <point x="1078" y="415" type="line"/>
      <point x="1225" y="415" type="line"/>
      <point x="1178" y="0" type="line"/>
    </contour>
  </outline>
</glyph>
<glyph name="bracketleft" format="2">
  <advance width="694"/>
  <unicode hex="005B"/>
  <outline>
    <contour>
      <point x="115" y="508" type="line"/>
      <point x="103" y="1362" type="line"/>
      <point x="84" y="1382" type="line"/>
      <point x="84" y="1500" type="line"/>
      <point x="642" y="1500" type="line"/>
      <point x="642" y="1381" type="line"/>
      <point x="447" y="1362" type="line"/>
      <point x="435" y="508" type="line"/>
      <point x="447" y="-342" type="line"/>
      <point x="642" y="-361" type="line"/>
      <point x="642" y="-480" type="line"/>
      <point x="84" y="-480" type="line"/>
      <point x="84" y="-362" type="line"/>
      <point x="103" y="-342" type="line"/>
    </contour>
  </outline>
</glyph>
<glyph name="backslash" format="2">
  <advance width="831"/>
  <unicode hex="005C"/>
  <outline>
    <contour>
      <point x="0" y="1502" type="line"/>
      <point x="247" y="1586" type="line"/>
      <point x="831" y="-88" type="line"/>
      <point x="583" y="-171" type="line"/>
    </contour>
  </outline>
</glyph>
<glyph name="bracketright" format="2">
  <advance width="694"/>
  <unicode hex="005D"/>
  <outline>
    <contour>
      <point x="52" y="-480" type="line"/>
      <point x="52" y="-361" type="line"/>
      <point x="247" y="-342" type="line"/>
      <point x="259" y="508" type="line"/>
      <point x="247" y="1362" type="line"/>
      <point x="52" y="1381" type="line"/>
      <point x="52" y="1500" type="line"/>
      <point x="610" y="1500" type="line"/>
      <point x="610" y="1382" type="line"/>
      <point x="591" y="1362" type="line"/>
      <point x="579" y="508" type="line"/>
      <point x="591" y="-342" type="line"/>
      <point x="610" y="-362" type="line"/>
      <point x="610" y="-480" type="line"/>
    </contour>
  </outline>
</glyph>
<glyph name="asciicircum" format="2">
  <advance width="1264"/>
  <unicode hex="005E"/>
  <outline>
    <contour>
      <point x="128" y="926" type="line"/>
      <point x="178" y="988"/>
      <point x="593" y="1501"/>
      <point x="614" y="1524" type="qcurve"/>
      <point x="635" y="1501"/>
      <point x="1078" y="989"/>
      <point x="1131" y="927" type="qcurve"/>
      <point x="1009" y="819" type="line"/>
      <point x="899" y="929"/>
      <point x="630" y="1202"/>
      <point x="616" y="1214" type="qcurve"/>
      <point x="599" y="1195"/>
      <point x="361" y="934"/>
      <point x="253" y="821" type="qcurve"/>
    </contour>
  </outline>
</glyph>
<glyph name="underscore" format="2">
  <advance width="1383"/>
  <unicode hex="005F"/>
  <outline>
    <contour>
      <point x="-20" y="-479" type="line"/>
      <point x="-20" y="-270" type="line"/>
      <point x="689" y="-263" type="line"/>
      <point x="1403" y="-270" type="line"/>
      <point x="1403" y="-479" type="line"/>
      <point x="689" y="-487" type="line"/>
    </contour>
  </outline>
</glyph>
<glyph name="grave" format="2">
  <advance width="1024"/>
  <unicode hex="0060"/>
  <outline>
    <contour>
      <point x="254" y="1474" type="qcurve" smooth="yes"/>
      <point x="255" y="1515"/>
      <point x="328" y="1580"/>
      <point x="374" y="1580" type="qcurve" smooth="yes"/>
      <point x="422" y="1580"/>
      <point x="509" y="1506"/>
      <point x="548" y="1454" type="qcurve" smooth="yes"/>
      <point x="721" y="1231" type="line"/>
      <point x="643" y="1150" type="line"/>
      <point x="350" y="1332" type="line" smooth="yes"/>
      <point x="301" y="1362"/>
      <point x="254" y="1430"/>
    </contour>
  </outline>
</glyph>
<glyph name="a" format="2">
  <advance width="1242"/>
  <unicode hex="0061"/>
  <anchor x="621" y="0" name="bottom"/>
  <anchor x="905" y="0" name="ogonek"/>
  <anchor x="613" y="1033" name="top"/>
  <outline>
    <contour>
      <point x="55" y="264" type="qcurve" smooth="yes"/>
      <point x="55" y="422"/>
      <point x="380" y="609"/>
      <point x="837" y="649" type="qcurve"/>
      <point x="845" y="547" type="line"/>
      <point x="574" y="523"/>
      <point x="413" y="403"/>
      <point x="414" y="284" type="qcurve" smooth="yes"/>
      <point x="414" y="212"/>
      <point x="479" y="146"/>
      <point x="536" y="146" type="qcurve" smooth="yes"/>
      <point x="588" y="146"/>
      <point x="682" y="210"/>
      <point x="701" y="258" type="qcurve"/>
      <point x="704" y="636" type="line" smooth="yes"/>
      <point x="705" y="788"/>
      <point x="605" y="901"/>
      <point x="504" y="901" type="qcurve" smooth="yes"/>
      <point x="443" y="901"/>
      <point x="346" y="865"/>
      <point x="329" y="844" type="qcurve"/>
      <point x="345" y="829"/>
      <point x="373" y="784"/>
      <point x="375" y="753" type="qcurve" smooth="yes"/>
      <point x="379" y="701"/>
      <point x="318" y="638"/>
      <point x="261" y="636" type="qcurve" smooth="yes"/>
      <point x="200" y="633"/>
      <point x="120" y="712"/>
      <point x="120" y="787" type="qcurve" smooth="yes"/>
      <point x="120" y="899"/>
      <point x="377" y="1058"/>
      <point x="612" y="1058" type="qcurve" smooth="yes"/>
      <point x="847" y="1058"/>
      <point x="1072" y="874"/>
      <point x="1074" y="683" type="qcurve" smooth="yes"/>
      <point x="1075" y="142" type="line"/>
      <point x="1210" y="107" type="line"/>
      <point x="1210" y="0" type="line"/>
      <point x="772" y="0" type="line"/>
      <point x="725" y="57" type="line"/>
      <point x="712" y="123" type="line"/>
      <point x="670" y="63"/>
      <point x="502" y="-16"/>
      <point x="379" y="-16" type="qcurve" smooth="yes"/>
      <point x="222" y="-16"/>
      <point x="55" y="135"/>
    </contour>
  </outline>
</glyph>
<glyph name="b" format="2">
  <advance width="1333"/>
  <unicode hex="0062"/>
  <anchor x="666" y="0" name="bottom"/>
  <anchor x="666" y="1538" name="top"/>
  <outline>
    <contour>
      <point x="136" y="0" type="line"/>
      <point x="143" y="490" type="line"/>
      <point x="139" y="1348" type="line"/>
      <point x="3" y="1379" type="line"/>
      <point x="3" y="1500" type="line"/>
      <point x="431" y="1538" type="line"/>
      <point x="467" y="1538" type="line"/>
      <point x="514" y="1496" type="line"/>
      <point x="512" y="907" type="line"/>
      <point x="556" y="971"/>
      <point x="721" y="1053"/>
      <point x="837" y="1053" type="qcurve" smooth="yes"/>
      <point x="1033" y="1053"/>
      <point x="1280" y="789"/>
      <point x="1280" y="547" type="qcurve" smooth="yes"/>
      <point x="1280" y="290"/>
      <point x="1022" y="-12"/>
      <point x="796" y="-12" type="qcurve" smooth="yes"/>
      <point x="689" y="-12"/>
      <point x="534" y="47"/>
      <point x="492" y="89" type="qcurve"/>
      <point x="417" y="0" type="line"/>
    </contour>
    <contour>
      <point x="507" y="464" type="line"/>
      <point x="512" y="250" type="line"/>
      <point x="532" y="205"/>
      <point x="628" y="139"/>
      <point x="693" y="139" type="qcurve" smooth="yes"/>
      <point x="783" y="139"/>
      <point x="881" y="315"/>
      <point x="881" y="510" type="qcurve" smooth="yes"/>
      <point x="881" y="710"/>
      <point x="787" y="863"/>
      <point x="694" y="863" type="qcurve" smooth="yes"/>
      <point x="628" y="863"/>
      <point x="538" y="798"/>
      <point x="513" y="747" type="qcurve"/>
    </contour>
  </outline>
</glyph>
<glyph name="c" format="2">
  <advance width="1090"/>
  <unicode hex="0063"/>
  <anchor x="606" y="0" name="bottom"/>
  <anchor x="596" y="1033" name="top"/>
  <outline>
    <contour>
      <point x="51" y="497" type="qcurve" smooth="yes"/>
      <point x="51" y="752"/>
      <point x="362" y="1058"/>
      <point x="597" y="1058" type="qcurve" smooth="yes"/>
      <point x="702" y="1058"/>
      <point x="825" y="1018"/>
      <point x="863" y="988" type="qcurve"/>
      <point x="887" y="1039" type="line"/>
      <point x="1008" y="1039" type="line"/>
      <point x="1010" y="660" type="line"/>
      <point x="878" y="660" type="line"/>
      <point x="862" y="745" type="line" smooth="yes"/>
      <point x="847" y="819"/>
      <point x="759" y="910"/>
      <point x="679" y="910" type="qcurve" smooth="yes"/>
      <point x="582" y="910"/>
      <point x="458" y="741"/>
      <point x="458" y="521" type="qcurve" smooth="yes"/>
      <point x="458" y="312"/>
      <point x="602" y="147"/>
      <point x="722" y="147" type="qcurve" smooth="yes"/>
      <point x="808" y="147"/>
      <point x="938" y="210"/>
      <point x="985" y="262" type="qcurve"/>
      <point x="1063" y="167" type="line"/>
      <point x="1008" y="89"/>
      <point x="777" y="-24"/>
      <point x="606" y="-24" type="qcurve" smooth="yes"/>
      <point x="374" y="-24"/>
      <point x="51" y="251"/>
    </contour>
  </outline>
</glyph>
<glyph name="d" format="2">
  <advance width="1372"/>
  <unicode hex="0064"/>
  <anchor x="686" y="0" name="bottom"/>
  <anchor x="972" y="1208" name="center"/>
  <anchor x="686" y="1536" name="top"/>
  <anchor x="1120" y="1033" name="topright"/>
  <outline>
    <contour>
      <point x="55" y="504" type="qcurve" smooth="yes"/>
      <point x="55" y="766"/>
      <point x="347" y="1052"/>
      <point x="564" y="1052" type="qcurve" smooth="yes"/>
      <point x="647" y="1052"/>
      <point x="784" y="1009"/>
      <point x="828" y="975" type="qcurve"/>
      <point x="825" y="1348" type="line"/>
      <point x="685" y="1379" type="line"/>
      <point x="685" y="1500" type="line"/>
      <point x="1114" y="1536" type="line"/>
      <point x="1154" y="1536" type="line"/>
      <point x="1202" y="1494" type="line"/>
      <point x="1199" y="517" type="line"/>
      <point x="1207" y="142" type="line"/>
      <point x="1344" y="107" type="line"/>
      <point x="1344" y="0" type="line"/>
      <point x="899" y="0" type="line"/>
      <point x="850" y="57" type="line"/>
      <point x="837" y="122" type="line"/>
      <point x="791" y="66"/>
      <point x="627" y="-9"/>
      <point x="509" y="-9" type="qcurve" smooth="yes"/>
      <point x="315" y="-9"/>
      <point x="55" y="256"/>
    </contour>
    <contour>
      <point x="456" y="524" type="qcurve" smooth="yes"/>
      <point x="456" y="301"/>
      <point x="557" y="157"/>
      <point x="649" y="157" type="qcurve" smooth="yes"/>
      <point x="715" y="157"/>
      <point x="804" y="220"/>
      <point x="829" y="267" type="qcurve"/>
      <point x="831" y="512" type="line"/>
      <point x="830" y="801" type="line"/>
      <point x="810" y="843"/>
      <point x="724" y="895"/>
      <point x="665" y="895" type="qcurve" smooth="yes"/>
      <point x="569" y="895"/>
      <point x="456" y="739"/>
    </contour>
  </outline>
</glyph>
<glyph name="e" format="2">
  <advance width="1150"/>
  <unicode hex="0065"/>
  <anchor x="626" y="0" name="bottom"/>
  <anchor x="825" y="0" name="ogonek"/>
  <anchor x="605" y="1033" name="top"/>
  <outline>
    <contour>
      <point x="51" y="511" type="qcurve" smooth="yes"/>
      <point x="51" y="759"/>
      <point x="354" y="1058"/>
      <point x="606" y="1058" type="qcurve" smooth="yes"/>
      <point x="836" y="1058"/>
      <point x="1094" y="818"/>
      <point x="1109" y="605" type="qcurve"/>
      <point x="1109" y="512" type="line"/>
      <point x="377" y="512" type="line"/>
      <point x="377" y="634" type="line"/>
      <point x="785" y="634" type="line"/>
      <point x="779" y="789"/>
      <point x="701" y="917"/>
      <point x="621" y="917" type="qcurve" smooth="yes"/>
      <point x="531" y="917"/>
      <point x="439" y="761"/>
      <point x="440" y="544" type="qcurve" smooth="yes"/>
      <point x="440" y="326"/>
      <point x="584" y="149"/>
      <point x="722" y="149" type="qcurve" smooth="yes"/>
      <point x="821" y="149"/>
      <point x="967" y="214"/>
      <point x="1010" y="257" type="qcurve"/>
      <point x="1081" y="167" type="line"/>
      <point x="1031" y="92"/>
      <point x="802" y="-24"/>
      <point x="626" y="-24" type="qcurve" smooth="yes"/>
      <point x="362" y="-24"/>
      <point x="51" y="249"/>
    </contour>
  </outline>
</glyph>
<glyph name="f" format="2">
  <advance width="760"/>
  <unicode hex="0066"/>
  <anchor x="380" y="0" name="bottom"/>
  <anchor x="380" y="1528" name="top"/>
  <outline>
    <contour>
      <point x="36" y="0" type="line"/>
      <point x="36" y="107" type="line"/>
      <point x="171" y="142" type="line"/>
      <point x="176" y="544" type="line"/>
      <point x="174" y="859" type="line"/>
      <point x="36" y="877" type="line"/>
      <point x="36" y="996" type="line"/>
      <point x="176" y="1017" type="line"/>
      <point x="176" y="1222" type="line" smooth="yes"/>
      <point x="175" y="1362"/>
      <point x="336" y="1528"/>
      <point x="496" y="1528" type="qcurve" smooth="yes"/>
      <point x="575" y="1528"/>
      <point x="697" y="1508"/>
      <point x="736" y="1492" type="qcurve" smooth="yes"/>
      <point x="758" y="1484" type="line"/>
      <point x="752" y="1346" type="line"/>
      <point x="738" y="1350" type="line" smooth="yes"/>
      <point x="724" y="1355"/>
      <point x="684" y="1363"/>
      <point x="662" y="1363" type="qcurve" smooth="yes"/>
      <point x="608" y="1363"/>
      <point x="555" y="1292"/>
      <point x="555" y="1224" type="qcurve" smooth="yes"/>
      <point x="554" y="1011" type="line"/>
      <point x="747" y="1011" type="line"/>
      <point x="747" y="873" type="line"/>
      <point x="552" y="873" type="line"/>
      <point x="552" y="544" type="line"/>
      <point x="558" y="142" type="line"/>
      <point x="714" y="107" type="line"/>
      <point x="714" y="0" type="line"/>
    </contour>
  </outline>
</glyph>
<glyph name="g" format="2">
  <advance width="1142"/>
  <unicode hex="0067"/>
  <anchor x="571" y="-416" name="bottom"/>
  <anchor x="571" y="1033" name="top"/>
  <outline>
    <contour>
      <point x="-3" y="-250" type="qcurve" smooth="yes"/>
      <point x="-3" y="-162"/>
      <point x="157" y="-37"/>
      <point x="306" y="-10" type="qcurve"/>
      <point x="366" y="-54" type="line"/>
      <point x="320" y="-82"/>
      <point x="255" y="-173"/>
      <point x="255" y="-236" type="qcurve" smooth="yes"/>
      <point x="255" y="-310"/>
      <point x="395" y="-386"/>
      <point x="546" y="-386" type="qcurve" smooth="yes"/>
      <point x="696" y="-386"/>
      <point x="838" y="-307"/>
      <point x="838" y="-236" type="qcurve" smooth="yes"/>
      <point x="838" y="-175"/>
      <point x="724" y="-135"/>
      <point x="546" y="-131" type="qcurve" smooth="yes"/>
      <point x="291" y="-124"/>
      <point x="52" y="14"/>
      <point x="52" y="132" type="qcurve" smooth="yes"/>
      <point x="52" y="225"/>
      <point x="177" y="342"/>
      <point x="250" y="374" type="qcurve"/>
      <point x="329" y="316" type="line"/>
      <point x="284" y="290"/>
      <point x="234" y="239"/>
      <point x="234" y="198" type="qcurve" smooth="yes"/>
      <point x="234" y="155"/>
      <point x="333" y="115"/>
      <point x="571" y="112" type="qcurve" smooth="yes"/>
      <point x="912" y="107"/>
      <point x="1150" y="-21"/>
      <point x="1150" y="-159" type="qcurve" smooth="yes"/>
      <point x="1150" y="-314"/>
      <point x="862" y="-503"/>
      <point x="532" y="-503" type="qcurve" smooth="yes"/>
      <point x="242" y="-503"/>
      <point x="-3" y="-358"/>
    </contour>
    <contour>
      <point x="66" y="649" type="qcurve" smooth="yes"/>
      <point x="66" y="836"/>
      <point x="317" y="1054"/>
      <point x="545" y="1054" type="qcurve" smooth="yes"/>
      <point x="772" y="1054"/>
      <point x="1028" y="848"/>
      <point x="1028" y="654" type="qcurve" smooth="yes"/>
      <point x="1029" y="472"/>
      <point x="777" y="232"/>
      <point x="551" y="232" type="qcurve" smooth="yes"/>
      <point x="323" y="232"/>
      <point x="66" y="459"/>
    </contour>
    <contour>
      <point x="396" y="656" type="qcurve" smooth="yes"/>
      <point x="396" y="491"/>
      <point x="476" y="353"/>
      <point x="554" y="353" type="qcurve" smooth="yes"/>
      <point x="631" y="353"/>
      <point x="707" y="483"/>
      <point x="707" y="648" type="qcurve" smooth="yes"/>
      <point x="707" y="798"/>
      <point x="627" y="921"/>
      <point x="550" y="921" type="qcurve" smooth="yes"/>
      <point x="473" y="921"/>
      <point x="396" y="809"/>
    </contour>
    <contour>
      <point x="637" y="926" type="line"/>
      <point x="624" y="1029" type="line"/>
      <point x="1140" y="1030" type="line"/>
      <point x="1140" y="870" type="line"/>
    </contour>
  </outline>
</glyph>
<glyph name="h" format="2">
  <advance width="1405"/>
  <unicode hex="0068"/>
  <anchor x="702" y="0" name="bottom"/>
  <anchor x="391" y="1206" name="center"/>
  <anchor x="412" y="1538" name="top"/>
  <outline>
    <contour>
      <point x="42" y="0" type="line"/>
      <point x="42" y="107" type="line"/>
      <point x="164" y="142" type="line"/>
      <point x="166" y="550" type="line"/>
      <point x="164" y="1348" type="line"/>
      <point x="25" y="1379" type="line"/>
      <point x="25" y="1500" type="line"/>
      <point x="456" y="1538" type="line"/>
      <point x="490" y="1538" type="line"/>
      <point x="538" y="1496" type="line"/>
      <point x="537" y="892" type="line"/>
      <point x="595" y="957"/>
      <point x="797" y="1054"/>
      <point x="927" y="1054" type="qcurve" smooth="yes"/>
      <point x="1086" y="1054"/>
      <point x="1244" y="898"/>
      <point x="1244" y="770" type="qcurve" smooth="yes"/>
      <point x="1244" y="710"/>
      <point x="1243" y="568"/>
      <point x="1243" y="560" type="qcurve"/>
      <point x="1248" y="142" type="line"/>
      <point x="1375" y="107" type="line"/>
      <point x="1375" y="0" type="line"/>
      <point x="764" y="0" type="line"/>
      <point x="764" y="107" type="line"/>
      <point x="868" y="142" type="line"/>
      <point x="871" y="526" type="line"/>
      <point x="871" y="683" type="line" smooth="yes"/>
      <point x="871" y="757"/>
      <point x="795" y="834"/>
      <point x="732" y="834" type="qcurve" smooth="yes"/>
      <point x="677" y="834"/>
      <point x="571" y="773"/>
      <point x="540" y="725" type="qcurve"/>
      <point x="537" y="526" type="line"/>
      <point x="539" y="142" type="line"/>
      <point x="649" y="107" type="line"/>
      <point x="649" y="0" type="line"/>
    </contour>
  </outline>
</glyph>
<glyph name="i" format="2">
  <advance width="724"/>
  <unicode hex="0069"/>
  <anchor x="362" y="0" name="bottom"/>
  <anchor x="362" y="1033" name="top"/>
  <anchor x="195" y="0" name="ogonek"/>
  <outline>
    <contour>
      <point x="47" y="0" type="line"/>
      <point x="47" y="107" type="line"/>
      <point x="182" y="142" type="line"/>
      <point x="184" y="544" type="line"/>
      <point x="181" y="852" type="line"/>
      <point x="44" y="882" type="line"/>
      <point x="44" y="1002" type="line"/>
      <point x="462" y="1037" type="line"/>
      <point x="529" y="1037" type="line"/>
      <point x="566" y="992" type="line"/>
      <point x="559" y="544" type="line"/>
      <point x="561" y="142" type="line"/>
      <point x="695" y="107" type="line"/>
      <point x="695" y="0" type="line"/>
    </contour>
    <contour>
      <point x="131" y="1326" type="qcurve" smooth="yes"/>
      <point x="131" y="1404"/>
      <point x="247" y="1496"/>
      <point x="354" y="1496" type="qcurve" smooth="yes"/>
      <point x="456" y="1496"/>
      <point x="580" y="1404"/>
      <point x="579" y="1326" type="qcurve" smooth="yes"/>
      <point x="579" y="1253"/>
      <point x="464" y="1164"/>
      <point x="355" y="1164" type="qcurve" smooth="yes"/>
      <point x="254" y="1164"/>
      <point x="131" y="1257"/>
    </contour>
  </outline>
</glyph>
<glyph name="j" format="2">
  <advance width="680"/>
  <unicode hex="006A"/>
  <anchor x="340" y="-442" name="bottom"/>
  <anchor x="340" y="1033" name="top"/>
  <outline>
    <contour>
      <point x="-26" y="-484" type="qcurve"/>
      <point x="-26" y="-323" type="line"/>
      <point x="80" y="-320"/>
      <point x="167" y="-220"/>
      <point x="167" y="-112" type="qcurve" smooth="yes"/>
      <point x="166" y="544" type="line"/>
      <point x="163" y="852" type="line"/>
      <point x="30" y="882" type="line"/>
      <point x="30" y="1002" type="line"/>
      <point x="444" y="1037" type="line"/>
      <point x="511" y="1037" type="line"/>
      <point x="547" y="992" type="line"/>
      <point x="541" y="544" type="line"/>
      <point x="544" y="-114" type="line" smooth="yes"/>
      <point x="545" y="-293"/>
      <point x="303" y="-498"/>
    </contour>
    <contour>
      <point x="114" y="1326" type="qcurve" smooth="yes"/>
      <point x="114" y="1403"/>
      <point x="229" y="1496"/>
      <point x="336" y="1496" type="qcurve" smooth="yes"/>
      <point x="438" y="1496"/>
      <point x="562" y="1403"/>
      <point x="561" y="1326" type="qcurve" smooth="yes"/>
      <point x="561" y="1253"/>
      <point x="446" y="1164"/>
      <point x="337" y="1164" type="qcurve" smooth="yes"/>
      <point x="236" y="1164"/>
      <point x="114" y="1256"/>
    </contour>
  </outline>
</glyph>
<glyph name="k" format="2">
  <advance width="1329"/>
  <unicode hex="006B"/>
  <anchor x="710" y="0" name="bottom"/>
  <anchor x="665" y="1538" name="top"/>
  <outline>
    <contour>
      <point x="42" y="0" type="line"/>
      <point x="42" y="107" type="line"/>
      <point x="164" y="142" type="line"/>
      <point x="166" y="530" type="line"/>
      <point x="164" y="1348" type="line"/>
      <point x="25" y="1379" type="line"/>
      <point x="25" y="1500" type="line"/>
      <point x="457" y="1538" type="line"/>
      <point x="491" y="1538" type="line"/>
      <point x="538" y="1496" type="line"/>
      <point x="540" y="548" type="line"/>
      <point x="539" y="142" type="line"/>
      <point x="648" y="107" type="line"/>
      <point x="648" y="0" type="line"/>
    </contour>
    <contour>
      <point x="506" y="383" type="line"/>
      <point x="478" y="518" type="line"/>
      <point x="872" y="880" type="line"/>
      <point x="741" y="910" type="line"/>
      <point x="741" y="1033" type="line"/>
      <point x="1232" y="1033" type="line"/>
      <point x="1232" y="910" type="line"/>
      <point x="1070" y="875" type="line"/>
    </contour>
    <contour>
      <point x="610" y="541" type="line"/>
      <point x="875" y="789" type="line"/>
      <point x="1219" y="142" type="line"/>
      <point x="1324" y="107" type="line"/>
      <point x="1324" y="0" type="line"/>
      <point x="831" y="0" type="line"/>
      <point x="813" y="102" type="line"/>
      <point x="823" y="135" type="line"/>
    </contour>
  </outline>
</glyph>
<glyph name="l" format="2">
  <advance width="712"/>
  <unicode hex="006C"/>
  <anchor x="372" y="0" name="bottom"/>
  <anchor x="372" y="750" name="center"/>
  <anchor x="372" y="1538" name="top"/>
  <anchor x="464" y="1033" name="topright"/>
  <outline>
    <contour>
      <point x="50" y="0" type="line"/>
      <point x="50" y="107" type="line"/>
      <point x="178" y="142" type="line"/>
      <point x="180" y="527" type="line"/>
      <point x="178" y="1347" type="line"/>
      <point x="31" y="1378" type="line"/>
      <point x="31" y="1500" type="line"/>
      <point x="478" y="1538" type="line"/>
      <point x="510" y="1538" type="line"/>
      <point x="557" y="1496" type="line"/>
      <point x="555" y="527" type="line"/>
      <point x="557" y="142" type="line"/>
      <point x="682" y="107" type="line"/>
      <point x="682" y="0" type="line"/>
    </contour>
  </outline>
</glyph>
<glyph name="m" format="2">
  <advance width="2068"/>
  <unicode hex="006D"/>
  <anchor x="1034" y="0" name="bottom"/>
  <anchor x="1034" y="1033" name="top"/>
  <outline>
    <contour>
      <point x="42" y="0" type="line"/>
      <point x="42" y="107" type="line"/>
      <point x="167" y="142" type="line"/>
      <point x="169" y="544" type="line"/>
      <point x="167" y="852" type="line"/>
      <point x="38" y="882" type="line"/>
      <point x="38" y="1002" type="line"/>
      <point x="474" y="1041" type="line"/>
      <point x="509" y="1014" type="line"/>
      <point x="530" y="889" type="line"/>
      <point x="585" y="965"/>
      <point x="779" y="1054"/>
      <point x="908" y="1054" type="qcurve" smooth="yes"/>
      <point x="1027" y="1054"/>
      <point x="1181" y="963"/>
      <point x="1208" y="883" type="qcurve"/>
      <point x="1263" y="962"/>
      <point x="1459" y="1054"/>
      <point x="1590" y="1054" type="qcurve" smooth="yes"/>
      <point x="1750" y="1054"/>
      <point x="1908" y="898"/>
      <point x="1908" y="770" type="qcurve" smooth="yes"/>
      <point x="1907" y="710"/>
      <point x="1907" y="572"/>
      <point x="1907" y="560" type="qcurve" smooth="yes"/>
      <point x="1912" y="141" type="line"/>
      <point x="2038" y="107" type="line"/>
      <point x="2038" y="0" type="line"/>
      <point x="1436" y="0" type="line"/>
      <point x="1436" y="107" type="line"/>
      <point x="1532" y="142" type="line"/>
      <point x="1534" y="527" type="line"/>
      <point x="1534" y="683" type="line" smooth="yes"/>
      <point x="1534" y="760"/>
      <point x="1460" y="834"/>
      <point x="1399" y="834" type="qcurve" smooth="yes"/>
      <point x="1345" y="834"/>
      <point x="1252" y="779"/>
      <point x="1224" y="728" type="qcurve"/>
      <point x="1223" y="670"/>
      <point x="1222" y="556"/>
      <point x="1222" y="536" type="qcurve" smooth="yes"/>
      <point x="1225" y="142" type="line"/>
      <point x="1323" y="107" type="line"/>
      <point x="1323" y="0" type="line"/>
      <point x="754" y="0" type="line"/>
      <point x="754" y="107" type="line"/>
      <point x="851" y="142" type="line"/>
      <point x="853" y="554" type="line"/>
      <point x="853" y="698" type="line" smooth="yes"/>
      <point x="853" y="767"/>
      <point x="781" y="833"/>
      <point x="724" y="834" type="qcurve" smooth="yes"/>
      <point x="668" y="834"/>
      <point x="570" y="779"/>
      <point x="541" y="729" type="qcurve"/>
      <point x="541" y="542" type="line"/>
      <point x="542" y="142" type="line"/>
      <point x="637" y="107" type="line"/>
      <point x="637" y="0" type="line"/>
    </contour>
  </outline>
</glyph>
<glyph name="n" format="2">
  <advance width="1407"/>
  <unicode hex="006E"/>
  <anchor x="703" y="0" name="bottom"/>
  <anchor x="703" y="1033" name="top"/>
  <outline>
    <contour>
      <point x="42" y="0" type="line"/>
      <point x="42" y="107" type="line"/>
      <point x="166" y="142" type="line"/>
      <point x="168" y="550" type="line"/>
      <point x="166" y="852" type="line"/>
      <point x="38" y="882" type="line"/>
      <point x="38" y="1002" type="line"/>
      <point x="474" y="1041" type="line"/>
      <point x="509" y="1014" type="line"/>
      <point x="531" y="881" type="line"/>
      <point x="588" y="951"/>
      <point x="794" y="1054"/>
      <point x="929" y="1054" type="qcurve" smooth="yes"/>
      <point x="1088" y="1054"/>
      <point x="1246" y="898"/>
      <point x="1246" y="770" type="qcurve" smooth="yes"/>
      <point x="1246" y="707"/>
      <point x="1245" y="571"/>
      <point x="1245" y="560" type="qcurve" smooth="yes"/>
      <point x="1250" y="141" type="line"/>
      <point x="1376" y="107" type="line"/>
      <point x="1376" y="0" type="line"/>
      <point x="766" y="0" type="line"/>
      <point x="766" y="107" type="line"/>
      <point x="870" y="142" type="line"/>
      <point x="872" y="526" type="line"/>
      <point x="872" y="683" type="line" smooth="yes"/>
      <point x="872" y="760"/>
      <point x="796" y="834"/>
      <point x="734" y="834" type="qcurve" smooth="yes"/>
      <point x="676" y="834"/>
      <point x="571" y="770"/>
      <point x="541" y="725" type="qcurve"/>
      <point x="539" y="526" type="line"/>
      <point x="541" y="142" type="line"/>
      <point x="651" y="107" type="line"/>
      <point x="651" y="0" type="line"/>
    </contour>
  </outline>
</glyph>
<glyph name="o" format="2">
  <advance width="1313"/>
  <unicode hex="006F"/>
  <anchor x="656" y="0" name="bottom"/>
  <anchor x="656" y="517" name="center"/>
  <anchor x="854" y="0" name="ogonek"/>
  <anchor x="656" y="1033" name="top"/>
  <anchor x="858" y="1033" name="topright"/>
  <outline>
    <contour>
      <point x="52" y="517" type="qcurve" smooth="yes"/>
      <point x="52" y="757"/>
      <point x="384" y="1057"/>
      <point x="654" y="1057" type="qcurve" smooth="yes"/>
      <point x="922" y="1057"/>
      <point x="1260" y="778"/>
      <point x="1260" y="523" type="qcurve" smooth="yes"/>
      <point x="1260" y="283"/>
      <point x="927" y="-24"/>
      <point x="660" y="-24" type="qcurve" smooth="yes"/>
      <point x="392" y="-24"/>
      <point x="52" y="259"/>
    </contour>
    <contour>
      <point x="452" y="530" type="qcurve" smooth="yes"/>
      <point x="453" y="306"/>
      <point x="556" y="107"/>
      <point x="655" y="107" type="qcurve" smooth="yes"/>
      <point x="761" y="107"/>
      <point x="860" y="290"/>
      <point x="860" y="519" type="qcurve" smooth="yes"/>
      <point x="860" y="740"/>
      <point x="756" y="914"/>
      <point x="656" y="914" type="qcurve" smooth="yes"/>
      <point x="549" y="914"/>
      <point x="451" y="755"/>
    </contour>
  </outline>
</glyph>
<glyph name="p" format="2">
  <advance width="1347"/>
  <unicode hex="0070"/>
  <anchor x="673" y="0" name="bottom"/>
  <anchor x="673" y="1033" name="top"/>
  <outline>
    <contour>
      <point x="24" y="-480" type="line"/>
      <point x="24" y="-374" type="line"/>
      <point x="153" y="-339" type="line"/>
      <point x="155" y="427" type="line"/>
      <point x="153" y="852" type="line"/>
      <point x="21" y="882" type="line"/>
      <point x="21" y="1002" type="line"/>
      <point x="469" y="1036" type="line"/>
      <point x="504" y="1009" type="line"/>
      <point x="527" y="903" type="line"/>
      <point x="570" y="971"/>
      <point x="733" y="1053"/>
      <point x="850" y="1053" type="qcurve" smooth="yes"/>
      <point x="1045" y="1053"/>
      <point x="1292" y="789"/>
      <point x="1292" y="549" type="qcurve" smooth="yes"/>
      <point x="1292" y="293"/>
      <point x="1034" y="-12"/>
      <point x="817" y="-12" type="qcurve" smooth="yes"/>
      <point x="706" y="-12"/>
      <point x="567" y="42"/>
      <point x="527" y="80" type="qcurve"/>
      <point x="529" y="-339" type="line"/>
      <point x="684" y="-374" type="line"/>
      <point x="684" y="-480" type="line"/>
    </contour>
    <contour>
      <point x="526" y="254" type="line"/>
      <point x="547" y="203"/>
      <point x="640" y="135"/>
      <point x="705" y="135" type="qcurve" smooth="yes"/>
      <point x="795" y="135"/>
      <point x="891" y="310"/>
      <point x="891" y="510" type="qcurve" smooth="yes"/>
      <point x="891" y="710"/>
      <point x="800" y="863"/>
      <point x="706" y="863" type="qcurve" smooth="yes"/>
      <point x="642" y="863"/>
      <point x="552" y="794"/>
      <point x="527" y="741" type="qcurve"/>
      <point x="523" y="441" type="line"/>
    </contour>
  </outline>
</glyph>
<glyph name="q" format="2">
  <advance width="1351"/>
  <unicode hex="0071"/>
  <anchor x="676" y="0" name="bottom"/>
  <anchor x="676" y="1033" name="top"/>
  <outline>
    <contour>
      <point x="55" y="501" type="qcurve" smooth="yes"/>
      <point x="55" y="767"/>
      <point x="347" y="1052"/>
      <point x="566" y="1052" type="qcurve" smooth="yes"/>
      <point x="650" y="1052"/>
      <point x="787" y="1007"/>
      <point x="836" y="960" type="qcurve"/>
      <point x="898" y="1039" type="line"/>
      <point x="1320" y="1006" type="line"/>
      <point x="1320" y="888" type="line"/>
      <point x="1202" y="859" type="line"/>
      <point x="1196" y="445" type="line"/>
      <point x="1199" y="-339" type="line"/>
      <point x="1327" y="-374" type="line"/>
      <point x="1327" y="-480" type="line"/>
      <point x="674" y="-480" type="line"/>
      <point x="674" y="-374" type="line"/>
      <point x="820" y="-340" type="line"/>
      <point x="826" y="104" type="line"/>
      <point x="779" y="53"/>
      <point x="616" y="-9"/>
      <point x="508" y="-9" type="qcurve" smooth="yes"/>
      <point x="315" y="-9"/>
      <point x="55" y="253"/>
    </contour>
    <contour>
      <point x="456" y="524" type="qcurve" smooth="yes"/>
      <point x="456" y="300"/>
      <point x="557" y="157"/>
      <point x="646" y="157" type="qcurve" smooth="yes"/>
      <point x="710" y="157"/>
      <point x="801" y="214"/>
      <point x="826" y="265" type="qcurve"/>
      <point x="827" y="805" type="line"/>
      <point x="805" y="851"/>
      <point x="722" y="895"/>
      <point x="665" y="895" type="qcurve" smooth="yes"/>
      <point x="570" y="895"/>
      <point x="456" y="739"/>
    </contour>
  </outline>
</glyph>
<glyph name="r" format="2">
  <advance width="970"/>
  <unicode hex="0072"/>
  <anchor x="485" y="0" name="bottom"/>
  <anchor x="514" y="1033" name="top"/>
  <outline>
    <contour>
      <point x="44" y="0" type="line"/>
      <point x="44" y="107" type="line"/>
      <point x="166" y="142" type="line"/>
      <point x="168" y="537" type="line"/>
      <point x="166" y="852" type="line"/>
      <point x="38" y="882" type="line"/>
      <point x="38" y="1002" type="line"/>
      <point x="467" y="1041" type="line"/>
      <point x="506" y="1014" type="line"/>
      <point x="527" y="882" type="line"/>
      <point x="576" y="946"/>
      <point x="746" y="1037"/>
      <point x="858" y="1037" type="qcurve" smooth="yes"/>
      <point x="938" y="1037" type="line"/>
      <point x="938" y="700" type="line"/>
      <point x="789" y="700" type="line"/>
      <point x="762" y="830" type="line"/>
      <point x="701" y="834"/>
      <point x="586" y="789"/>
      <point x="543" y="733" type="qcurve"/>
      <point x="542" y="548" type="line"/>
      <point x="544" y="142" type="line"/>
      <point x="687" y="107" type="line"/>
      <point x="687" y="0" type="line"/>
    </contour>
  </outline>
</glyph>
<glyph name="s" format="2">
  <advance width="1015"/>
  <unicode hex="0073"/>
  <anchor x="532" y="0" name="bottom"/>
  <anchor x="491" y="1033" name="top"/>
  <outline>
    <contour>
      <point x="55" y="0" type="line"/>
      <point x="55" y="336" type="line"/>
      <point x="194" y="336" type="line"/>
      <point x="205" y="284" type="line" smooth="yes"/>
      <point x="222" y="200"/>
      <point x="360" y="106"/>
      <point x="462" y="106" type="qcurve" smooth="yes"/>
      <point x="539" y="106"/>
      <point x="626" y="166"/>
      <point x="626" y="223" type="qcurve" smooth="yes"/>
      <point x="626" y="285"/>
      <point x="527" y="350"/>
      <point x="395" y="396" type="qcurve" smooth="yes"/>
      <point x="210" y="457"/>
      <point x="74" y="616"/>
      <point x="74" y="754" type="qcurve" smooth="yes"/>
      <point x="74" y="885"/>
      <point x="289" y="1058"/>
      <point x="490" y="1058" type="qcurve" smooth="yes"/>
      <point x="587" y="1058"/>
      <point x="722" y="1021"/>
      <point x="766" y="993" type="qcurve"/>
      <point x="785" y="1033" type="line"/>
      <point x="899" y="1033" type="line"/>
      <point x="899" y="738" type="line"/>
      <point x="758" y="738" type="line"/>
      <point x="747" y="795" type="line" smooth="yes"/>
      <point x="734" y="853"/>
      <point x="618" y="927"/>
      <point x="534" y="927" type="qcurve" smooth="yes"/>
      <point x="459" y="927"/>
      <point x="394" y="880"/>
      <point x="394" y="836" type="qcurve" smooth="yes"/>
      <point x="394" y="791"/>
      <point x="465" y="731"/>
      <point x="602" y="686" type="qcurve" smooth="yes"/>
      <point x="779" y="626"/>
      <point x="967" y="464"/>
      <point x="967" y="319" type="qcurve" smooth="yes"/>
      <point x="967" y="161"/>
      <point x="735" y="-24"/>
      <point x="541" y="-24" type="qcurve" smooth="yes"/>
      <point x="418" y="-24"/>
      <point x="250" y="19"/>
      <point x="196" y="55" type="qcurve"/>
      <point x="167" y="0" type="line"/>
    </contour>
  </outline>
</glyph>
<glyph name="t" format="2">
  <advance width="801"/>
  <unicode hex="0074"/>
  <anchor x="367" y="0" name="bottom"/>
  <anchor x="398" y="609" name="center"/>
  <anchor x="401" y="1254" name="top"/>
  <anchor x="661" y="1033" name="topright"/>
  <outline>
    <contour>
      <point x="19" y="875" type="line"/>
      <point x="19" y="988" type="line"/>
      <point x="161" y="1017"/>
      <point x="302" y="1141"/>
      <point x="344" y="1254" type="qcurve"/>
      <point x="501" y="1254" type="line"/>
      <point x="552" y="1199" type="line"/>
      <point x="547" y="1007" type="line"/>
      <point x="750" y="1007" type="line"/>
      <point x="750" y="872" type="line"/>
      <point x="543" y="872" type="line"/>
      <point x="536" y="544" type="line"/>
      <point x="540" y="245" type="line" smooth="yes"/>
      <point x="541" y="191"/>
      <point x="594" y="146"/>
      <point x="651" y="146" type="qcurve" smooth="yes"/>
      <point x="755" y="146" type="line"/>
      <point x="755" y="30" type="line"/>
      <point x="359" y="-13" type="line"/>
      <point x="246" y="-13"/>
      <point x="154" y="85"/>
      <point x="155" y="179" type="qcurve" smooth="yes"/>
      <point x="160" y="544" type="line"/>
      <point x="160" y="857" type="line"/>
    </contour>
  </outline>
</glyph>
<glyph name="u" format="2">
  <advance width="1402"/>
  <unicode hex="0075"/>
  <anchor x="701" y="0" name="bottom"/>
  <anchor x="1050" y="20" name="ogonek"/>
  <anchor x="701" y="1033" name="top"/>
  <anchor x="1243" y="1034" name="topright"/>
  <outline>
    <contour>
      <point x="27" y="882" type="line"/>
      <point x="27" y="1002" type="line"/>
      <point x="436" y="1035" type="line"/>
      <point x="497" y="1035" type="line"/>
      <point x="532" y="990" type="line"/>
      <point x="530" y="490" type="line"/>
      <point x="531" y="324" type="line" smooth="yes"/>
      <point x="531" y="260"/>
      <point x="598" y="188"/>
      <point x="662" y="188" type="qcurve" smooth="yes"/>
      <point x="720" y="188"/>
      <point x="831" y="248"/>
      <point x="859" y="299" type="qcurve"/>
      <point x="860" y="490" type="line"/>
      <point x="858" y="852" type="line"/>
      <point x="735" y="882" type="line"/>
      <point x="735" y="1002" type="line"/>
      <point x="1142" y="1035" type="line"/>
      <point x="1203" y="1035" type="line"/>
      <point x="1238" y="990" type="line"/>
      <point x="1235" y="490" type="line"/>
      <point x="1237" y="173" type="line"/>
      <point x="1366" y="143" type="line"/>
      <point x="1366" y="28" type="line"/>
      <point x="931" y="-6" type="line"/>
      <point x="881" y="34" type="line"/>
      <point x="860" y="134" type="line"/>
      <point x="798" y="63"/>
      <point x="592" y="-19"/>
      <point x="472" y="-19" type="qcurve" smooth="yes"/>
      <point x="314" y="-19"/>
      <point x="153" y="134"/>
      <point x="153" y="262" type="qcurve" smooth="yes"/>
      <point x="153" y="329"/>
      <point x="156" y="498"/>
      <point x="156" y="508" type="qcurve" smooth="yes"/>
      <point x="153" y="852" type="line"/>
    </contour>
  </outline>
</glyph>
<glyph name="v" format="2">
  <advance width="1188"/>
  <unicode hex="0076"/>
  <anchor x="594" y="0" name="bottom"/>
  <anchor x="594" y="1033" name="top"/>
  <outline>
    <contour>
      <point x="0" y="910" type="line"/>
      <point x="0" y="1033" type="line"/>
      <point x="629" y="1033" type="line"/>
      <point x="629" y="910" type="line"/>
      <point x="515" y="874" type="line"/>
      <point x="614" y="579" type="line"/>
      <point x="710" y="302" type="line"/>
      <point x="807" y="586" type="line"/>
      <point x="900" y="877" type="line"/>
      <point x="786" y="910" type="line"/>
      <point x="786" y="1033" type="line"/>
      <point x="1190" y="1033" type="line"/>
      <point x="1190" y="910" type="line"/>
      <point x="1065" y="875" type="line"/>
      <point x="941" y="534" type="line"/>
      <point x="761" y="-3" type="line"/>
      <point x="434" y="-3" type="line"/>
      <point x="259" y="487" type="line"/>
      <point x="111" y="875" type="line"/>
    </contour>
  </outline>
</glyph>
<glyph name="w" format="2">
  <advance width="1754"/>
  <unicode hex="0077"/>
  <anchor x="877" y="0" name="bottom"/>
  <anchor x="877" y="1033" name="top"/>
  <outline>
    <contour>
      <point x="0" y="910" type="line"/>
      <point x="0" y="1033" type="line"/>
      <point x="575" y="1033" type="line"/>
      <point x="575" y="910" type="line"/>
      <point x="483" y="874" type="line"/>
      <point x="567" y="577" type="line"/>
      <point x="654" y="294" type="line"/>
      <point x="730" y="531" type="line"/>
      <point x="826" y="863" type="line"/>
      <point x="942" y="765" type="line"/>
      <point x="846" y="471" type="line"/>
      <point x="698" y="-3" type="line"/>
      <point x="378" y="-3" type="line"/>
      <point x="223" y="503" type="line"/>
      <point x="102" y="875" type="line"/>
    </contour>
    <contour>
      <point x="686" y="910" type="line"/>
      <point x="686" y="1033" type="line"/>
      <point x="1246" y="1033" type="line"/>
      <point x="1246" y="910" type="line"/>
      <point x="1149" y="874" type="line"/>
      <point x="1239" y="553" type="line"/>
      <point x="1316" y="302" type="line"/>
      <point x="1402" y="579" type="line"/>
      <point x="1486" y="877" type="line"/>
      <point x="1384" y="910" type="line"/>
      <point x="1384" y="1033" type="line"/>
      <point x="1756" y="1033" type="line"/>
      <point x="1756" y="910" type="line"/>
      <point x="1640" y="875" type="line"/>
      <point x="1529" y="538" type="line"/>
      <point x="1369" y="-3" type="line"/>
      <point x="1048" y="-3" type="line"/>
      <point x="899" y="502" type="line"/>
      <point x="781" y="875" type="line"/>
    </contour>
  </outline>
</glyph>
<glyph name="y" format="2">
  <advance width="1188"/>
  <unicode hex="0079"/>
  <anchor x="956" y="0" name="bottom"/>
  <anchor x="598" y="1033" name="top"/>
  <outline>
    <contour>
      <point x="0" y="910" type="line"/>
      <point x="0" y="1033" type="line"/>
      <point x="629" y="1033" type="line"/>
      <point x="629" y="910" type="line"/>
      <point x="516" y="874" type="line"/>
      <point x="615" y="581" type="line"/>
      <point x="711" y="310" type="line"/>
      <point x="808" y="587" type="line"/>
      <point x="901" y="877" type="line"/>
      <point x="787" y="910" type="line"/>
      <point x="787" y="1033" type="line"/>
      <point x="1190" y="1033" type="line"/>
      <point x="1190" y="910" type="line"/>
      <point x="1065" y="875" type="line"/>
      <point x="942" y="541" type="line"/>
      <point x="706" y="-130" type="line" smooth="yes"/>
      <point x="633" y="-344"/>
      <point x="377" y="-497"/>
      <point x="222" y="-497" type="qcurve"/>
      <point x="55" y="-447" type="line"/>
      <point x="55" y="-322" type="line"/>
      <point x="213" y="-325" type="line" smooth="yes"/>
      <point x="306" y="-327"/>
      <point x="480" y="-257"/>
      <point x="528" y="-145" type="qcurve" smooth="yes"/>
      <point x="590" y="0" type="line"/>
      <point x="435" y="0" type="line"/>
      <point x="259" y="486" type="line"/>
      <point x="111" y="875" type="line"/>
    </contour>
  </outline>
</glyph>
<glyph name="z" format="2">
  <advance width="1003"/>
  <unicode hex="007A"/>
  <anchor x="502" y="0" name="bottom"/>
  <anchor x="502" y="1033" name="top"/>
  <outline>
    <contour>
      <point x="34" y="0" type="line"/>
      <point x="34" y="123" type="line"/>
      <point x="543" y="888" type="line"/>
      <point x="224" y="888" type="line"/>
      <point x="196" y="723" type="line"/>
      <point x="57" y="723" type="line"/>
      <point x="57" y="1033" type="line"/>
      <point x="958" y="1033" type="line"/>
      <point x="958" y="905" type="line"/>
      <point x="454" y="145" type="line"/>
      <point x="808" y="145" type="line"/>
      <point x="836" y="308" type="line"/>
      <point x="974" y="308" type="line"/>
      <point x="974" y="0" type="line"/>
    </contour>
  </outline>
</glyph>
<glyph name="braceleft" format="2">
  <advance width="751"/>
  <unicode hex="007B"/>
  <outline>
    <contour>
      <point x="55" y="478" type="line"/>
      <point x="55" y="596" type="line"/>
      <point x="149" y="604" type="line" smooth="yes"/>
      <point x="203" y="609"/>
      <point x="274" y="667"/>
      <point x="274" y="733" type="qcurve" smooth="yes"/>
      <point x="274" y="837"/>
      <point x="136" y="1072"/>
      <point x="136" y="1187" type="qcurve" smooth="yes"/>
      <point x="136" y="1346"/>
      <point x="319" y="1510"/>
      <point x="459" y="1510" type="qcurve" smooth="yes"/>
      <point x="511" y="1510"/>
      <point x="699" y="1503"/>
      <point x="729" y="1500" type="qcurve"/>
      <point x="729" y="1386" type="line"/>
      <point x="684" y="1388"/>
      <point x="650" y="1388"/>
      <point x="607" y="1388" type="qcurve" smooth="yes"/>
      <point x="535" y="1388"/>
      <point x="462" y="1304"/>
      <point x="462" y="1210" type="qcurve" smooth="yes"/>
      <point x="462" y="1103"/>
      <point x="588" y="883"/>
      <point x="588" y="792" type="qcurve" smooth="yes"/>
      <point x="588" y="697"/>
      <point x="492" y="574"/>
      <point x="396" y="553" type="qcurve"/>
      <point x="500" y="526"/>
      <point x="588" y="400"/>
      <point x="588" y="325" type="qcurve" smooth="yes"/>
      <point x="588" y="228"/>
      <point x="445" y="-82"/>
      <point x="445" y="-189" type="qcurve" smooth="yes"/>
      <point x="445" y="-285"/>
      <point x="519" y="-373"/>
      <point x="593" y="-373" type="qcurve" smooth="yes"/>
      <point x="636" y="-373"/>
      <point x="680" y="-373"/>
      <point x="725" y="-371" type="qcurve"/>
      <point x="725" y="-483" type="line"/>
      <point x="693" y="-487"/>
      <point x="515" y="-495"/>
      <point x="460" y="-495" type="qcurve" smooth="yes"/>
      <point x="298" y="-495"/>
      <point x="119" y="-330"/>
      <point x="119" y="-171" type="qcurve" smooth="yes"/>
      <point x="119" y="-53"/>
      <point x="273" y="246"/>
      <point x="273" y="364" type="qcurve"/>
      <point x="273" y="478" type="line"/>
    </contour>
  </outline>
</glyph>
<glyph name="bar" format="2">
  <advance width="665"/>
  <unicode hex="007C"/>
  <outline>
    <contour>
      <point x="170" y="-522" type="line"/>
      <point x="179" y="-43" type="line"/>
      <point x="191" y="265" type="line"/>
      <point x="189" y="845" type="line"/>
      <point x="178" y="1153" type="line"/>
      <point x="169" y="1498" type="line"/>
      <point x="498" y="1562" type="line"/>
      <point x="488" y="1153" type="line"/>
      <point x="474" y="845" type="line"/>
      <point x="476" y="265" type="line"/>
      <point x="488" y="-43" type="line"/>
      <point x="497" y="-458" type="line"/>
    </contour>
  </outline>
</glyph>
<glyph name="braceright" format="2">
  <advance width="751"/>
  <unicode hex="007D"/>
  <outline>
    <contour>
      <point x="25" y="-483" type="qcurve"/>
      <point x="25" y="-371" type="line"/>
      <point x="71" y="-373"/>
      <point x="114" y="-373"/>
      <point x="157" y="-373" type="qcurve" smooth="yes"/>
      <point x="231" y="-373"/>
      <point x="304" y="-285"/>
      <point x="304" y="-189" type="qcurve" smooth="yes"/>
      <point x="304" y="-82"/>
      <point x="162" y="228"/>
      <point x="162" y="325" type="qcurve" smooth="yes"/>
      <point x="162" y="400"/>
      <point x="249" y="526"/>
      <point x="353" y="553" type="qcurve"/>
      <point x="257" y="574"/>
      <point x="162" y="697"/>
      <point x="162" y="792" type="qcurve" smooth="yes"/>
      <point x="162" y="883"/>
      <point x="288" y="1103"/>
      <point x="288" y="1210" type="qcurve" smooth="yes"/>
      <point x="288" y="1304"/>
      <point x="218" y="1388"/>
      <point x="146" y="1388" type="qcurve" smooth="yes"/>
      <point x="102" y="1388"/>
      <point x="67" y="1388"/>
      <point x="22" y="1386" type="qcurve"/>
      <point x="22" y="1500" type="line"/>
      <point x="53" y="1503"/>
      <point x="240" y="1510"/>
      <point x="293" y="1510" type="qcurve" smooth="yes"/>
      <point x="433" y="1510"/>
      <point x="614" y="1346"/>
      <point x="614" y="1187" type="qcurve" smooth="yes"/>
      <point x="614" y="1072"/>
      <point x="478" y="837"/>
      <point x="478" y="733" type="qcurve" smooth="yes"/>
      <point x="478" y="665"/>
      <point x="548" y="608"/>
      <point x="601" y="602" type="qcurve" smooth="yes"/>
      <point x="696" y="592" type="line"/>
      <point x="696" y="478" type="line"/>
      <point x="479" y="478" type="line"/>
      <point x="479" y="364" type="line"/>
      <point x="479" y="246"/>
      <point x="630" y="-53"/>
      <point x="630" y="-171" type="qcurve" smooth="yes"/>
      <point x="630" y="-330"/>
      <point x="452" y="-495"/>
      <point x="290" y="-495" type="qcurve" smooth="yes"/>
      <point x="235" y="-495"/>
      <point x="58" y="-487"/>
    </contour>
  </outline>
</glyph>
<glyph name="asciitilde" format="2">
  <advance width="945"/>
  <unicode hex="007E"/>
  <outline>
    <contour>
      <point x="7" y="614" type="line"/>
      <point x="55" y="705"/>
      <point x="248" y="839"/>
      <point x="325" y="839" type="qcurve"/>
      <point x="640" y="716" type="line"/>
      <point x="700" y="716"/>
      <point x="794" y="793"/>
      <point x="824" y="842" type="qcurve"/>
      <point x="931" y="749" type="line"/>
      <point x="889" y="646"/>
      <point x="718" y="490"/>
      <point x="615" y="490" type="qcurve"/>
      <point x="315" y="608" type="line"/>
      <point x="257" y="608"/>
      <point x="138" y="549"/>
      <point x="87" y="502" type="qcurve"/>
    </contour>
  </outline>
</glyph>
<glyph name="exclamdown" format="2">
  <advance width="715"/>
  <unicode hex="00A1"/>
  <outline>
    <contour>
      <point x="545" y="1162" type="qcurve" smooth="yes"/>
      <point x="545" y="1090"/>
      <point x="438" y="986"/>
      <point x="354" y="986" type="qcurve" smooth="yes"/>
      <point x="270" y="986"/>
      <point x="163" y="1090"/>
      <point x="163" y="1162" type="qcurve" smooth="yes"/>
      <point x="163" y="1235"/>
      <point x="270" y="1339"/>
      <point x="354" y="1339" type="qcurve" smooth="yes"/>
      <point x="438" y="1339"/>
      <point x="545" y="1235"/>
    </contour>
    <contour>
      <point x="536" y="-40" type="line" smooth="yes"/>
      <point x="539" y="-119"/>
      <point x="439" y="-225"/>
      <point x="359" y="-225" type="qcurve" smooth="yes"/>
      <point x="279" y="-226"/>
      <point x="173" y="-120"/>
      <point x="176" y="-40" type="qcurve" smooth="yes"/>
      <point x="188" y="218" type="line"/>
      <point x="250" y="526" type="line"/>
      <point x="290" y="857" type="line"/>
      <point x="424" y="857" type="line"/>
      <point x="463" y="526" type="line"/>
      <point x="524" y="218" type="line"/>
    </contour>
  </outline>
</glyph>
<glyph name="sterling" format="2">
  <advance width="1116"/>
  <unicode hex="00A3"/>
  <outline>
    <contour>
      <point x="699" y="564" type="qcurve" smooth="yes"/>
      <point x="699" y="448"/>
      <point x="566" y="267"/>
      <point x="475" y="214" type="qcurve"/>
      <point x="483" y="181" type="line"/>
      <point x="861" y="175" type="line"/>
      <point x="979" y="405" type="line"/>
      <point x="1108" y="405" type="line"/>
      <point x="1009" y="0" type="line"/>
      <point x="71" y="0" type="line"/>
      <point x="11" y="133" type="line"/>
      <point x="61" y="195" type="line"/>
      <point x="252" y="184"/>
      <point x="422" y="361"/>
      <point x="422" y="476" type="qcurve" smooth="yes"/>
      <point x="422" y="531"/>
      <point x="332" y="671"/>
      <point x="280" y="740" type="qcurve" smooth="yes"/>
      <point x="201" y="843"/>
      <point x="107" y="1023"/>
      <point x="107" y="1130" type="qcurve" smooth="yes"/>
      <point x="107" y="1305"/>
      <point x="367" y="1511"/>
      <point x="601" y="1511" type="qcurve" smooth="yes"/>
      <point x="754" y="1511"/>
      <point x="963" y="1408"/>
      <point x="1029" y="1324" type="qcurve"/>
      <point x="954" y="1182" type="line"/>
      <point x="892" y="1253"/>
      <point x="753" y="1326"/>
      <point x="668" y="1326" type="qcurve" smooth="yes"/>
      <point x="557" y="1326"/>
      <point x="459" y="1221"/>
      <point x="459" y="1138" type="qcurve" smooth="yes"/>
      <point x="459" y="1062"/>
      <point x="524" y="923"/>
      <point x="589" y="836" type="qcurve" smooth="yes"/>
      <point x="646" y="759"/>
      <point x="699" y="623"/>
    </contour>
    <contour>
      <point x="173" y="578" type="line"/>
      <point x="143" y="760" type="line"/>
      <point x="952" y="760" type="line"/>
      <point x="915" y="578" type="line"/>
    </contour>
  </outline>
</glyph>
<glyph name="currency" format="2">
  <advance width="1298"/>
  <unicode hex="00A4"/>
  <outline>
    <contour>
      <point x="157" y="798" type="qcurve" smooth="yes"/>
      <point x="157" y="1005"/>
      <point x="421" y="1297"/>
      <point x="636" y="1297" type="qcurve" smooth="yes"/>
      <point x="852" y="1297"/>
      <point x="1120" y="1025"/>
      <point x="1120" y="804" type="qcurve" smooth="yes"/>
      <point x="1120" y="597"/>
      <point x="857" y="299"/>
      <point x="642" y="299" type="qcurve" smooth="yes"/>
      <point x="426" y="299"/>
      <point x="157" y="575"/>
    </contour>
    <contour>
      <point x="360" y="813" type="qcurve" smooth="yes"/>
      <point x="361" y="678"/>
      <point x="509" y="492"/>
      <point x="634" y="492" type="qcurve" smooth="yes"/>
      <point x="769" y="492"/>
      <point x="911" y="661"/>
      <point x="911" y="802" type="qcurve" smooth="yes"/>
      <point x="911" y="931"/>
      <point x="762" y="1099"/>
      <point x="636" y="1099" type="qcurve" smooth="yes"/>
      <point x="500" y="1099"/>
      <point x="359" y="946"/>
    </contour>
    <contour>
      <point x="293" y="1039" type="line"/>
      <point x="51" y="1288" type="line"/>
      <point x="180" y="1426" type="line"/>
      <point x="422" y="1176" type="line"/>
    </contour>
    <contour>
      <point x="1005" y="1039" type="line"/>
      <point x="876" y="1176" type="line"/>
      <point x="1118" y="1426" type="line"/>
      <point x="1247" y="1288" type="line"/>
    </contour>
    <contour>
      <point x="293" y="539" type="line"/>
      <point x="422" y="402" type="line"/>
      <point x="180" y="152" type="line"/>
      <point x="51" y="289" type="line"/>
    </contour>
    <contour>
      <point x="1005" y="539" type="line"/>
      <point x="1247" y="289" type="line"/>
      <point x="1118" y="152" type="line"/>
      <point x="876" y="402" type="line"/>
    </contour>
  </outline>
</glyph>
<glyph name="yen" format="2">
  <advance width="1383"/>
  <unicode hex="00A5"/>
  <outline>
    <contour>
      <point x="189" y="612" type="line"/>
      <point x="156" y="788" type="line"/>
      <point x="1264" y="788" type="line"/>
      <point x="1227" y="612" type="line"/>
    </contour>
    <contour>
      <point x="524" y="626" type="line"/>
      <point x="332" y="988" type="line"/>
      <point x="142" y="1335" type="line"/>
      <point x="16" y="1368" type="line"/>
      <point x="16" y="1500" type="line"/>
      <point x="694" y="1500" type="line"/>
      <point x="694" y="1368" type="line"/>
      <point x="569" y="1334" type="line"/>
      <point x="694" y="1071" type="line"/>
      <point x="835" y="800" type="line"/>
      <point x="974" y="1071" type="line"/>
      <point x="1100" y="1335" type="line"/>
      <point x="970" y="1368" type="line"/>
      <point x="970" y="1500" type="line"/>
      <point x="1394" y="1500" type="line"/>
      <point x="1394" y="1368" type="line"/>
      <point x="1263" y="1335" type="line"/>
      <point x="1093" y="1017" type="line"/>
      <point x="900" y="631" type="line"/>
      <point x="902" y="153" type="line"/>
      <point x="1083" y="119" type="line"/>
      <point x="1083" y="0" type="line"/>
      <point x="339" y="0" type="line"/>
      <point x="339" y="119" type="line"/>
      <point x="522" y="153" type="line"/>
    </contour>
    <contour>
      <point x="242" y="302" type="line"/>
      <point x="210" y="478" type="line"/>
      <point x="1209" y="478" type="line"/>
      <point x="1172" y="302" type="line"/>
    </contour>
  </outline>
</glyph>
<glyph name="brokenbar" format="2">
  <advance width="665"/>
  <unicode hex="00A6"/>
  <outline>
    <contour>
      <point x="188" y="680" type="line"/>
      <point x="187" y="922" type="line"/>
      <point x="176" y="1230" type="line"/>
      <point x="166" y="1498" type="line"/>
      <point x="500" y="1562" type="line"/>
      <point x="491" y="1230" type="line"/>
      <point x="477" y="922" type="line"/>
      <point x="477" y="733" type="line"/>
    </contour>
    <contour>
      <point x="167" y="-522" type="line"/>
      <point x="176" y="-86" type="line"/>
      <point x="189" y="222" type="line"/>
      <point x="188" y="403" type="line"/>
      <point x="478" y="460" type="line"/>
      <point x="478" y="222" type="line"/>
      <point x="491" y="-86" type="line"/>
      <point x="500" y="-453" type="line"/>
    </contour>
  </outline>
</glyph>
<glyph name="section" format="2">
  <advance width="1153"/>
  <unicode hex="00A7"/>
  <outline>
    <contour>
      <point x="1055" y="137" type="qcurve" smooth="yes"/>
      <point x="1055" y="-41"/>
      <point x="813" y="-253"/>
      <point x="615" y="-253" type="qcurve" smooth="yes"/>
      <point x="491" y="-253"/>
      <point x="321" y="-187"/>
      <point x="264" y="-135" type="qcurve"/>
      <point x="219" y="-235" type="line"/>
      <point x="106" y="-235" type="line"/>
      <point x="106" y="209" type="line"/>
      <point x="230" y="209" type="line"/>
      <point x="243" y="140" type="line" smooth="yes"/>
      <point x="267" y="9"/>
      <point x="467" y="-107"/>
      <point x="590" y="-107" type="qcurve" smooth="yes"/>
      <point x="713" y="-107"/>
      <point x="833" y="-2"/>
      <point x="833" y="89" type="qcurve" smooth="yes"/>
      <point x="833" y="192"/>
      <point x="681" y="293"/>
      <point x="494" y="361" type="qcurve" smooth="yes"/>
      <point x="296" y="432"/>
      <point x="128" y="607"/>
      <point x="128" y="749" type="qcurve" smooth="yes"/>
      <point x="128" y="849"/>
      <point x="212" y="986"/>
      <point x="280" y="1029" type="qcurve"/>
      <point x="239" y="1067"/>
      <point x="194" y="1170"/>
      <point x="196" y="1241" type="qcurve" smooth="yes"/>
      <point x="198" y="1356"/>
      <point x="397" y="1512"/>
      <point x="565" y="1512" type="qcurve" smooth="yes"/>
      <point x="651" y="1512"/>
      <point x="767" y="1477"/>
      <point x="812" y="1449" type="qcurve"/>
      <point x="827" y="1480" type="line"/>
      <point x="934" y="1480" type="line"/>
      <point x="934" y="1171" type="line"/>
      <point x="811" y="1171" type="line"/>
      <point x="794" y="1255" type="line" smooth="yes"/>
      <point x="782" y="1310"/>
      <point x="665" y="1374"/>
      <point x="575" y="1374" type="qcurve" smooth="yes"/>
      <point x="498" y="1374"/>
      <point x="417" y="1316"/>
      <point x="417" y="1265" type="qcurve" smooth="yes"/>
      <point x="417" y="1209"/>
      <point x="506" y="1142"/>
      <point x="654" y="1104" type="qcurve" smooth="yes"/>
      <point x="843" y="1055"/>
      <point x="1022" y="908"/>
      <point x="1022" y="768" type="qcurve" smooth="yes"/>
      <point x="1022" y="669"/>
      <point x="901" y="516"/>
      <point x="800" y="485" type="qcurve"/>
      <point x="925" y="431"/>
      <point x="1055" y="267"/>
    </contour>
    <contour>
      <point x="332" y="794" type="qcurve" smooth="yes"/>
      <point x="332" y="721"/>
      <point x="439" y="625"/>
      <point x="603" y="565" type="qcurve"/>
      <point x="691" y="566"/>
      <point x="802" y="651"/>
      <point x="802" y="722" type="qcurve" smooth="yes"/>
      <point x="802" y="791"/>
      <point x="693" y="860"/>
      <point x="545" y="905" type="qcurve" smooth="yes"/>
      <point x="517" y="914"/>
      <point x="443" y="937"/>
      <point x="421" y="946" type="qcurve"/>
      <point x="380" y="926"/>
      <point x="332" y="850"/>
    </contour>
  </outline>
</glyph>
<glyph name="dieresis" format="2">
  <advance width="1024"/>
  <unicode hex="00A8"/>
  <outline>
    <contour>
      <point x="596" y="1288" type="qcurve" smooth="yes"/>
      <point x="596" y="1352"/>
      <point x="664" y="1420"/>
      <point x="728" y="1420" type="qcurve" smooth="yes"/>
      <point x="788" y="1420"/>
      <point x="860" y="1347"/>
      <point x="860" y="1288" type="qcurve" smooth="yes"/>
      <point x="860" y="1225"/>
      <point x="793" y="1156"/>
      <point x="728" y="1156" type="qcurve" smooth="yes"/>
      <point x="668" y="1156"/>
      <point x="596" y="1228"/>
    </contour>
    <contour>
      <point x="164" y="1288" type="qcurve" smooth="yes"/>
      <point x="164" y="1352"/>
      <point x="232" y="1420"/>
      <point x="296" y="1420" type="qcurve" smooth="yes"/>
      <point x="356" y="1420"/>
      <point x="428" y="1347"/>
      <point x="428" y="1288" type="qcurve" smooth="yes"/>
      <point x="428" y="1225"/>
      <point x="360" y="1156"/>
      <point x="296" y="1156" type="qcurve" smooth="yes"/>
      <point x="236" y="1156"/>
      <point x="164" y="1228"/>
    </contour>
  </outline>
</glyph>
<glyph name="copyright" format="2">
  <advance width="1965"/>
  <unicode hex="00A9"/>
  <outline>
    <contour>
      <point x="516" y="650" type="qcurve" smooth="yes"/>
      <point x="516" y="894"/>
      <point x="789" y="1187"/>
      <point x="1027" y="1187" type="qcurve" smooth="yes"/>
      <point x="1102" y="1187"/>
      <point x="1211" y="1156"/>
      <point x="1240" y="1134" type="qcurve"/>
      <point x="1260" y="1181" type="line"/>
      <point x="1368" y="1155" type="line"/>
      <point x="1378" y="842" type="line"/>
      <point x="1260" y="823" type="line"/>
      <point x="1237" y="934" type="line"/>
      <point x="1218" y="988"/>
      <point x="1126" y="1053"/>
      <point x="1064" y="1053" type="qcurve" smooth="yes"/>
      <point x="949" y="1053"/>
      <point x="810" y="871"/>
      <point x="810" y="676" type="qcurve" smooth="yes"/>
      <point x="810" y="487"/>
      <point x="972" y="308"/>
      <point x="1095" y="308" type="qcurve" smooth="yes"/>
      <point x="1178" y="308"/>
      <point x="1327" y="380"/>
      <point x="1368" y="433" type="qcurve"/>
      <point x="1427" y="349" type="line"/>
      <point x="1376" y="266"/>
      <point x="1163" y="147"/>
      <point x="1019" y="147" type="qcurve" smooth="yes"/>
      <point x="801" y="147"/>
      <point x="516" y="413"/>
    </contour>
    <contour>
      <point x="101" y="685" type="qcurve" smooth="yes"/>
      <point x="101" y="1061"/>
      <point x="599" y="1570"/>
      <point x="984" y="1570" type="qcurve" smooth="yes"/>
      <point x="1368" y="1570"/>
      <point x="1864" y="1087"/>
      <point x="1864" y="706" type="qcurve" smooth="yes"/>
      <point x="1864" y="288"/>
      <point x="1375" y="-242"/>
      <point x="996" y="-242" type="qcurve" smooth="yes"/>
      <point x="605" y="-242"/>
      <point x="101" y="276"/>
    </contour>
    <contour>
      <point x="288" y="680" type="qcurve" smooth="yes"/>
      <point x="288" y="348"/>
      <point x="707" y="-87"/>
      <point x="1010" y="-87" type="qcurve" smooth="yes"/>
      <point x="1304" y="-87"/>
      <point x="1676" y="372"/>
      <point x="1676" y="697" type="qcurve" smooth="yes"/>
      <point x="1676" y="993"/>
      <point x="1282" y="1415"/>
      <point x="966" y="1415" type="qcurve" smooth="yes"/>
      <point x="666" y="1415"/>
      <point x="288" y="985"/>
    </contour>
  </outline>
</glyph>
<glyph name="ordfeminine" format="2">
  <advance width="1090"/>
  <unicode hex="00AA"/>
  <outline>
    <contour>
      <point x="76" y="885" type="qcurve" smooth="yes"/>
      <point x="76" y="1017"/>
      <point x="336" y="1174"/>
      <point x="628" y="1199" type="qcurve"/>
      <point x="635" y="1106" type="line"/>
      <point x="504" y="1092"/>
      <point x="376" y="993"/>
      <point x="377" y="900" type="qcurve" smooth="yes"/>
      <point x="378" y="845"/>
      <point x="431" y="791"/>
      <point x="475" y="791" type="qcurve" smooth="yes"/>
      <point x="515" y="791"/>
      <point x="592" y="839"/>
      <point x="608" y="872" type="qcurve"/>
      <point x="609" y="1183" type="line" smooth="yes"/>
      <point x="610" y="1316"/>
      <point x="531" y="1411"/>
      <point x="446" y="1411" type="qcurve" smooth="yes"/>
      <point x="397" y="1411"/>
      <point x="318" y="1388"/>
      <point x="301" y="1373" type="qcurve"/>
      <point x="316" y="1359"/>
      <point x="336" y="1322"/>
      <point x="339" y="1299" type="qcurve" smooth="yes"/>
      <point x="343" y="1255"/>
      <point x="293" y="1203"/>
      <point x="244" y="1200" type="qcurve" smooth="yes"/>
      <point x="195" y="1197"/>
      <point x="129" y="1263"/>
      <point x="129" y="1324" type="qcurve" smooth="yes"/>
      <point x="129" y="1415"/>
      <point x="346" y="1543"/>
      <point x="541" y="1543" type="qcurve" smooth="yes"/>
      <point x="732" y="1543"/>
      <point x="921" y="1385"/>
      <point x="920" y="1210" type="qcurve" smooth="yes"/>
      <point x="923" y="787" type="line"/>
      <point x="1036" y="758" type="line"/>
      <point x="1036" y="669" type="line"/>
      <point x="662" y="669" type="line"/>
      <point x="622" y="716" type="line"/>
      <point x="614" y="760" type="line"/>
      <point x="580" y="715"/>
      <point x="446" y="656"/>
      <point x="348" y="656" type="qcurve" smooth="yes"/>
      <point x="219" y="656"/>
      <point x="76" y="777"/>
    </contour>
  </outline>
</glyph>
<glyph name="guillemetleft" format="2">
  <advance width="1398"/>
  <unicode hex="00AB"/>
  <outline>
    <contour>
      <point x="37" y="637" type="line"/>
      <point x="103" y="679"/>
      <point x="561" y="982"/>
      <point x="625" y="1026" type="qcurve" smooth="yes"/>
      <point x="719" y="1093"/>
      <point x="813" y="950"/>
      <point x="725" y="885" type="qcurve" smooth="yes"/>
      <point x="606" y="797"/>
      <point x="368" y="634"/>
      <point x="338" y="614" type="qcurve"/>
      <point x="368" y="594"/>
      <point x="644" y="396"/>
      <point x="729" y="333" type="qcurve" smooth="yes"/>
      <point x="812" y="272"/>
      <point x="732" y="133"/>
      <point x="649" y="180" type="qcurve" smooth="yes"/>
      <point x="587" y="216"/>
      <point x="107" y="538"/>
      <point x="37" y="585" type="qcurve"/>
    </contour>
    <contour>
      <point x="584" y="637" type="line"/>
      <point x="650" y="679"/>
      <point x="1108" y="982"/>
      <point x="1172" y="1026" type="qcurve" smooth="yes"/>
      <point x="1266" y="1093"/>
      <point x="1360" y="950"/>
      <point x="1273" y="885" type="qcurve" smooth="yes"/>
      <point x="1153" y="797"/>
      <point x="916" y="634"/>
      <point x="886" y="614" type="qcurve"/>
      <point x="916" y="594"/>
      <point x="1191" y="396"/>
      <point x="1276" y="333" type="qcurve" smooth="yes"/>
      <point x="1359" y="272"/>
      <point x="1280" y="133"/>
      <point x="1196" y="180" type="qcurve" smooth="yes"/>
      <point x="1134" y="216"/>
      <point x="655" y="538"/>
      <point x="584" y="585" type="qcurve"/>
    </contour>
  </outline>
</glyph>
<glyph name="logicalnot" format="2">
  <advance width="1005"/>
  <unicode hex="00AC"/>
  <outline>
    <contour>
      <point x="64" y="803" type="line"/>
      <point x="924" y="803" type="line"/>
      <point x="924" y="242" type="line"/>
      <point x="658" y="242" type="line"/>
      <point x="658" y="571" type="line"/>
      <point x="64" y="571" type="line"/>
    </contour>
  </outline>
</glyph>
<glyph name="registered" format="2">
  <advance width="1965"/>
  <unicode hex="00AE"/>
  <outline>
    <contour>
      <point x="101" y="685" type="qcurve" smooth="yes"/>
      <point x="101" y="1061"/>
      <point x="599" y="1570"/>
      <point x="984" y="1570" type="qcurve" smooth="yes"/>
      <point x="1368" y="1570"/>
      <point x="1864" y="1087"/>
      <point x="1864" y="706" type="qcurve" smooth="yes"/>
      <point x="1864" y="288"/>
      <point x="1375" y="-242"/>
      <point x="996" y="-242" type="qcurve" smooth="yes"/>
      <point x="605" y="-242"/>
      <point x="101" y="276"/>
    </contour>
    <contour>
      <point x="288" y="680" type="qcurve" smooth="yes"/>
      <point x="288" y="348"/>
      <point x="707" y="-87"/>
      <point x="1010" y="-87" type="qcurve" smooth="yes"/>
      <point x="1304" y="-87"/>
      <point x="1676" y="372"/>
      <point x="1676" y="697" type="qcurve" smooth="yes"/>
      <point x="1676" y="993"/>
      <point x="1282" y="1415"/>
      <point x="966" y="1415" type="qcurve" smooth="yes"/>
      <point x="666" y="1415"/>
      <point x="288" y="985"/>
    </contour>
    <contour>
      <point x="566" y="176" type="line"/>
      <point x="563" y="266" type="line"/>
      <point x="662" y="290" type="line"/>
      <point x="672" y="723" type="line"/>
      <point x="662" y="1075" type="line"/>
      <point x="554" y="1098" type="line"/>
      <point x="554" y="1209" type="line"/>
      <point x="1019" y="1209" type="line" smooth="yes"/>
      <point x="1170" y="1209"/>
      <point x="1336" y="1069"/>
      <point x="1336" y="941" type="qcurve" smooth="yes"/>
      <point x="1336" y="798"/>
      <point x="1137" y="631"/>
      <point x="1017" y="631" type="qcurve" smooth="yes"/>
      <point x="968" y="631"/>
      <point x="857" y="640"/>
      <point x="835" y="640" type="qcurve"/>
      <point x="835" y="745" type="line"/>
      <point x="938" y="745" type="line" smooth="yes"/>
      <point x="1052" y="745"/>
      <point x="1132" y="841"/>
      <point x="1132" y="932" type="qcurve" smooth="yes"/>
      <point x="1132" y="1019"/>
      <point x="1051" y="1088"/>
      <point x="953" y="1088" type="qcurve" smooth="yes"/>
      <point x="890" y="1088" type="line"/>
      <point x="870" y="1075" type="line"/>
      <point x="857" y="710" type="line"/>
      <point x="868" y="290" type="line"/>
      <point x="971" y="266" type="line"/>
      <point x="971" y="176" type="line"/>
    </contour>
    <contour>
      <point x="918" y="697" type="line"/>
      <point x="1111" y="725" type="line"/>
      <point x="1314" y="393" type="line" smooth="yes"/>
      <point x="1376" y="292"/>
      <point x="1439" y="266"/>
      <point x="1479" y="266" type="qcurve"/>
      <point x="1479" y="176" type="line"/>
      <point x="1260" y="176" type="line"/>
      <point x="1220" y="190" type="line"/>
    </contour>
  </outline>
</glyph>
<glyph name="degree" format="2">
  <advance width="839"/>
  <unicode hex="00B0"/>
  <outline>
    <contour>
      <point x="117" y="1254" type="qcurve" smooth="yes"/>
      <point x="117" y="1377"/>
      <point x="287" y="1560"/>
      <point x="419" y="1560" type="qcurve" smooth="yes"/>
      <point x="552" y="1560"/>
      <point x="722" y="1377"/>
      <point x="722" y="1254" type="qcurve" smooth="yes"/>
      <point x="722" y="1133"/>
      <point x="552" y="950"/>
      <point x="419" y="950" type="qcurve" smooth="yes"/>
      <point x="287" y="950"/>
      <point x="117" y="1133"/>
    </contour>
    <contour>
      <point x="262" y="1254" type="qcurve" smooth="yes"/>
      <point x="262" y="1191"/>
      <point x="349" y="1094"/>
      <point x="419" y="1094" type="qcurve" smooth="yes"/>
      <point x="490" y="1094"/>
      <point x="577" y="1191"/>
      <point x="577" y="1254" type="qcurve" smooth="yes"/>
      <point x="577" y="1321"/>
      <point x="490" y="1414"/>
      <point x="419" y="1414" type="qcurve" smooth="yes"/>
      <point x="349" y="1414"/>
      <point x="262" y="1321"/>
    </contour>
  </outline>
</glyph>
<glyph name="plusminus" format="2">
  <advance width="1005"/>
  <unicode hex="00B1"/>
  <outline>
    <contour>
      <point x="64" y="631" type="line"/>
      <point x="64" y="859" type="line"/>
      <point x="941" y="859" type="line"/>
      <point x="941" y="631" type="line"/>
    </contour>
    <contour>
      <point x="372" y="309" type="line"/>
      <point x="372" y="1183" type="line"/>
      <point x="633" y="1183" type="line"/>
      <point x="633" y="309" type="line"/>
    </contour>
    <contour>
      <point x="64" y="2" type="line"/>
      <point x="64" y="220" type="line"/>
      <point x="941" y="220" type="line"/>
      <point x="941" y="2" type="line"/>
    </contour>
  </outline>
</glyph>
<glyph name="twosuperior" format="2">
  <advance width="809"/>
  <unicode hex="00B2"/>
  <outline>
    <contour>
      <point x="82" y="671" type="line"/>
      <point x="82" y="777" type="line"/>
      <point x="95" y="855"/>
      <point x="214" y="1011"/>
      <point x="336" y="1080" type="qcurve" smooth="yes"/>
      <point x="412" y="1123"/>
      <point x="473" y="1209"/>
      <point x="473" y="1269" type="qcurve" smooth="yes"/>
      <point x="473" y="1324"/>
      <point x="407" y="1379"/>
      <point x="355" y="1379" type="qcurve" smooth="yes"/>
      <point x="295" y="1379"/>
      <point x="196" y="1335"/>
      <point x="143" y="1285" type="qcurve"/>
      <point x="90" y="1385" type="line"/>
      <point x="134" y="1437"/>
      <point x="303" y="1520"/>
      <point x="421" y="1520" type="qcurve" smooth="yes"/>
      <point x="572" y="1520"/>
      <point x="720" y="1400"/>
      <point x="722" y="1299" type="qcurve" smooth="yes"/>
      <point x="724" y="1183"/>
      <point x="592" y="1037"/>
      <point x="489" y="995" type="qcurve" smooth="yes"/>
      <point x="343" y="935"/>
      <point x="273" y="884"/>
      <point x="262" y="861" type="qcurve"/>
      <point x="265" y="847" type="line"/>
      <point x="741" y="847" type="line"/>
      <point x="741" y="671" type="line"/>
    </contour>
  </outline>
</glyph>
<glyph name="threesuperior" format="2">
  <advance width="762"/>
  <unicode hex="00B3"/>
  <outline>
    <contour>
      <point x="42" y="739" type="qcurve"/>
      <point x="91" y="859" type="line"/>
      <point x="135" y="819"/>
      <point x="233" y="782"/>
      <point x="295" y="782" type="qcurve" smooth="yes"/>
      <point x="369" y="782"/>
      <point x="452" y="850"/>
      <point x="452" y="916" type="qcurve" smooth="yes"/>
      <point x="452" y="984"/>
      <point x="354" y="1050"/>
      <point x="240" y="1050" type="qcurve" smooth="yes"/>
      <point x="210" y="1050" type="line"/>
      <point x="193" y="1160" type="line"/>
      <point x="254" y="1163" type="line" smooth="yes"/>
      <point x="349" y="1168"/>
      <point x="432" y="1237"/>
      <point x="432" y="1294" type="qcurve" smooth="yes"/>
      <point x="432" y="1343"/>
      <point x="373" y="1389"/>
      <point x="311" y="1389" type="qcurve" smooth="yes"/>
      <point x="253" y="1389"/>
      <point x="167" y="1360"/>
      <point x="125" y="1333" type="qcurve"/>
      <point x="85" y="1422" type="line"/>
      <point x="138" y="1468"/>
      <point x="291" y="1520"/>
      <point x="397" y="1520" type="qcurve" smooth="yes"/>
      <point x="528" y="1520"/>
      <point x="675" y="1418"/>
      <point x="676" y="1337" type="qcurve" smooth="yes"/>
      <point x="678" y="1248"/>
      <point x="567" y="1142"/>
      <point x="456" y="1118" type="qcurve"/>
      <point x="456" y="1114" type="line"/>
      <point x="571" y="1111"/>
      <point x="700" y="1001"/>
      <point x="700" y="905" type="qcurve" smooth="yes"/>
      <point x="700" y="783"/>
      <point x="492" y="649"/>
      <point x="331" y="649" type="qcurve" smooth="yes"/>
      <point x="248" y="649"/>
      <point x="92" y="697"/>
    </contour>
  </outline>
</glyph>
<glyph name="acute" format="2">
  <advance width="1024"/>
  <unicode hex="00B4"/>
  <outline>
    <contour>
      <point x="801" y="1476" type="qcurve" smooth="yes"/>
      <point x="801" y="1431"/>
      <point x="754" y="1364"/>
      <point x="705" y="1333" type="qcurve" smooth="yes"/>
      <point x="412" y="1150" type="line"/>
      <point x="334" y="1231" type="line"/>
      <point x="507" y="1456" type="line" smooth="yes"/>
      <point x="546" y="1507"/>
      <point x="633" y="1582"/>
      <point x="681" y="1582" type="qcurve" smooth="yes"/>
      <point x="727" y="1582"/>
      <point x="800" y="1517"/>
    </contour>
  </outline>
</glyph>
<glyph name="micro" format="2">
  <advance width="1360"/>
  <unicode hex="00B5"/>
  <outline>
    <contour>
      <point x="-58" y="-290" type="line"/>
      <point x="-15" y="-268" type="line"/>
      <point x="24" y="-112"/>
      <point x="95" y="217"/>
      <point x="112" y="305" type="qcurve" smooth="yes"/>
      <point x="215" y="845" type="line"/>
      <point x="68" y="855" type="line"/>
      <point x="75" y="974" type="line"/>
      <point x="476" y="1033" type="line"/>
      <point x="557" y="1033" type="line"/>
      <point x="606" y="936" type="line"/>
      <point x="490" y="362" type="line" smooth="yes"/>
      <point x="474" y="279"/>
      <point x="509" y="200"/>
      <point x="564" y="200" type="qcurve" smooth="yes"/>
      <point x="617" y="200"/>
      <point x="732" y="269"/>
      <point x="774" y="320" type="qcurve"/>
      <point x="895" y="909" type="line"/>
      <point x="863" y="1017" type="line"/>
      <point x="1243" y="1042" type="line"/>
      <point x="1278" y="926" type="line"/>
      <point x="1180" y="494" type="line"/>
      <point x="1129" y="187" type="line"/>
      <point x="1269" y="190" type="line"/>
      <point x="1269" y="73" type="line"/>
      <point x="824" y="-15" type="line"/>
      <point x="766" y="54" type="line"/>
      <point x="765" y="168" type="line"/>
      <point x="706" y="102"/>
      <point x="561" y="19"/>
      <point x="485" y="6" type="qcurve" smooth="yes"/>
      <point x="455" y="1"/>
      <point x="400" y="1"/>
      <point x="374" y="7" type="qcurve"/>
      <point x="327" y="-247" type="line"/>
      <point x="473" y="-255" type="line"/>
      <point x="462" y="-371" type="line"/>
      <point x="-38" y="-399" type="line"/>
    </contour>
  </outline>
</glyph>
<glyph name="paragraph" format="2">
  <advance width="1193"/>
  <unicode hex="00B6"/>
  <outline>
    <contour>
      <point x="1095" y="119" type="line"/>
      <point x="1095" y="0" type="line"/>
      <point x="272" y="0" type="line"/>
      <point x="272" y="119" type="line"/>
      <point x="780" y="148" type="line"/>
      <point x="782" y="747" type="line"/>
      <point x="743" y="741"/>
      <point x="550" y="733"/>
      <point x="491" y="733" type="qcurve" smooth="yes"/>
      <point x="298" y="733"/>
      <point x="64" y="942"/>
      <point x="64" y="1135" type="qcurve" smooth="yes"/>
      <point x="64" y="1306"/>
      <point x="286" y="1500"/>
      <point x="478" y="1500" type="qcurve" smooth="yes"/>
      <point x="1142" y="1500" type="line"/>
      <point x="1142" y="1368" type="line"/>
      <point x="947" y="1334" type="line"/>
      <point x="945" y="754" type="line"/>
      <point x="947" y="149" type="line"/>
    </contour>
    <contour>
      <point x="627" y="71" type="line"/>
      <point x="460" y="66" type="line"/>
      <point x="462" y="747" type="line"/>
      <point x="625" y="754" type="line"/>
    </contour>
  </outline>
</glyph>
<glyph name="periodcentered" format="2">
  <advance width="606"/>
  <unicode hex="00B7"/>
  <outline>
    <contour>
      <point x="98" y="659" type="qcurve" smooth="yes"/>
      <point x="98" y="739"/>
      <point x="213" y="856"/>
      <point x="303" y="856" type="qcurve" smooth="yes"/>
      <point x="392" y="856"/>
      <point x="508" y="739"/>
      <point x="508" y="659" type="qcurve" smooth="yes"/>
      <point x="508" y="581"/>
      <point x="392" y="463"/>
      <point x="303" y="463" type="qcurve" smooth="yes"/>
      <point x="213" y="463"/>
      <point x="98" y="581"/>
    </contour>
  </outline>
</glyph>
<glyph name="cedilla" format="2">
  <advance width="1024"/>
  <unicode hex="00B8"/>
  <outline>
    <contour>
      <point x="584" y="0" type="line"/>
      <point x="499" y="-138" type="line"/>
      <point x="519" y="-132"/>
      <point x="588" y="-123"/>
      <point x="623" y="-123" type="qcurve" smooth="yes"/>
      <point x="713" y="-123"/>
      <point x="838" y="-211"/>
      <point x="838" y="-305" type="qcurve" smooth="yes"/>
      <point x="838" y="-403"/>
      <point x="672" y="-523"/>
      <point x="539" y="-523" type="qcurve" smooth="yes"/>
      <point x="438" y="-523"/>
      <point x="285" y="-478"/>
      <point x="225" y="-435" type="qcurve"/>
      <point x="278" y="-338" type="line"/>
      <point x="323" y="-367"/>
      <point x="431" y="-400"/>
      <point x="504" y="-400" type="qcurve" smooth="yes"/>
      <point x="564" y="-400"/>
      <point x="635" y="-353"/>
      <point x="635" y="-306" type="qcurve" smooth="yes"/>
      <point x="635" y="-268"/>
      <point x="576" y="-227"/>
      <point x="526" y="-227" type="qcurve" smooth="yes"/>
      <point x="491" y="-227"/>
      <point x="437" y="-235"/>
      <point x="419" y="-241" type="qcurve"/>
      <point x="351" y="-168" type="line"/>
      <point x="481" y="54" type="line"/>
    </contour>
  </outline>
</glyph>
<glyph name="onesuperior" format="2">
  <advance width="777"/>
  <unicode hex="00B9"/>
  <outline>
    <contour>
      <point x="101" y="670" type="line"/>
      <point x="101" y="764" type="line"/>
      <point x="278" y="794" type="line"/>
      <point x="281" y="1109" type="line"/>
      <point x="278" y="1352" type="line"/>
      <point x="99" y="1374" type="line"/>
      <point x="99" y="1477" type="line"/>
      <point x="491" y="1510" type="line"/>
      <point x="523" y="1475" type="line"/>
      <point x="517" y="1109" type="line"/>
      <point x="519" y="794" type="line"/>
      <point x="697" y="764" type="line"/>
      <point x="697" y="670" type="line"/>
    </contour>
  </outline>
</glyph>
<glyph name="ordmasculine" format="2">
  <advance width="1043"/>
  <unicode hex="00BA"/>
  <outline>
    <contour>
      <point x="44" y="1097" type="qcurve" smooth="yes"/>
      <point x="44" y="1296"/>
      <point x="296" y="1544"/>
      <point x="521" y="1544" type="qcurve" smooth="yes"/>
      <point x="746" y="1544"/>
      <point x="999" y="1313"/>
      <point x="999" y="1102" type="qcurve" smooth="yes"/>
      <point x="999" y="904"/>
      <point x="749" y="650"/>
      <point x="525" y="650" type="qcurve" smooth="yes"/>
      <point x="299" y="650"/>
      <point x="44" y="884"/>
    </contour>
    <contour>
      <point x="366" y="1111" type="qcurve" smooth="yes"/>
      <point x="367" y="925"/>
      <point x="447" y="759"/>
      <point x="519" y="759" type="qcurve" smooth="yes"/>
      <point x="597" y="759"/>
      <point x="674" y="908"/>
      <point x="674" y="1099" type="qcurve" smooth="yes"/>
      <point x="674" y="1279"/>
      <point x="593" y="1424"/>
      <point x="521" y="1424" type="qcurve" smooth="yes"/>
      <point x="442" y="1424"/>
      <point x="365" y="1295"/>
    </contour>
  </outline>
</glyph>
<glyph name="guillemetright" format="2">
  <advance width="1398"/>
  <unicode hex="00BB"/>
  <outline>
    <contour>
      <point x="1368" y="586" type="line"/>
      <point x="1291" y="535"/>
      <point x="818" y="227"/>
      <point x="756" y="187" type="qcurve" smooth="yes"/>
      <point x="670" y="131"/>
      <point x="584" y="277"/>
      <point x="667" y="337" type="qcurve" smooth="yes"/>
      <point x="771" y="411"/>
      <point x="1026" y="584"/>
      <point x="1065" y="612" type="qcurve"/>
      <point x="1040" y="628"/>
      <point x="781" y="806"/>
      <point x="666" y="888" type="qcurve" smooth="yes"/>
      <point x="582" y="948"/>
      <point x="668" y="1090"/>
      <point x="752" y="1038" type="qcurve" smooth="yes"/>
      <point x="816" y="999"/>
      <point x="1294" y="687"/>
      <point x="1368" y="638" type="qcurve"/>
    </contour>
    <contour>
      <point x="820" y="584" type="line"/>
      <point x="742" y="533"/>
      <point x="270" y="228"/>
      <point x="212" y="190" type="qcurve" smooth="yes"/>
      <point x="122" y="130"/>
      <point x="36" y="277"/>
      <point x="120" y="337" type="qcurve" smooth="yes"/>
      <point x="225" y="411"/>
      <point x="476" y="586"/>
      <point x="514" y="612" type="qcurve"/>
      <point x="488" y="628"/>
      <point x="229" y="808"/>
      <point x="119" y="888" type="qcurve" smooth="yes"/>
      <point x="35" y="948"/>
      <point x="120" y="1090"/>
      <point x="205" y="1038" type="qcurve" smooth="yes"/>
      <point x="268" y="999"/>
      <point x="746" y="687"/>
      <point x="820" y="640" type="qcurve"/>
    </contour>
  </outline>
</glyph>
<glyph name="questiondown" format="2">
  <advance width="1037"/>
  <unicode hex="00BF"/>
  <outline>
    <contour>
      <point x="840" y="1157" type="qcurve" smooth="yes"/>
      <point x="840" y="1083"/>
      <point x="733" y="977"/>
      <point x="649" y="977" type="qcurve" smooth="yes"/>
      <point x="565" y="977"/>
      <point x="458" y="1083"/>
      <point x="458" y="1157" type="qcurve" smooth="yes"/>
      <point x="458" y="1231"/>
      <point x="565" y="1337"/>
      <point x="649" y="1337" type="qcurve" smooth="yes"/>
      <point x="733" y="1337"/>
      <point x="840" y="1231"/>
    </contour>
    <contour>
      <point x="997" y="100" type="qcurve" smooth="yes"/>
      <point x="997" y="-43"/>
      <point x="758" y="-222"/>
      <point x="540" y="-222" type="qcurve" smooth="yes"/>
      <point x="311" y="-222"/>
      <point x="54" y="-32"/>
      <point x="54" y="146" type="qcurve" smooth="yes"/>
      <point x="54" y="322"/>
      <point x="230" y="522"/>
      <point x="361" y="581" type="qcurve" smooth="yes"/>
      <point x="444" y="619"/>
      <point x="596" y="707"/>
      <point x="596" y="784" type="qcurve" smooth="yes"/>
      <point x="596" y="847" type="line"/>
      <point x="726" y="847" type="line"/>
      <point x="740" y="753" type="line" smooth="yes"/>
      <point x="756" y="655"/>
      <point x="673" y="481"/>
      <point x="564" y="412" type="qcurve" smooth="yes"/>
      <point x="490" y="365"/>
      <point x="393" y="248"/>
      <point x="393" y="143" type="qcurve" smooth="yes"/>
      <point x="393" y="41"/>
      <point x="505" y="-79"/>
      <point x="609" y="-79" type="qcurve" smooth="yes"/>
      <point x="708" y="-79"/>
      <point x="816" y="-12"/>
      <point x="816" y="37" type="qcurve" smooth="yes"/>
      <point x="816" y="70"/>
      <point x="703" y="131"/>
      <point x="702" y="192" type="qcurve" smooth="yes"/>
      <point x="701" y="239"/>
      <point x="767" y="308"/>
      <point x="833" y="308" type="qcurve" smooth="yes"/>
      <point x="904" y="308"/>
      <point x="997" y="202"/>
    </contour>
  </outline>
</glyph>
<glyph name="AE" format="2">
  <advance width="2039"/>
  <unicode hex="00C6"/>
  <anchor x="1037" y="1500" name="top"/>
  <outline>
    <contour>
      <point x="-8" y="0" type="line"/>
      <point x="-8" y="119" type="line"/>
      <point x="170" y="153" type="line"/>
      <point x="383" y="540" type="line"/>
      <point x="802" y="1338" type="line"/>
      <point x="666" y="1368" type="line"/>
      <point x="666" y="1500" type="line"/>
      <point x="1913" y="1500" type="line"/>
      <point x="1913" y="1146" type="line"/>
      <point x="1771" y="1146" type="line"/>
      <point x="1737" y="1353" type="line"/>
      <point x="1393" y="1353" type="line"/>
      <point x="1353" y="1331" type="line"/>
      <point x="1351" y="783" type="line"/>
      <point x="1353" y="162" type="line"/>
      <point x="1391" y="137" type="line"/>
      <point x="1789" y="137" type="line"/>
      <point x="1856" y="393" type="line"/>
      <point x="1999" y="393" type="line"/>
      <point x="1964" y="0" type="line"/>
      <point x="801" y="0" type="line"/>
      <point x="801" y="119" type="line"/>
      <point x="964" y="154" type="line"/>
      <point x="966" y="783" type="line"/>
      <point x="964" y="1281" type="line"/>
      <point x="940" y="1307" type="line"/>
      <point x="533" y="509" type="line"/>
      <point x="360" y="152" type="line"/>
      <point x="515" y="119" type="line"/>
      <point x="515" y="0" type="line"/>
    </contour>
    <contour>
      <point x="424" y="487" type="line"/>
      <point x="500" y="626" type="line"/>
      <point x="755" y="611" type="line"/>
      <point x="755" y="491" type="line"/>
    </contour>
    <contour>
      <point x="755" y="611" type="line"/>
      <point x="1063" y="627" type="line"/>
      <point x="1063" y="487" type="line"/>
      <point x="755" y="491" type="line"/>
    </contour>
    <contour>
      <point x="1167" y="725" type="line"/>
      <point x="1167" y="847" type="line"/>
      <point x="1662" y="857" type="line"/>
      <point x="1688" y="1005" type="line"/>
      <point x="1817" y="1005" type="line"/>
      <point x="1817" y="563" type="line"/>
      <point x="1688" y="563" type="line"/>
      <point x="1662" y="715" type="line"/>
    </contour>
  </outline>
</glyph>
<glyph name="multiply" format="2">
  <advance width="1005"/>
  <unicode hex="00D7"/>
  <outline>
    <contour>
      <point x="250" y="208" type="line"/>
      <point x="84" y="374" type="line"/>
      <point x="757" y="1057" type="line"/>
      <point x="922" y="890" type="line"/>
    </contour>
    <contour>
      <point x="756" y="208" type="line"/>
      <point x="84" y="890" type="line"/>
      <point x="249" y="1057" type="line"/>
      <point x="922" y="375" type="line"/>
    </contour>
  </outline>
</glyph>
<glyph name="Thorn" format="2">
  <advance width="1391"/>
  <unicode hex="00DE"/>
  <outline>
    <contour>
      <point x="45" y="0" type="line"/>
      <point x="45" y="118" type="line"/>
      <point x="206" y="154" type="line"/>
      <point x="208" y="754" type="line"/>
      <point x="206" y="1334" type="line"/>
      <point x="45" y="1368" type="line"/>
      <point x="45" y="1500" type="line"/>
      <point x="777" y="1500" type="line"/>
      <point x="777" y="1368" type="line"/>
      <point x="596" y="1334" type="line"/>
      <point x="595" y="1243" type="line"/>
      <point x="878" y="1243" type="line" smooth="yes"/>
      <point x="1111" y="1243"/>
      <point x="1353" y="1023"/>
      <point x="1353" y="807" type="qcurve" smooth="yes"/>
      <point x="1353" y="563"/>
      <point x="1062" y="309"/>
      <point x="806" y="309" type="qcurve" smooth="yes"/>
      <point x="715" y="309"/>
      <point x="580" y="325"/>
      <point x="521" y="336" type="qcurve"/>
      <point x="530" y="471" type="line"/>
      <point x="576" y="461"/>
      <point x="657" y="451"/>
      <point x="725" y="451" type="qcurve" smooth="yes"/>
      <point x="840" y="451"/>
      <point x="958" y="606"/>
      <point x="956" y="798" type="qcurve" smooth="yes"/>
      <point x="955" y="966"/>
      <point x="836" y="1098"/>
      <point x="731" y="1098" type="qcurve" smooth="yes"/>
      <point x="596" y="1097" type="line"/>
      <point x="594" y="563" type="line"/>
      <point x="596" y="153" type="line"/>
      <point x="764" y="119" type="line"/>
      <point x="764" y="0" type="line"/>
    </contour>
  </outline>
</glyph>
<glyph name="germandbls" format="2">
  <advance width="1552"/>
  <unicode hex="00DF"/>
  <outline>
    <contour>
      <point x="1289" y="1229" type="qcurve" smooth="yes"/>
      <point x="1289" y="1103"/>
      <point x="1161" y="980"/>
      <point x="1068" y="941" type="qcurve" smooth="yes"/>
      <point x="1026" y="923"/>
      <point x="982" y="875"/>
      <point x="982" y="836" type="qcurve" smooth="yes"/>
      <point x="982" y="791"/>
      <point x="1056" y="730"/>
      <point x="1177" y="686" type="qcurve" smooth="yes"/>
      <point x="1337" y="629"/>
      <point x="1504" y="462"/>
      <point x="1504" y="317" type="qcurve" smooth="yes"/>
      <point x="1504" y="165"/>
      <point x="1294" y="-24"/>
      <point x="1120" y="-24" type="qcurve" smooth="yes"/>
      <point x="1013" y="-24"/>
      <point x="868" y="17"/>
      <point x="815" y="55" type="qcurve"/>
      <point x="789" y="0" type="line"/>
      <point x="682" y="0" type="line"/>
      <point x="682" y="336" type="line"/>
      <point x="809" y="336" type="line"/>
      <point x="819" y="284" type="line" smooth="yes"/>
      <point x="837" y="200"/>
      <point x="957" y="107"/>
      <point x="1048" y="107" type="qcurve" smooth="yes"/>
      <point x="1111" y="107"/>
      <point x="1194" y="164"/>
      <point x="1194" y="223" type="qcurve" smooth="yes"/>
      <point x="1194" y="285"/>
      <point x="1106" y="348"/>
      <point x="991" y="393" type="qcurve" smooth="yes"/>
      <point x="846" y="451"/>
      <point x="692" y="607"/>
      <point x="692" y="734" type="qcurve" smooth="yes"/>
      <point x="692" y="841"/>
      <point x="802" y="970"/>
      <point x="897" y="1014" type="qcurve" smooth="yes"/>
      <point x="969" y="1047"/>
      <point x="1022" y="1133"/>
      <point x="1019" y="1208" type="qcurve" smooth="yes"/>
      <point x="1017" y="1281"/>
      <point x="920" y="1380"/>
      <point x="815" y="1380" type="qcurve" smooth="yes"/>
      <point x="693" y="1380"/>
      <point x="581" y="1221"/>
      <point x="582" y="1049" type="qcurve"/>
      <point x="586" y="527" type="line"/>
      <point x="599" y="45" type="line"/>
      <point x="570" y="0" type="line"/>
      <point x="69" y="0" type="line"/>
      <point x="69" y="107" type="line"/>
      <point x="205" y="142" type="line"/>
      <point x="209" y="527" type="line"/>
      <point x="212" y="1071" type="line" smooth="yes"/>
      <point x="213" y="1277"/>
      <point x="495" y="1526"/>
      <point x="789" y="1526" type="qcurve" smooth="yes"/>
      <point x="1014" y="1526"/>
      <point x="1289" y="1368"/>
    </contour>
  </outline>
</glyph>
<glyph name="ae" format="2">
  <advance width="1781"/>
  <unicode hex="00E6"/>
  <anchor x="896" y="1033" name="top"/>
  <outline>
    <contour>
      <point x="55" y="263" type="qcurve" smooth="yes"/>
      <point x="55" y="422"/>
      <point x="374" y="607"/>
      <point x="752" y="643" type="qcurve"/>
      <point x="760" y="539" type="line"/>
      <point x="572" y="522"/>
      <point x="414" y="406"/>
      <point x="414" y="291" type="qcurve" smooth="yes"/>
      <point x="414" y="220"/>
      <point x="477" y="153"/>
      <point x="537" y="153" type="qcurve" smooth="yes"/>
      <point x="596" y="153"/>
      <point x="707" y="223"/>
      <point x="734" y="272" type="qcurve"/>
      <point x="720" y="307"/>
      <point x="704" y="426"/>
      <point x="704" y="489" type="qcurve" smooth="yes"/>
      <point x="705" y="631" type="line" smooth="yes"/>
      <point x="706" y="785"/>
      <point x="610" y="901"/>
      <point x="509" y="901" type="qcurve" smooth="yes"/>
      <point x="447" y="901"/>
      <point x="348" y="866"/>
      <point x="328" y="845" type="qcurve"/>
      <point x="345" y="829"/>
      <point x="372" y="784"/>
      <point x="374" y="754" type="qcurve" smooth="yes"/>
      <point x="379" y="701"/>
      <point x="317" y="638"/>
      <point x="260" y="636" type="qcurve" smooth="yes"/>
      <point x="201" y="633"/>
      <point x="122" y="713"/>
      <point x="122" y="789" type="qcurve" smooth="yes"/>
      <point x="123" y="900"/>
      <point x="378" y="1058"/>
      <point x="600" y="1058" type="qcurve" smooth="yes"/>
      <point x="717" y="1058"/>
      <point x="879" y="991"/>
      <point x="919" y="943" type="qcurve"/>
      <point x="925" y="943" type="line"/>
      <point x="963" y="983"/>
      <point x="1132" y="1058"/>
      <point x="1255" y="1058" type="qcurve" smooth="yes"/>
      <point x="1467" y="1058"/>
      <point x="1726" y="818"/>
      <point x="1740" y="605" type="qcurve"/>
      <point x="1740" y="512" type="line"/>
      <point x="1012" y="512" type="line"/>
      <point x="1012" y="634" type="line"/>
      <point x="1417" y="634" type="line"/>
      <point x="1411" y="789"/>
      <point x="1333" y="917"/>
      <point x="1252" y="917" type="qcurve" smooth="yes"/>
      <point x="1163" y="917"/>
      <point x="1070" y="761"/>
      <point x="1071" y="544" type="qcurve" smooth="yes"/>
      <point x="1072" y="326"/>
      <point x="1217" y="149"/>
      <point x="1355" y="149" type="qcurve" smooth="yes"/>
      <point x="1455" y="149"/>
      <point x="1598" y="214"/>
      <point x="1642" y="257" type="qcurve"/>
      <point x="1712" y="165" type="line"/>
      <point x="1661" y="91"/>
      <point x="1436" y="-24"/>
      <point x="1260" y="-24" type="qcurve" smooth="yes"/>
      <point x="1099" y="-24"/>
      <point x="863" y="72"/>
      <point x="801" y="159" type="qcurve"/>
      <point x="744" y="92"/>
      <point x="533" y="-16"/>
      <point x="384" y="-16" type="qcurve" smooth="yes"/>
      <point x="219" y="-16"/>
      <point x="55" y="136"/>
    </contour>
  </outline>
</glyph>
<glyph name="eth" format="2">
  <advance width="1296"/>
  <unicode hex="00F0"/>
  <outline>
    <contour>
      <point x="51" y="504" type="qcurve" smooth="yes"/>
      <point x="51" y="745"/>
      <point x="379" y="1034"/>
      <point x="626" y="1034" type="qcurve" smooth="yes"/>
      <point x="830" y="1034"/>
      <point x="1002" y="737"/>
      <point x="1013" y="502" type="qcurve"/>
      <point x="861" y="502" type="line"/>
      <point x="866" y="700"/>
      <point x="765" y="889"/>
      <point x="654" y="891" type="qcurve" smooth="yes"/>
      <point x="546" y="892"/>
      <point x="449" y="737"/>
      <point x="450" y="517" type="qcurve" smooth="yes"/>
      <point x="450" y="295"/>
      <point x="554" y="107"/>
      <point x="653" y="107" type="qcurve" smooth="yes"/>
      <point x="776" y="107"/>
      <point x="864" y="345"/>
      <point x="864" y="607" type="qcurve" smooth="yes"/>
      <point x="864" y="940"/>
      <point x="544" y="1371"/>
      <point x="282" y="1466" type="qcurve"/>
      <point x="358" y="1587" type="line"/>
      <point x="824" y="1455"/>
      <point x="1258" y="936"/>
      <point x="1258" y="608" type="qcurve" smooth="yes"/>
      <point x="1258" y="314"/>
      <point x="935" y="-24"/>
      <point x="648" y="-24" type="qcurve" smooth="yes"/>
      <point x="379" y="-24"/>
      <point x="51" y="248"/>
    </contour>
    <contour>
      <point x="349" y="1211" type="line"/>
      <point x="969" y="1542" type="line"/>
      <point x="1031" y="1425" type="line"/>
      <point x="410" y="1093" type="line"/>
    </contour>
  </outline>
</glyph>
<glyph name="divide" format="2">
  <advance width="1005"/>
  <unicode hex="00F7"/>
  <outline>
    <contour>
      <point x="64" y="516" type="line"/>
      <point x="64" y="748" type="line"/>
      <point x="941" y="748" type="line"/>
      <point x="941" y="516" type="line"/>
    </contour>
    <contour>
      <point x="331" y="268" type="qcurve" smooth="yes"/>
      <point x="331" y="335"/>
      <point x="427" y="439"/>
      <point x="502" y="439" type="qcurve" smooth="yes"/>
      <point x="577" y="439"/>
      <point x="673" y="335"/>
      <point x="673" y="268" type="qcurve" smooth="yes"/>
      <point x="673" y="200"/>
      <point x="577" y="98"/>
      <point x="502" y="98" type="qcurve" smooth="yes"/>
      <point x="427" y="98"/>
      <point x="331" y="200"/>
    </contour>
    <contour>
      <point x="331" y="996" type="qcurve" smooth="yes"/>
      <point x="331" y="1064"/>
      <point x="427" y="1167"/>
      <point x="502" y="1167" type="qcurve" smooth="yes"/>
      <point x="577" y="1167"/>
      <point x="673" y="1064"/>
      <point x="673" y="996" type="qcurve" smooth="yes"/>
      <point x="673" y="929"/>
      <point x="577" y="826"/>
      <point x="502" y="826" type="qcurve" smooth="yes"/>
      <point x="427" y="826"/>
      <point x="331" y="929"/>
    </contour>
  </outline>
</glyph>
<glyph name="thorn" format="2">
  <advance width="1343"/>
  <unicode hex="00FE"/>
  <outline>
    <contour>
      <point x="19" y="-480" type="line"/>
      <point x="19" y="-374" type="line"/>
      <point x="149" y="-339" type="line"/>
      <point x="151" y="427" type="line"/>
      <point x="148" y="1347" type="line"/>
      <point x="4" y="1378" type="line"/>
      <point x="4" y="1500" type="line"/>
      <point x="446" y="1534" type="line"/>
      <point x="478" y="1534" type="line"/>
      <point x="525" y="1492" type="line"/>
      <point x="523" y="903" type="line"/>
      <point x="565" y="971"/>
      <point x="728" y="1053"/>
      <point x="846" y="1053" type="qcurve" smooth="yes"/>
      <point x="1042" y="1053"/>
      <point x="1288" y="789"/>
      <point x="1288" y="549" type="qcurve" smooth="yes"/>
      <point x="1288" y="293"/>
      <point x="1030" y="-12"/>
      <point x="812" y="-12" type="qcurve" smooth="yes"/>
      <point x="703" y="-12"/>
      <point x="562" y="43"/>
      <point x="522" y="82" type="qcurve"/>
      <point x="524" y="-339" type="line"/>
      <point x="682" y="-374" type="line"/>
      <point x="682" y="-480" type="line"/>
    </contour>
    <contour>
      <point x="521" y="254" type="line"/>
      <point x="543" y="203"/>
      <point x="636" y="135"/>
      <point x="701" y="135" type="qcurve" smooth="yes"/>
      <point x="791" y="135"/>
      <point x="887" y="310"/>
      <point x="887" y="510" type="qcurve" smooth="yes"/>
      <point x="887" y="711"/>
      <point x="796" y="863"/>
      <point x="703" y="863" type="qcurve" smooth="yes"/>
      <point x="638" y="863"/>
      <point x="548" y="794"/>
      <point x="522" y="741" type="qcurve"/>
      <point x="519" y="435" type="line"/>
    </contour>
  </outline>
</glyph>
<glyph name="idotless" format="2">
  <advance width="724"/>
  <unicode hex="0131"/>
  <anchor x="362" y="1033" name="top"/>
  <outline>
    <contour>
      <point x="47" y="0" type="line"/>
      <point x="47" y="107" type="line"/>
      <point x="182" y="142" type="line"/>
      <point x="184" y="544" type="line"/>
      <point x="181" y="852" type="line"/>
      <point x="44" y="882" type="line"/>
      <point x="44" y="1002" type="line"/>
      <point x="462" y="1037" type="line"/>
      <point x="529" y="1037" type="line"/>
      <point x="566" y="992" type="line"/>
      <point x="559" y="544" type="line"/>
      <point x="561" y="142" type="line"/>
      <point x="695" y="107" type="line"/>
      <point x="695" y="0" type="line"/>
    </contour>
  </outline>
</glyph>
<glyph name="kgreenlandic" format="2">
  <advance width="1329"/>
  <unicode hex="0138"/>
  <outline>
    <contour>
      <point x="42" y="0" type="line"/>
      <point x="42" y="107" type="line"/>
      <point x="163" y="142" type="line"/>
      <point x="165" y="530" type="line"/>
      <point x="163" y="878" type="line"/>
      <point x="42" y="917" type="line"/>
      <point x="42" y="1033" type="line"/>
      <point x="657" y="1033" type="line"/>
      <point x="657" y="913" type="line"/>
      <point x="539" y="878" type="line"/>
      <point x="538" y="537" type="line"/>
      <point x="538" y="142" type="line"/>
      <point x="648" y="107" type="line"/>
      <point x="648" y="0" type="line"/>
    </contour>
    <contour>
      <point x="505" y="359" type="line"/>
      <point x="476" y="497" type="line"/>
      <point x="894" y="879" type="line"/>
      <point x="771" y="912" type="line"/>
      <point x="771" y="1033" type="line"/>
      <point x="1248" y="1033" type="line"/>
      <point x="1248" y="912" type="line"/>
      <point x="1094" y="875" type="line"/>
    </contour>
    <contour>
      <point x="612" y="520" type="line"/>
      <point x="870" y="765" type="line"/>
      <point x="1218" y="142" type="line"/>
      <point x="1322" y="107" type="line"/>
      <point x="1322" y="0" type="line"/>
      <point x="788" y="0" type="line"/>
      <point x="777" y="106" type="line"/>
      <point x="823" y="138" type="line"/>
    </contour>
  </outline>
</glyph>
<glyph name="OE" format="2">
  <advance width="2126"/>
  <unicode hex="0152"/>
  <outline>
    <contour>
      <point x="65" y="741" type="qcurve" smooth="yes"/>
      <point x="65" y="1072"/>
      <point x="472" y="1524"/>
      <point x="831" y="1524" type="qcurve" smooth="yes"/>
      <point x="894" y="1524"/>
      <point x="1075" y="1509"/>
      <point x="1126" y="1500" type="qcurve" smooth="yes"/>
      <point x="1998" y="1500" type="line"/>
      <point x="1998" y="1146" type="line"/>
      <point x="1857" y="1146" type="line"/>
      <point x="1823" y="1353" type="line"/>
      <point x="1485" y="1353" type="line"/>
      <point x="1444" y="1331" type="line"/>
      <point x="1442" y="783" type="line"/>
      <point x="1444" y="162" type="line"/>
      <point x="1483" y="137" type="line"/>
      <point x="1875" y="137" type="line"/>
      <point x="1941" y="393" type="line"/>
      <point x="2085" y="393" type="line"/>
      <point x="2050" y="0" type="line"/>
      <point x="1135" y="0" type="line" smooth="yes"/>
      <point x="1084" y="-6"/>
      <point x="886" y="-25"/>
      <point x="812" y="-25" type="qcurve" smooth="yes"/>
      <point x="469" y="-25"/>
      <point x="65" y="400"/>
    </contour>
    <contour>
      <point x="488" y="769" type="qcurve" smooth="yes"/>
      <point x="488" y="425"/>
      <point x="674" y="126"/>
      <point x="846" y="126" type="qcurve" smooth="yes"/>
      <point x="920" y="126"/>
      <point x="1017" y="150"/>
      <point x="1056" y="168" type="qcurve"/>
      <point x="1059" y="764" type="line"/>
      <point x="1056" y="1319" type="line"/>
      <point x="1025" y="1339"/>
      <point x="911" y="1368"/>
      <point x="838" y="1368" type="qcurve" smooth="yes"/>
      <point x="660" y="1368"/>
      <point x="488" y="1082"/>
    </contour>
    <contour>
      <point x="1293" y="725" type="line"/>
      <point x="1293" y="847" type="line"/>
      <point x="1732" y="857" type="line"/>
      <point x="1760" y="1005" type="line"/>
      <point x="1891" y="1005" type="line"/>
      <point x="1891" y="563" type="line"/>
      <point x="1760" y="563" type="line"/>
      <point x="1732" y="715" type="line"/>
    </contour>
  </outline>
</glyph>
<glyph name="oe" format="2">
  <advance width="1933"/>
  <unicode hex="0153"/>
  <outline>
    <contour>
      <point x="52" y="517" type="qcurve" smooth="yes"/>
      <point x="52" y="757"/>
      <point x="380" y="1055"/>
      <point x="643" y="1055" type="qcurve" smooth="yes"/>
      <point x="771" y="1055"/>
      <point x="963" y="979"/>
      <point x="1028" y="921" type="qcurve"/>
      <point x="1037" y="921" type="line"/>
      <point x="1094" y="979"/>
      <point x="1280" y="1056"/>
      <point x="1390" y="1056" type="qcurve" smooth="yes"/>
      <point x="1620" y="1056"/>
      <point x="1878" y="818"/>
      <point x="1892" y="605" type="qcurve"/>
      <point x="1892" y="512" type="line"/>
      <point x="1164" y="512" type="line"/>
      <point x="1164" y="634" type="line"/>
      <point x="1569" y="634" type="line"/>
      <point x="1563" y="789"/>
      <point x="1485" y="917"/>
      <point x="1405" y="917" type="qcurve" smooth="yes"/>
      <point x="1315" y="917"/>
      <point x="1223" y="761"/>
      <point x="1224" y="544" type="qcurve" smooth="yes"/>
      <point x="1224" y="326"/>
      <point x="1370" y="149"/>
      <point x="1509" y="149" type="qcurve" smooth="yes"/>
      <point x="1609" y="149"/>
      <point x="1749" y="212"/>
      <point x="1794" y="257" type="qcurve"/>
      <point x="1864" y="165" type="line"/>
      <point x="1814" y="90"/>
      <point x="1588" y="-23"/>
      <point x="1409" y="-23" type="qcurve" smooth="yes"/>
      <point x="1294" y="-23"/>
      <point x="1095" y="50"/>
      <point x="1032" y="114" type="qcurve"/>
      <point x="1027" y="114" type="line"/>
      <point x="967" y="53"/>
      <point x="774" y="-23"/>
      <point x="648" y="-23" type="qcurve" smooth="yes"/>
      <point x="385" y="-23"/>
      <point x="52" y="259"/>
    </contour>
    <contour>
      <point x="451" y="533" type="qcurve" smooth="yes"/>
      <point x="452" y="309"/>
      <point x="555" y="107"/>
      <point x="654" y="107" type="qcurve" smooth="yes"/>
      <point x="760" y="107"/>
      <point x="859" y="287"/>
      <point x="859" y="519" type="qcurve" smooth="yes"/>
      <point x="859" y="739"/>
      <point x="754" y="914"/>
      <point x="656" y="914" type="qcurve" smooth="yes"/>
      <point x="550" y="914"/>
      <point x="450" y="756"/>
    </contour>
  </outline>
</glyph>
<glyph name="Schwa" format="2">
  <advance width="1385"/>
  <unicode hex="018F"/>
  <outline>
    <contour>
      <point x="52" y="1231" type="line"/>
      <point x="127" y="1366"/>
      <point x="404" y="1520"/>
      <point x="602" y="1520" type="qcurve" smooth="yes"/>
      <point x="924" y="1520"/>
      <point x="1320" y="1124"/>
      <point x="1320" y="767" type="qcurve" smooth="yes"/>
      <point x="1320" y="410"/>
      <point x="936" y="-26"/>
      <point x="632" y="-26" type="qcurve" smooth="yes"/>
      <point x="359" y="-26"/>
      <point x="55" y="273"/>
      <point x="55" y="578" type="qcurve" smooth="yes"/>
      <point x="55" y="686" type="line"/>
      <point x="1108" y="686" type="line"/>
      <point x="1108" y="546" type="line"/>
      <point x="619" y="552" type="line"/>
      <point x="349" y="548" type="line"/>
      <point x="349" y="481" type="line" smooth="yes"/>
      <point x="349" y="330"/>
      <point x="470" y="134"/>
      <point x="612" y="134" type="qcurve" smooth="yes"/>
      <point x="753" y="134"/>
      <point x="904" y="400"/>
      <point x="903" y="737" type="qcurve" smooth="yes"/>
      <point x="903" y="1087"/>
      <point x="703" y="1338"/>
      <point x="538" y="1338" type="qcurve" smooth="yes"/>
      <point x="412" y="1338"/>
      <point x="223" y="1233"/>
      <point x="167" y="1145" type="qcurve"/>
    </contour>
  </outline>
</glyph>
<glyph name="florin" format="2">
  <advance width="861"/>
  <unicode hex="0192"/>
  <outline>
    <contour>
      <point x="612" y="-4" type="line" smooth="yes"/>
      <point x="614" y="-141"/>
      <point x="449" y="-310"/>
      <point x="283" y="-310" type="qcurve" smooth="yes"/>
      <point x="204" y="-310"/>
      <point x="70" y="-291"/>
      <point x="31" y="-276" type="qcurve" smooth="yes"/>
      <point x="8" y="-268" type="line"/>
      <point x="13" y="-128" type="line"/>
      <point x="29" y="-134" type="line" smooth="yes"/>
      <point x="42" y="-139"/>
      <point x="93" y="-148"/>
      <point x="114" y="-148" type="qcurve" smooth="yes"/>
      <point x="173" y="-148"/>
      <point x="237" y="-78"/>
      <point x="236" y="-15" type="qcurve" smooth="yes"/>
      <point x="225" y="856" type="line"/>
      <point x="48" y="874" type="line"/>
      <point x="45" y="994" type="line"/>
      <point x="223" y="1017" type="line"/>
      <point x="217" y="1222" type="line" smooth="yes"/>
      <point x="213" y="1359"/>
      <point x="376" y="1527"/>
      <point x="544" y="1527" type="qcurve" smooth="yes"/>
      <point x="623" y="1527"/>
      <point x="758" y="1508"/>
      <point x="797" y="1494" type="qcurve" smooth="yes"/>
      <point x="820" y="1486" type="line"/>
      <point x="814" y="1346" type="line"/>
      <point x="798" y="1352" type="line" smooth="yes"/>
      <point x="786" y="1356"/>
      <point x="735" y="1365"/>
      <point x="713" y="1365" type="qcurve" smooth="yes"/>
      <point x="654" y="1365"/>
      <point x="597" y="1296"/>
      <point x="598" y="1233" type="qcurve" smooth="yes"/>
      <point x="603" y="1011" type="line"/>
      <point x="807" y="1011" type="line"/>
      <point x="807" y="876" type="line"/>
      <point x="603" y="867" type="line"/>
    </contour>
  </outline>
</glyph>
<glyph name="schwa" format="2">
  <advance width="1150"/>
  <unicode hex="0259"/>
  <outline>
    <contour>
      <point x="1098" y="523" type="qcurve" smooth="yes"/>
      <point x="1098" y="275"/>
      <point x="795" y="-24"/>
      <point x="543" y="-24" type="qcurve" smooth="yes"/>
      <point x="313" y="-24"/>
      <point x="55" y="216"/>
      <point x="41" y="429" type="qcurve"/>
      <point x="41" y="522" type="line"/>
      <point x="769" y="522" type="line"/>
      <point x="769" y="400" type="line"/>
      <point x="364" y="400" type="line"/>
      <point x="370" y="245"/>
      <point x="449" y="117"/>
      <point x="529" y="117" type="qcurve" smooth="yes"/>
      <point x="618" y="117"/>
      <point x="711" y="273"/>
      <point x="710" y="490" type="qcurve" smooth="yes"/>
      <point x="709" y="708"/>
      <point x="564" y="885"/>
      <point x="426" y="885" type="qcurve" smooth="yes"/>
      <point x="326" y="885"/>
      <point x="183" y="820"/>
      <point x="139" y="777" type="qcurve"/>
      <point x="70" y="869" type="line"/>
      <point x="120" y="943"/>
      <point x="348" y="1058"/>
      <point x="529" y="1058" type="qcurve" smooth="yes"/>
      <point x="785" y="1058"/>
      <point x="1098" y="785"/>
    </contour>
  </outline>
</glyph>
<glyph name="primemod" format="2">
  <advance width="577"/>
  <unicode hex="02B9"/>
  <outline>
    <contour>
      <point x="230" y="1502" type="line"/>
      <point x="503" y="1502" type="line"/>
      <point x="330" y="914" type="line"/>
      <point x="171" y="919" type="line"/>
    </contour>
  </outline>
</glyph>
<glyph name="apostrophemod" format="2">
  <advance width="607"/>
  <unicode hex="02BC"/>
  <outline>
    <contour>
      <point x="105" y="938" type="line"/>
      <point x="162" y="971"/>
      <point x="291" y="1091"/>
      <point x="323" y="1174" type="qcurve"/>
      <point x="208" y="1176"/>
      <point x="104" y="1279"/>
      <point x="104" y="1356" type="qcurve" smooth="yes"/>
      <point x="104" y="1432"/>
      <point x="218" y="1546"/>
      <point x="307" y="1546" type="qcurve" smooth="yes"/>
      <point x="393" y="1546"/>
      <point x="511" y="1442"/>
      <point x="511" y="1338" type="qcurve" smooth="yes"/>
      <point x="511" y="1195"/>
      <point x="293" y="930"/>
      <point x="159" y="872" type="qcurve"/>
    </contour>
  </outline>
</glyph>
<glyph name="circumflex" format="2">
  <advance width="1024"/>
  <unicode hex="02C6"/>
  <outline>
    <contour>
      <point x="512" y="1579" type="qcurve" smooth="yes"/>
      <point x="550" y="1579"/>
      <point x="607" y="1542"/>
      <point x="647" y="1492" type="qcurve" smooth="yes"/>
      <point x="853" y="1229" type="line"/>
      <point x="768" y="1150" type="line"/>
      <point x="512" y="1367" type="line"/>
      <point x="256" y="1150" type="line"/>
      <point x="171" y="1229" type="line"/>
      <point x="377" y="1492" type="line" smooth="yes"/>
      <point x="421" y="1547"/>
      <point x="474" y="1579"/>
    </contour>
  </outline>
</glyph>
<glyph name="caron" format="2">
  <advance width="1024"/>
  <unicode hex="02C7"/>
  <outline>
    <contour>
      <point x="512" y="1141" type="qcurve" smooth="yes"/>
      <point x="474" y="1141"/>
      <point x="417" y="1178"/>
      <point x="377" y="1228" type="qcurve" smooth="yes"/>
      <point x="171" y="1491" type="line"/>
      <point x="256" y="1570" type="line"/>
      <point x="512" y="1353" type="line"/>
      <point x="768" y="1570" type="line"/>
      <point x="853" y="1491" type="line"/>
      <point x="647" y="1228" type="line" smooth="yes"/>
      <point x="603" y="1173"/>
      <point x="550" y="1141"/>
    </contour>
  </outline>
</glyph>
<glyph name="breve" format="2">
  <advance width="1024"/>
  <unicode hex="02D8"/>
  <outline>
    <contour>
      <point x="782" y="1512" type="qcurve"/>
      <point x="870" y="1466" type="line"/>
      <point x="854" y="1357"/>
      <point x="663" y="1162"/>
      <point x="513" y="1162" type="qcurve" smooth="yes"/>
      <point x="363" y="1162"/>
      <point x="173" y="1335"/>
      <point x="154" y="1464" type="qcurve"/>
      <point x="246" y="1513" type="line"/>
      <point x="280" y="1440"/>
      <point x="413" y="1336"/>
      <point x="514" y="1336" type="qcurve" smooth="yes"/>
      <point x="619" y="1336"/>
      <point x="754" y="1442"/>
    </contour>
  </outline>
</glyph>
<glyph name="dotaccent" format="2">
  <advance width="1024"/>
  <unicode hex="02D9"/>
  <outline>
    <contour>
      <point x="373" y="1288" type="qcurve" smooth="yes"/>
      <point x="373" y="1358"/>
      <point x="448" y="1431"/>
      <point x="517" y="1431" type="qcurve" smooth="yes"/>
      <point x="582" y="1431"/>
      <point x="660" y="1352"/>
      <point x="660" y="1288" type="qcurve" smooth="yes"/>
      <point x="660" y="1220"/>
      <point x="587" y="1145"/>
      <point x="517" y="1145" type="qcurve" smooth="yes"/>
      <point x="452" y="1145"/>
      <point x="373" y="1223"/>
    </contour>
  </outline>
</glyph>
<glyph name="ring" format="2">
  <advance width="1024"/>
  <unicode hex="02DA"/>
  <outline>
    <contour>
      <point x="263" y="1382" type="qcurve" smooth="yes"/>
      <point x="263" y="1482"/>
      <point x="409" y="1621"/>
      <point x="512" y="1621" type="qcurve" smooth="yes"/>
      <point x="615" y="1621"/>
      <point x="761" y="1482"/>
      <point x="761" y="1382" type="qcurve" smooth="yes"/>
      <point x="761" y="1282"/>
      <point x="615" y="1143"/>
      <point x="512" y="1143" type="qcurve" smooth="yes"/>
      <point x="409" y="1143"/>
      <point x="263" y="1282"/>
    </contour>
    <contour>
      <point x="400" y="1382" type="qcurve" smooth="yes"/>
      <point x="400" y="1331"/>
      <point x="460" y="1270"/>
      <point x="512" y="1270" type="qcurve" smooth="yes"/>
      <point x="566" y="1270"/>
      <point x="624" y="1327"/>
      <point x="624" y="1382" type="qcurve" smooth="yes"/>
      <point x="624" y="1432"/>
      <point x="564" y="1494"/>
      <point x="512" y="1494" type="qcurve" smooth="yes"/>
      <point x="458" y="1494"/>
      <point x="400" y="1437"/>
    </contour>
  </outline>
</glyph>
<glyph name="ogonek" format="2">
  <advance width="1024"/>
  <unicode hex="02DB"/>
  <outline>
    <contour>
      <point x="447" y="-232" type="qcurve" smooth="yes"/>
      <point x="447" y="-279"/>
      <point x="513" y="-335"/>
      <point x="566" y="-335" type="qcurve" smooth="yes"/>
      <point x="622" y="-335"/>
      <point x="722" y="-297"/>
      <point x="776" y="-257" type="qcurve"/>
      <point x="830" y="-343" type="line"/>
      <point x="790" y="-387"/>
      <point x="616" y="-474"/>
      <point x="510" y="-474" type="qcurve" smooth="yes"/>
      <point x="391" y="-474"/>
      <point x="255" y="-376"/>
      <point x="255" y="-290" type="qcurve" smooth="yes"/>
      <point x="255" y="-194"/>
      <point x="388" y="-33"/>
      <point x="476" y="32" type="qcurve" smooth="yes"/>
      <point x="503" y="53" type="line"/>
      <point x="594" y="0" type="line"/>
      <point x="576" y="-18" type="line" smooth="yes"/>
      <point x="503" y="-90"/>
      <point x="447" y="-185"/>
    </contour>
  </outline>
</glyph>
<glyph name="tilde" format="2">
  <advance width="1024"/>
  <unicode hex="02DC"/>
  <outline>
    <contour>
      <point x="143" y="1252" type="line"/>
      <point x="177" y="1322"/>
      <point x="304" y="1435"/>
      <point x="379" y="1435" type="qcurve" smooth="yes"/>
      <point x="424" y="1435"/>
      <point x="495" y="1408"/>
      <point x="534" y="1383" type="qcurve" smooth="yes"/>
      <point x="565" y="1364"/>
      <point x="646" y="1318"/>
      <point x="688" y="1318" type="qcurve" smooth="yes"/>
      <point x="729" y="1318"/>
      <point x="807" y="1369"/>
      <point x="831" y="1404" type="qcurve"/>
      <point x="895" y="1318" type="line"/>
      <point x="857" y="1239"/>
      <point x="738" y="1144"/>
      <point x="674" y="1144" type="qcurve" smooth="yes"/>
      <point x="624" y="1144"/>
      <point x="533" y="1185"/>
      <point x="502" y="1204" type="qcurve" smooth="yes"/>
      <point x="466" y="1227"/>
      <point x="397" y="1260"/>
      <point x="365" y="1260" type="qcurve" smooth="yes"/>
      <point x="318" y="1260"/>
      <point x="231" y="1195"/>
      <point x="211" y="1167" type="qcurve"/>
    </contour>
  </outline>
</glyph>
